G04 start of page 8 for group -4079 idx -4079 *
G04 Title: m0n5t3r tinyISP, topsilk *
G04 Creator: pcb 1.99z *
G04 CreationDate: Mon 28 Apr 2014 05:03:51 PM GMT UTC *
G04 For: iacobs *
G04 Format: Gerber/RS-274X *
G04 PCB-Dimensions (mil): 2790.00 1510.00 *
G04 PCB-Coordinate-Origin: lower left *
%MOIN*%
%FSLAX25Y25*%
%LNTOPSILK*%
%ADD42C,0.0200*%
%ADD41C,0.0100*%
G54D41*X68139Y57914D02*Y47914D01*
Y87914D02*Y77914D01*
X64839D02*Y57914D01*
Y77914D02*X71439D01*
Y57914D01*
X64839D02*X71439D01*
X34018Y36574D02*X54018D01*
X34018D02*Y26574D01*
X54018D01*
Y36574D02*Y26574D01*
X44018Y36574D02*Y26574D01*
X54018D01*
X74000Y30000D02*X78000D01*
X76000Y32000D02*Y28000D01*
X102000Y30000D02*X106000D01*
X80000D02*G75*G03X80000Y30000I10000J0D01*G01*
X102000Y105000D02*X106000D01*
X104000Y107000D02*Y103000D01*
X74000Y105000D02*X78000D01*
X100000D02*G75*G03X100000Y105000I-10000J0D01*G01*
X47000Y115000D02*X57000D01*
X17000D02*X27000D01*
Y111700D02*X47000D01*
X27000Y118300D02*Y111700D01*
Y118300D02*X47000D01*
Y111700D01*
X17000Y124000D02*X27000D01*
X47000D02*X57000D01*
X27000Y127300D02*X47000D01*
Y120700D01*
X27000D02*X47000D01*
X27000Y127300D02*Y120700D01*
G54D42*X54000Y92000D02*Y44000D01*
X29000Y92000D02*X54000D01*
X29000Y44000D02*X54000D01*
G54D41*X80170Y87902D02*X180170D01*
X80170D02*Y47902D01*
X180170D01*
Y87902D02*Y72902D01*
Y62902D02*Y47902D01*
Y72902D02*G75*G03X180170Y62902I0J-5000D01*G01*
X158000Y37000D02*X168000D01*
X188000D02*X198000D01*
X168000Y40300D02*X188000D01*
Y33700D01*
X168000D02*X188000D01*
X168000Y40300D02*Y33700D01*
X158000Y22027D02*X168000D01*
X188000D02*X198000D01*
X168000Y25327D02*X188000D01*
Y18727D01*
X168000D02*X188000D01*
X168000Y25327D02*Y18727D01*
X107000Y22278D02*X117000D01*
X137000D02*X147000D01*
X117000Y25578D02*X137000D01*
Y18978D01*
X117000D02*X137000D01*
X117000Y25578D02*Y18978D01*
X194000Y58000D02*Y48000D01*
Y88000D02*Y78000D01*
X190700D02*Y58000D01*
Y78000D02*X197300D01*
Y58000D01*
X190700D02*X197300D01*
X203433Y61570D02*Y56570D01*
Y76570D02*Y71570D01*
X201833D02*Y61570D01*
Y71570D02*X205033D01*
Y61570D01*
X201833D02*X205033D01*
X17000Y133000D02*X27000D01*
X47000D02*X57000D01*
X27000Y136300D02*X47000D01*
Y129700D01*
X27000D02*X47000D01*
X27000Y136300D02*Y129700D01*
X95000Y124000D02*X105000D01*
X65000D02*X75000D01*
Y120700D02*X95000D01*
X75000Y127300D02*Y120700D01*
Y127300D02*X95000D01*
Y120700D01*
X150000Y133000D02*Y128000D01*
Y118000D02*Y113000D01*
X151600Y128000D02*Y118000D01*
X148400D02*X151600D01*
X148400Y128000D02*Y118000D01*
Y128000D02*X151600D01*
X130000Y133000D02*Y128000D01*
Y118000D02*Y113000D01*
X131600Y128000D02*Y118000D01*
X128400D02*X131600D01*
X128400Y128000D02*Y118000D01*
Y128000D02*X131600D01*
X145159Y101483D02*X150159D01*
X130159D02*X135159D01*
Y99883D02*X145159D01*
X135159Y103083D02*Y99883D01*
Y103083D02*X145159D01*
Y99883D01*
X95000Y133000D02*X105000D01*
X65000D02*X75000D01*
Y129700D02*X95000D01*
X75000Y136300D02*Y129700D01*
Y136300D02*X95000D01*
Y129700D01*
X212000Y41000D02*X232000D01*
X212000D02*Y31000D01*
X232000D01*
Y41000D02*Y31000D01*
X222000Y41000D02*Y31000D01*
X232000D01*
X212224Y99046D02*X232224D01*
Y109046D02*Y99046D01*
X212224Y109046D02*X232224D01*
X212224D02*Y99046D01*
X222224Y109046D02*Y99046D01*
X212224Y109046D02*X222224D01*
X262000Y83000D02*Y53000D01*
X242000Y83000D02*X262000D01*
X242000D02*Y53000D01*
X262000D01*
X252000Y63000D02*X262000D01*
X252000D02*Y53000D01*
X218000Y55000D02*Y51000D01*
X216000Y53000D02*X220000D01*
X218000Y83000D02*Y79000D01*
Y57000D02*G75*G03X218000Y57000I0J10000D01*G01*
X66439Y61614D02*Y59614D01*
Y61614D02*X66939Y62114D01*
X67939D01*
X68439Y61614D02*X67939Y62114D01*
X68439Y61614D02*Y60114D01*
X66439D02*X70439D01*
X68439Y60914D02*X70439Y62114D01*
X69939Y63314D02*X70439Y63814D01*
X69139Y63314D02*X69939D01*
X69139D02*X68439Y64014D01*
Y64614D02*Y64014D01*
Y64614D02*X69139Y65314D01*
X69939D01*
X70439Y64814D02*X69939Y65314D01*
X70439Y64814D02*Y63814D01*
X67739Y63314D02*X68439Y64014D01*
X66939Y63314D02*X67739D01*
X66939D02*X66439Y63814D01*
Y64814D02*Y63814D01*
Y64814D02*X66939Y65314D01*
X67739D01*
X68439Y64614D02*X67739Y65314D01*
X39582Y23626D02*X40382D01*
Y20126D01*
X39882Y19626D02*X40382Y20126D01*
X39382Y19626D02*X39882D01*
X38882Y20126D02*X39382Y19626D01*
X38882Y20626D02*Y20126D01*
X41582Y22826D02*X42382Y23626D01*
Y19626D01*
X41582D02*X43082D01*
X66600Y113300D02*Y109300D01*
X68600D01*
X69800Y111500D02*X71300D01*
X69800Y109300D02*X71800D01*
X69800Y113300D02*Y109300D01*
Y113300D02*X71800D01*
X73500D02*Y109300D01*
X74800Y113300D02*X75500Y112600D01*
Y110000D01*
X74800Y109300D02*X75500Y110000D01*
X73000Y109300D02*X74800D01*
X73000Y113300D02*X74800D01*
X76700Y112500D02*X77500Y113300D01*
Y109300D01*
X76700D02*X78200D01*
X48000Y61300D02*Y60000D01*
X48700Y62000D02*X48000Y61300D01*
X48700Y62000D02*X51300D01*
X52000Y61300D01*
Y60000D01*
X48500Y58800D02*X51500D01*
X52000Y58300D01*
Y57300D01*
X51500Y56800D01*
X48500D02*X51500D01*
X48000Y57300D02*X48500Y56800D01*
X48000Y58300D02*Y57300D01*
X48500Y58800D02*X48000Y58300D01*
Y55600D02*X52000D01*
X48000Y53100D01*
X52000D01*
X48000Y51900D02*X52000D01*
X48000Y49400D01*
X52000D01*
X51200Y48200D02*X52000Y47400D01*
X48000D02*X52000D01*
X48000Y48200D02*Y46700D01*
X29433Y116929D02*X31433D01*
X31933Y116429D01*
Y115429D01*
X31433Y114929D02*X31933Y115429D01*
X29933Y114929D02*X31433D01*
X29933Y116929D02*Y112929D01*
X30733Y114929D02*X31933Y112929D01*
X33133Y116429D02*X33633Y116929D01*
X35133D01*
X35633Y116429D01*
Y115429D01*
X33133Y112929D02*X35633Y115429D01*
X33133Y112929D02*X35633D01*
X29500Y135100D02*Y131100D01*
X30800Y135100D02*X31500Y134400D01*
Y131800D01*
X30800Y131100D02*X31500Y131800D01*
X29000Y131100D02*X30800D01*
X29000Y135100D02*X30800D01*
X32700Y134300D02*X33500Y135100D01*
Y131100D01*
X32700D02*X34200D01*
X77081Y134893D02*X79081D01*
X79581Y134393D01*
Y133393D01*
X79081Y132893D02*X79581Y133393D01*
X77581Y132893D02*X79081D01*
X77581Y134893D02*Y130893D01*
X78381Y132893D02*X79581Y130893D01*
X80781Y134093D02*X81581Y134893D01*
Y130893D01*
X80781D02*X82281D01*
X29600Y126200D02*Y122200D01*
X30900Y126200D02*X31600Y125500D01*
Y122900D01*
X30900Y122200D02*X31600Y122900D01*
X29100Y122200D02*X30900D01*
X29100Y126200D02*X30900D01*
X32800Y125700D02*X33300Y126200D01*
X34800D01*
X35300Y125700D01*
Y124700D01*
X32800Y122200D02*X35300Y124700D01*
X32800Y122200D02*X35300D01*
X77133Y126099D02*X79133D01*
X79633Y125599D01*
Y124599D01*
X79133Y124099D02*X79633Y124599D01*
X77633Y124099D02*X79133D01*
X77633Y126099D02*Y122099D01*
X78433Y124099D02*X79633Y122099D01*
X80833Y125599D02*X81333Y126099D01*
X82333D01*
X82833Y125599D01*
X82333Y122099D02*X82833Y122599D01*
X81333Y122099D02*X82333D01*
X80833Y122599D02*X81333Y122099D01*
Y124299D02*X82333D01*
X82833Y125599D02*Y124799D01*
Y123799D02*Y122599D01*
Y123799D02*X82333Y124299D01*
X82833Y124799D02*X82333Y124299D01*
X135095Y119308D02*X136395D01*
X134395Y120008D02*X135095Y119308D01*
X134395Y122608D02*Y120008D01*
Y122608D02*X135095Y123308D01*
X136395D01*
X137595Y122508D02*X138395Y123308D01*
Y119308D01*
X137595D02*X139095D01*
X136841Y106217D02*X139341Y110217D01*
X136841D02*X139341Y106217D01*
X140541Y109417D02*X141341Y110217D01*
Y106217D01*
X140541D02*X142041D01*
X103100Y37500D02*Y33500D01*
X105100D01*
X106300Y35700D02*X107800D01*
X106300Y33500D02*X108300D01*
X106300Y37500D02*Y33500D01*
Y37500D02*X108300D01*
X110000D02*Y33500D01*
X111300Y37500D02*X112000Y36800D01*
Y34200D01*
X111300Y33500D02*X112000Y34200D01*
X109500Y33500D02*X111300D01*
X109500Y37500D02*X111300D01*
X113200Y37000D02*X113700Y37500D01*
X115200D01*
X115700Y37000D01*
Y36000D01*
X113200Y33500D02*X115700Y36000D01*
X113200Y33500D02*X115700D01*
X103229Y69799D02*Y66299D01*
X103729Y65799D01*
X104729D01*
X105229Y66299D01*
Y69799D02*Y66299D01*
X106429Y68999D02*X107229Y69799D01*
Y65799D01*
X106429D02*X107929D01*
X119400Y24178D02*X121400D01*
X121900Y23678D01*
Y22678D01*
X121400Y22178D02*X121900Y22678D01*
X119900Y22178D02*X121400D01*
X119900Y24178D02*Y20178D01*
X120700Y22178D02*X121900Y20178D01*
X123100Y21678D02*X125100Y24178D01*
X123100Y21678D02*X125600D01*
X125100Y24178D02*Y20178D01*
X226300Y29400D02*X227100D01*
Y25900D01*
X226600Y25400D02*X227100Y25900D01*
X226100Y25400D02*X226600D01*
X225600Y25900D02*X226100Y25400D01*
X225600Y26400D02*Y25900D01*
X228300Y26900D02*X230300Y29400D01*
X228300Y26900D02*X230800D01*
X230300Y29400D02*Y25400D01*
X170100Y38800D02*X172100D01*
X172600Y38300D01*
Y37300D01*
X172100Y36800D02*X172600Y37300D01*
X170600Y36800D02*X172100D01*
X170600Y38800D02*Y34800D01*
X171400Y36800D02*X172600Y34800D01*
X174300D02*X176300Y38800D01*
X173800D02*X176300D01*
X170200Y23827D02*X172200D01*
X172700Y23327D01*
Y22327D01*
X172200Y21827D02*X172700Y22327D01*
X170700Y21827D02*X172200D01*
X170700Y23827D02*Y19827D01*
X171500Y21827D02*X172700Y19827D01*
X175400Y23827D02*X175900Y23327D01*
X174400Y23827D02*X175400D01*
X173900Y23327D02*X174400Y23827D01*
X173900Y23327D02*Y20327D01*
X174400Y19827D01*
X175400Y22027D02*X175900Y21527D01*
X173900Y22027D02*X175400D01*
X174400Y19827D02*X175400D01*
X175900Y20327D01*
Y21527D02*Y20327D01*
X212924Y114046D02*X213724D01*
Y110546D01*
X213224Y110046D02*X213724Y110546D01*
X212724Y110046D02*X213224D01*
X212224Y110546D02*X212724Y110046D01*
X212224Y111046D02*Y110546D01*
X214924Y113546D02*X215424Y114046D01*
X216924D01*
X217424Y113546D01*
Y112546D01*
X214924Y110046D02*X217424Y112546D01*
X214924Y110046D02*X217424D01*
X246200Y89900D02*X247000D01*
Y86400D01*
X246500Y85900D02*X247000Y86400D01*
X246000Y85900D02*X246500D01*
X245500Y86400D02*X246000Y85900D01*
X245500Y86900D02*Y86400D01*
X248200Y89400D02*X248700Y89900D01*
X249700D01*
X250200Y89400D01*
X249700Y85900D02*X250200Y86400D01*
X248700Y85900D02*X249700D01*
X248200Y86400D02*X248700Y85900D01*
Y88100D02*X249700D01*
X250200Y89400D02*Y88600D01*
Y87600D02*Y86400D01*
Y87600D02*X249700Y88100D01*
X250200Y88600D02*X249700Y88100D01*
X192100Y61900D02*Y59900D01*
Y61900D02*X192600Y62400D01*
X193600D01*
X194100Y61900D02*X193600Y62400D01*
X194100Y61900D02*Y60400D01*
X192100D02*X196100D01*
X194100Y61200D02*X196100Y62400D01*
X192100Y65600D02*Y63600D01*
X194100D01*
X193600Y64100D01*
Y65100D02*Y64100D01*
Y65100D02*X194100Y65600D01*
X195600D01*
X196100Y65100D02*X195600Y65600D01*
X196100Y65100D02*Y64100D01*
X195600Y63600D02*X196100Y64100D01*
X201455Y82182D02*X202755D01*
X200755Y82882D02*X201455Y82182D01*
X200755Y85482D02*Y82882D01*
Y85482D02*X201455Y86182D01*
X202755D01*
X203955Y83682D02*X205955Y86182D01*
X203955Y83682D02*X206455D01*
X205955Y86182D02*Y82182D01*
X209885Y49215D02*X211185D01*
X209185Y49915D02*X209885Y49215D01*
X209185Y52515D02*Y49915D01*
Y52515D02*X209885Y53215D01*
X211185D01*
X212385Y52715D02*X212885Y53215D01*
X213885D01*
X214385Y52715D01*
X213885Y49215D02*X214385Y49715D01*
X212885Y49215D02*X213885D01*
X212385Y49715D02*X212885Y49215D01*
Y51415D02*X213885D01*
X214385Y52715D02*Y51915D01*
Y50915D02*Y49715D01*
Y50915D02*X213885Y51415D01*
X214385Y51915D02*X213885Y51415D01*
X154700Y120400D02*X156000D01*
X154000Y121100D02*X154700Y120400D01*
X154000Y123700D02*Y121100D01*
Y123700D02*X154700Y124400D01*
X156000D01*
X157200Y123900D02*X157700Y124400D01*
X159200D01*
X159700Y123900D01*
Y122900D01*
X157200Y120400D02*X159700Y122900D01*
X157200Y120400D02*X159700D01*
M02*
