M48
INCH
T26C0.028
%
T26
X001700Y013300
X001700Y012400
X001700Y011500
X003100Y007300
X003100Y006300
X003900Y007300
X003900Y006300
X003902Y003157
X004902Y003157
X005700Y013300
X005700Y012400
X005700Y011500
X006500Y013300
X006500Y012400
X006814Y008791
X006814Y004791
X008500Y010500
X008500Y003000
X008517Y008290
X008517Y005290
X009500Y010500
X009500Y003000
X009517Y008290
X009517Y005290
X010500Y013300
X010500Y012400
X010517Y008290
X010517Y005290
X010700Y002228
X011517Y008290
X011517Y005290
X012517Y008290
X012517Y005290
X013000Y013300
X013000Y011300
X013016Y010148
X013517Y008290
X013517Y005290
X014517Y008290
X014517Y005290
X014700Y002228
X015000Y013300
X015000Y011300
X015016Y010148
X015517Y008290
X015517Y005290
X015800Y003700
X015800Y002203
X016517Y008290
X016517Y005290
X017517Y008290
X017517Y005290
X019400Y008800
X019400Y004800
X019800Y003700
X019800Y002203
X020343Y007657
X020343Y005657
X021700Y003600
X021722Y010405
X021800Y007200
X021800Y006200
X022700Y003600
X022722Y010405
X024700Y007800
X024700Y006800
X024700Y005800
X025700Y007800
X025700Y006800
X025700Y005800
M30
