G04 start of page 3 for group 1 idx 1 *
G04 Title: m0n5t3r tinyISP, bottom *
G04 Creator: pcb 1.99z *
G04 CreationDate: Mon 28 Apr 2014 05:03:51 PM GMT UTC *
G04 For: iacobs *
G04 Format: Gerber/RS-274X *
G04 PCB-Dimensions (mil): 2790.00 1510.00 *
G04 PCB-Coordinate-Origin: lower left *
%MOIN*%
%FSLAX25Y25*%
%LNBOTTOM*%
%ADD25C,0.0900*%
%ADD24C,0.0276*%
%ADD23C,0.0630*%
%ADD22C,0.0600*%
%ADD21C,0.0550*%
%ADD20C,0.0100*%
%ADD19C,0.0250*%
%ADD18C,0.0001*%
G54D18*G36*
X147909Y109297D02*Y105126D01*
X147908Y105104D01*
X147907Y105087D01*
X147653Y104932D01*
X147533Y104829D01*
Y109528D01*
X147909Y109297D01*
G37*
G36*
X201197Y65500D02*X213584D01*
X213569Y65465D01*
X213514Y65235D01*
X213500Y65000D01*
X213513Y59300D01*
X213478Y59292D01*
X213240Y59260D01*
X213000Y59250D01*
X206733D01*
X206447Y59584D01*
X205938Y60019D01*
X205368Y60368D01*
X204750Y60624D01*
X204100Y60780D01*
X203433Y60833D01*
X202766Y60780D01*
X202115Y60624D01*
X201497Y60368D01*
X201197Y60184D01*
Y65500D01*
G37*
G36*
Y19226D02*X201449Y19521D01*
X201798Y20091D01*
X201968Y20500D01*
X227000D01*
X227001Y20500D01*
X229312Y20576D01*
X231606Y20878D01*
X233865Y21379D01*
X236072Y22074D01*
X238210Y22960D01*
X240263Y24028D01*
X242214Y25272D01*
X244050Y26680D01*
X245756Y28244D01*
X247320Y29950D01*
X248728Y31786D01*
X249972Y33737D01*
X251040Y35790D01*
X251926Y37928D01*
X252621Y40135D01*
X253122Y42394D01*
X253424Y44688D01*
X253525Y47000D01*
X253508Y47239D01*
X253500Y47273D01*
Y53584D01*
X253535Y53569D01*
X253765Y53514D01*
X254000Y53500D01*
X260235Y53514D01*
X260465Y53569D01*
X260683Y53659D01*
X260884Y53783D01*
X261064Y53936D01*
X261217Y54116D01*
X261341Y54317D01*
X261431Y54535D01*
X261486Y54765D01*
X261500Y55000D01*
X261486Y61235D01*
X261431Y61465D01*
X261341Y61683D01*
X261217Y61884D01*
X261064Y62064D01*
X260884Y62217D01*
X260683Y62341D01*
X260465Y62431D01*
X260235Y62486D01*
X260000Y62500D01*
X258232Y62496D01*
X258217Y62520D01*
X258064Y62700D01*
X258019Y62738D01*
X257251Y63506D01*
X257706Y63542D01*
X258395Y63707D01*
X259049Y63978D01*
X259653Y64348D01*
X260192Y64808D01*
X260652Y65347D01*
X261022Y65951D01*
X261249Y66500D01*
X263874D01*
X263900Y66498D01*
X264039Y66494D01*
X264178Y66476D01*
X264314Y66445D01*
X264447Y66404D01*
X264576Y66350D01*
X264700Y66286D01*
X264818Y66211D01*
X264928Y66126D01*
X265031Y66031D01*
X265126Y65928D01*
X265211Y65818D01*
X265286Y65700D01*
X265350Y65576D01*
X265404Y65447D01*
X265445Y65314D01*
X265476Y65178D01*
X265494Y65039D01*
X265500Y64900D01*
X265500Y64900D01*
Y47302D01*
X265485Y47240D01*
X265471Y47000D01*
X265384Y44342D01*
X265037Y41704D01*
X264461Y39106D01*
X263661Y36568D01*
X262642Y34110D01*
X261414Y31750D01*
X259984Y29506D01*
X258364Y27395D01*
X256567Y25433D01*
X254605Y23636D01*
X252494Y22016D01*
X250250Y20586D01*
X247890Y19358D01*
X245432Y18339D01*
X242894Y17539D01*
X240296Y16963D01*
X237658Y16616D01*
X235000Y16500D01*
X235000Y16500D01*
X201197D01*
Y19226D01*
G37*
G36*
Y45750D02*X211766D01*
X212002Y45740D01*
X212147Y45750D01*
X213683D01*
X213700Y45749D01*
X213792Y45746D01*
X213882Y45734D01*
X213972Y45714D01*
X214059Y45687D01*
X214144Y45652D01*
X214225Y45609D01*
X214302Y45560D01*
X214375Y45504D01*
X214442Y45442D01*
X214504Y45375D01*
X214560Y45302D01*
X214609Y45225D01*
X214652Y45144D01*
X214687Y45059D01*
X214714Y44972D01*
X214734Y44882D01*
X214746Y44792D01*
X214750Y44700D01*
Y39899D01*
X214347Y39652D01*
X213808Y39192D01*
X213348Y38653D01*
X212978Y38049D01*
X212707Y37395D01*
X212542Y36706D01*
X212486Y36000D01*
X212542Y35294D01*
X212707Y34605D01*
X212978Y33951D01*
X213348Y33347D01*
X213808Y32808D01*
X214347Y32348D01*
X214951Y31978D01*
X215605Y31707D01*
X216294Y31542D01*
X217000Y31486D01*
X217706Y31542D01*
X218395Y31707D01*
X219049Y31978D01*
X219653Y32348D01*
X220192Y32808D01*
X220652Y33347D01*
X221022Y33951D01*
X221293Y34605D01*
X221458Y35294D01*
X221500Y36000D01*
X221458Y36706D01*
X221293Y37395D01*
X221022Y38049D01*
X220652Y38653D01*
X220192Y39192D01*
X219653Y39652D01*
X219250Y39899D01*
Y44800D01*
X219243Y44925D01*
X219234Y45184D01*
X219171Y45665D01*
X219066Y46138D01*
X218920Y46600D01*
X218735Y47048D01*
X218511Y47478D01*
X218251Y47886D01*
X217956Y48271D01*
X217628Y48628D01*
X217271Y48956D01*
X216886Y49251D01*
X216478Y49511D01*
X216048Y49735D01*
X215600Y49920D01*
X215138Y50066D01*
X214665Y50171D01*
X214184Y50234D01*
X213700Y50255D01*
X213626Y50250D01*
X212104D01*
X212002Y50256D01*
X211452Y50274D01*
X210905Y50346D01*
X210367Y50465D01*
X209841Y50631D01*
X209332Y50842D01*
X208843Y51097D01*
X208378Y51393D01*
X207940Y51729D01*
X207534Y52101D01*
X207161Y52507D01*
X206826Y52945D01*
X206529Y53410D01*
X206451Y53560D01*
X206882Y54064D01*
X207231Y54634D01*
X207279Y54750D01*
X213000D01*
X213000Y54750D01*
X213632Y54771D01*
X214260Y54853D01*
X214878Y54990D01*
X215482Y55181D01*
X216067Y55423D01*
X216628Y55715D01*
X217162Y56055D01*
X217665Y56441D01*
X218131Y56869D01*
X218559Y57335D01*
X218692Y57508D01*
X221235Y57514D01*
X221465Y57569D01*
X221683Y57659D01*
X221884Y57783D01*
X222064Y57936D01*
X222217Y58116D01*
X222341Y58317D01*
X222431Y58535D01*
X222486Y58765D01*
X222500Y59000D01*
X222486Y65235D01*
X222431Y65465D01*
X222416Y65500D01*
X231500D01*
X231735Y65514D01*
X231810Y65532D01*
X232013Y65558D01*
X232362Y65636D01*
X232704Y65744D01*
X233034Y65881D01*
X233352Y66046D01*
X233654Y66238D01*
X233938Y66456D01*
X234202Y66698D01*
X234444Y66962D01*
X234662Y67246D01*
X234854Y67548D01*
X235019Y67866D01*
X235156Y68196D01*
X235264Y68538D01*
X235342Y68887D01*
X235388Y69242D01*
X235404Y69600D01*
X235402Y69620D01*
X235407Y69766D01*
X235429Y69930D01*
X235465Y70092D01*
X235515Y70250D01*
X235578Y70403D01*
X235655Y70550D01*
X235744Y70690D01*
X235845Y70821D01*
X235956Y70944D01*
X236079Y71055D01*
X236210Y71156D01*
X236350Y71245D01*
X236497Y71322D01*
X236650Y71385D01*
X236808Y71435D01*
X236970Y71471D01*
X237134Y71493D01*
X237300Y71500D01*
X244169D01*
X243808Y71192D01*
X243348Y70653D01*
X242978Y70049D01*
X242707Y69395D01*
X242542Y68706D01*
X242486Y68000D01*
X242542Y67294D01*
X242707Y66605D01*
X242978Y65951D01*
X243348Y65347D01*
X243808Y64808D01*
X244347Y64348D01*
X244951Y63978D01*
X245605Y63707D01*
X246294Y63542D01*
X247000Y63486D01*
X247706Y63542D01*
X248395Y63707D01*
X248944Y63935D01*
X250500Y62379D01*
Y60831D01*
X250192Y61192D01*
X249653Y61652D01*
X249049Y62022D01*
X248395Y62293D01*
X247706Y62458D01*
X247000Y62514D01*
X246294Y62458D01*
X245605Y62293D01*
X244951Y62022D01*
X244347Y61652D01*
X243808Y61192D01*
X243348Y60653D01*
X243101Y60250D01*
X239000D01*
X238950Y60247D01*
X238900Y60250D01*
X237666Y60210D01*
X236441Y60048D01*
X235234Y59781D01*
X234056Y59409D01*
X232914Y58936D01*
X231818Y58366D01*
X230776Y57702D01*
X229796Y56950D01*
X228885Y56115D01*
X228050Y55204D01*
X227298Y54224D01*
X226634Y53182D01*
X226064Y52086D01*
X225591Y50944D01*
X225219Y49766D01*
X224952Y48559D01*
X224790Y47334D01*
X224737Y46100D01*
X224750Y45911D01*
Y39899D01*
X224347Y39652D01*
X223808Y39192D01*
X223348Y38653D01*
X222978Y38049D01*
X222707Y37395D01*
X222542Y36706D01*
X222486Y36000D01*
X222542Y35294D01*
X222707Y34605D01*
X222978Y33951D01*
X223348Y33347D01*
X223808Y32808D01*
X224347Y32348D01*
X224951Y31978D01*
X225605Y31707D01*
X226294Y31542D01*
X227000Y31486D01*
X227706Y31542D01*
X228395Y31707D01*
X229049Y31978D01*
X229653Y32348D01*
X230192Y32808D01*
X230652Y33347D01*
X231022Y33951D01*
X231293Y34605D01*
X231458Y35294D01*
X231500Y36000D01*
X231458Y36706D01*
X231293Y37395D01*
X231022Y38049D01*
X230652Y38653D01*
X230192Y39192D01*
X229653Y39652D01*
X229250Y39899D01*
Y45944D01*
X229259Y46100D01*
X229287Y46941D01*
X229397Y47776D01*
X229579Y48598D01*
X229832Y49400D01*
X230154Y50178D01*
X230543Y50925D01*
X230995Y51635D01*
X231508Y52303D01*
X232076Y52924D01*
X232697Y53492D01*
X233365Y54005D01*
X234075Y54457D01*
X234822Y54846D01*
X235600Y55168D01*
X236402Y55421D01*
X237224Y55603D01*
X238059Y55713D01*
X238900Y55750D01*
X238950Y55753D01*
X239000Y55750D01*
X243101D01*
X243348Y55347D01*
X243808Y54808D01*
X244347Y54348D01*
X244951Y53978D01*
X245605Y53707D01*
X246294Y53542D01*
X247000Y53486D01*
X247706Y53542D01*
X248395Y53707D01*
X249049Y53978D01*
X249653Y54348D01*
X250192Y54808D01*
X250500Y55169D01*
Y47273D01*
X250492Y47239D01*
X250478Y47000D01*
X250411Y44952D01*
X250143Y42919D01*
X249699Y40918D01*
X249083Y38963D01*
X248298Y37068D01*
X247352Y35250D01*
X246250Y33521D01*
X245002Y31894D01*
X243617Y30383D01*
X242106Y28998D01*
X240479Y27750D01*
X238750Y26648D01*
X236932Y25702D01*
X235037Y24917D01*
X233082Y24301D01*
X231081Y23857D01*
X229048Y23589D01*
X227000Y23500D01*
X201990D01*
X201798Y23962D01*
X201449Y24533D01*
X201197Y24827D01*
Y34199D01*
X201449Y34494D01*
X201798Y35065D01*
X202054Y35683D01*
X202211Y36333D01*
X202250Y37000D01*
X202211Y37667D01*
X202054Y38317D01*
X201798Y38935D01*
X201449Y39506D01*
X201197Y39801D01*
Y45750D01*
G37*
G36*
X250613Y146000D02*X274000D01*
Y5000D01*
X250613D01*
Y17360D01*
X251766Y17961D01*
X254233Y19532D01*
X256554Y21313D01*
X258711Y23289D01*
X260687Y25446D01*
X262468Y27767D01*
X264039Y30234D01*
X265390Y32829D01*
X266510Y35531D01*
X267389Y38321D01*
X268022Y41177D01*
X268404Y44078D01*
X268532Y47000D01*
X268515Y47240D01*
X268500Y47302D01*
Y64900D01*
X268500Y64900D01*
X268487Y65301D01*
X268434Y65700D01*
X268347Y66092D01*
X268227Y66475D01*
X268073Y66846D01*
X267888Y67202D01*
X267672Y67541D01*
X267427Y67860D01*
X267156Y68156D01*
X266860Y68427D01*
X266541Y68672D01*
X266202Y68888D01*
X265846Y69073D01*
X265475Y69227D01*
X265092Y69347D01*
X264700Y69434D01*
X264301Y69487D01*
X263900Y69504D01*
X263839Y69500D01*
X261249D01*
X261022Y70049D01*
X260652Y70653D01*
X260192Y71192D01*
X259653Y71652D01*
X259049Y72022D01*
X258395Y72293D01*
X257706Y72458D01*
X257000Y72514D01*
X256294Y72458D01*
X255605Y72293D01*
X254951Y72022D01*
X254347Y71652D01*
X253808Y71192D01*
X253500Y70831D01*
Y71500D01*
X253500Y71500D01*
X253491Y71762D01*
X253457Y72021D01*
X253401Y72277D01*
X253322Y72527D01*
X253222Y72769D01*
X253101Y73001D01*
X252960Y73222D01*
X252800Y73430D01*
X252623Y73623D01*
X252430Y73800D01*
X252222Y73960D01*
X252001Y74101D01*
X251769Y74222D01*
X251527Y74322D01*
X251277Y74401D01*
X251021Y74457D01*
X250876Y74476D01*
X250835Y74486D01*
X250775Y74490D01*
X250762Y74491D01*
X250698Y74494D01*
X250613Y74499D01*
Y75853D01*
X250656Y75860D01*
X250768Y75897D01*
X250873Y75952D01*
X250968Y76022D01*
X251051Y76106D01*
X251119Y76202D01*
X251170Y76308D01*
X251318Y76716D01*
X251422Y77137D01*
X251484Y77567D01*
X251505Y78000D01*
X251484Y78433D01*
X251422Y78863D01*
X251318Y79284D01*
X251175Y79694D01*
X251122Y79800D01*
X251053Y79896D01*
X250970Y79981D01*
X250875Y80051D01*
X250769Y80106D01*
X250657Y80143D01*
X250613Y80151D01*
Y106896D01*
X251282Y106282D01*
X252131Y105356D01*
X252896Y104360D01*
X253571Y103300D01*
X254151Y102186D01*
X254632Y101025D01*
X255009Y99827D01*
X255281Y98601D01*
X255445Y97355D01*
X255500Y96100D01*
X255503Y96050D01*
X255500Y96000D01*
Y82249D01*
X254951Y82022D01*
X254347Y81652D01*
X253808Y81192D01*
X253348Y80653D01*
X252978Y80049D01*
X252707Y79395D01*
X252542Y78706D01*
X252486Y78000D01*
X252542Y77294D01*
X252707Y76605D01*
X252978Y75951D01*
X253348Y75347D01*
X253808Y74808D01*
X254347Y74348D01*
X254951Y73978D01*
X255605Y73707D01*
X256294Y73542D01*
X257000Y73486D01*
X257706Y73542D01*
X258395Y73707D01*
X259049Y73978D01*
X259653Y74348D01*
X260192Y74808D01*
X260652Y75347D01*
X261022Y75951D01*
X261293Y76605D01*
X261458Y77294D01*
X261500Y78000D01*
X261458Y78706D01*
X261293Y79395D01*
X261022Y80049D01*
X260652Y80653D01*
X260192Y81192D01*
X259653Y81652D01*
X259049Y82022D01*
X258500Y82249D01*
Y96000D01*
X258497Y96050D01*
X258500Y96100D01*
X258450Y97618D01*
X258252Y99124D01*
X257923Y100608D01*
X257466Y102057D01*
X256885Y103461D01*
X256183Y104808D01*
X255367Y106090D01*
X254442Y107295D01*
X253415Y108415D01*
X252295Y109442D01*
X251090Y110367D01*
X250613Y110670D01*
Y123548D01*
X259659Y123549D01*
X259812Y123586D01*
X259957Y123646D01*
X260092Y123728D01*
X260211Y123831D01*
X260314Y123950D01*
X260396Y124085D01*
X260456Y124230D01*
X260493Y124383D01*
X260502Y124540D01*
X260493Y135267D01*
X260456Y135420D01*
X260396Y135565D01*
X260314Y135700D01*
X260211Y135819D01*
X260092Y135922D01*
X259957Y136004D01*
X259812Y136064D01*
X259659Y136101D01*
X259502Y136110D01*
X250613Y136109D01*
Y146000D01*
G37*
G36*
Y110670D02*X249808Y111183D01*
X248461Y111885D01*
X247057Y112466D01*
X245608Y112923D01*
X244124Y113252D01*
X242618Y113450D01*
X241100Y113517D01*
X240867Y113500D01*
X225100D01*
X225002Y113494D01*
X224354Y113473D01*
X223535Y113365D01*
X222729Y113187D01*
X221942Y112938D01*
X221613Y112802D01*
Y123545D01*
X250613Y123548D01*
Y110670D01*
G37*
G36*
Y74499D02*X250600Y74500D01*
X250565D01*
X250500Y74503D01*
X250460Y74500D01*
X249163D01*
X249164Y74579D01*
X249146Y74696D01*
X249110Y74809D01*
X249057Y74915D01*
X248988Y75012D01*
X248905Y75096D01*
X248809Y75167D01*
X248704Y75221D01*
X248592Y75259D01*
X248475Y75278D01*
X248356Y75279D01*
X248239Y75261D01*
X248126Y75223D01*
X247855Y75124D01*
X247575Y75056D01*
X247289Y75014D01*
X247000Y75000D01*
X246998Y75000D01*
Y81000D01*
X247000Y81000D01*
X247289Y80986D01*
X247575Y80944D01*
X247855Y80876D01*
X248128Y80780D01*
X248239Y80742D01*
X248356Y80725D01*
X248474Y80725D01*
X248591Y80745D01*
X248703Y80782D01*
X248807Y80836D01*
X248902Y80906D01*
X248985Y80991D01*
X249054Y81087D01*
X249107Y81192D01*
X249143Y81305D01*
X249160Y81421D01*
X249159Y81539D01*
X249140Y81656D01*
X249103Y81768D01*
X249048Y81873D01*
X248978Y81968D01*
X248894Y82051D01*
X248798Y82119D01*
X248692Y82170D01*
X248284Y82318D01*
X247863Y82422D01*
X247433Y82484D01*
X247000Y82505D01*
X246998Y82505D01*
Y109228D01*
X247186Y109151D01*
X248300Y108571D01*
X249359Y107896D01*
X250356Y107131D01*
X250613Y106896D01*
Y80151D01*
X250540Y80163D01*
X250421Y80164D01*
X250304Y80146D01*
X250191Y80110D01*
X250085Y80057D01*
X249988Y79988D01*
X249904Y79905D01*
X249833Y79809D01*
X249779Y79704D01*
X249741Y79592D01*
X249722Y79475D01*
X249721Y79356D01*
X249739Y79239D01*
X249777Y79126D01*
X249876Y78855D01*
X249944Y78575D01*
X249986Y78289D01*
X250000Y78000D01*
X249986Y77711D01*
X249944Y77425D01*
X249876Y77145D01*
X249780Y76872D01*
X249742Y76761D01*
X249725Y76644D01*
X249725Y76526D01*
X249745Y76409D01*
X249782Y76297D01*
X249836Y76193D01*
X249906Y76098D01*
X249991Y76015D01*
X250087Y75946D01*
X250192Y75893D01*
X250305Y75857D01*
X250421Y75840D01*
X250539Y75841D01*
X250613Y75853D01*
Y74499D01*
G37*
G36*
X246998Y75000D02*X246711Y75014D01*
X246425Y75056D01*
X246145Y75124D01*
X245872Y75220D01*
X245761Y75258D01*
X245644Y75275D01*
X245526Y75275D01*
X245409Y75255D01*
X245297Y75218D01*
X245193Y75164D01*
X245098Y75094D01*
X245015Y75009D01*
X244946Y74913D01*
X244893Y74808D01*
X244857Y74695D01*
X244840Y74579D01*
X244840Y74500D01*
X243387D01*
Y75849D01*
X243460Y75837D01*
X243579Y75836D01*
X243696Y75854D01*
X243809Y75890D01*
X243915Y75943D01*
X244012Y76012D01*
X244096Y76095D01*
X244167Y76191D01*
X244221Y76296D01*
X244259Y76408D01*
X244278Y76525D01*
X244279Y76644D01*
X244261Y76761D01*
X244223Y76874D01*
X244124Y77145D01*
X244056Y77425D01*
X244014Y77711D01*
X244000Y78000D01*
X244014Y78289D01*
X244056Y78575D01*
X244124Y78855D01*
X244220Y79128D01*
X244258Y79239D01*
X244275Y79356D01*
X244275Y79474D01*
X244255Y79591D01*
X244218Y79703D01*
X244164Y79807D01*
X244094Y79902D01*
X244009Y79985D01*
X243913Y80054D01*
X243808Y80107D01*
X243695Y80143D01*
X243579Y80160D01*
X243461Y80159D01*
X243387Y80147D01*
Y110309D01*
X243601Y110281D01*
X244827Y110009D01*
X246025Y109632D01*
X246998Y109228D01*
Y82505D01*
X246567Y82484D01*
X246137Y82422D01*
X245716Y82318D01*
X245306Y82175D01*
X245200Y82122D01*
X245104Y82053D01*
X245019Y81970D01*
X244949Y81875D01*
X244894Y81769D01*
X244857Y81657D01*
X244837Y81540D01*
X244836Y81421D01*
X244854Y81304D01*
X244890Y81191D01*
X244943Y81085D01*
X245012Y80988D01*
X245095Y80904D01*
X245191Y80833D01*
X245296Y80779D01*
X245408Y80741D01*
X245525Y80722D01*
X245644Y80721D01*
X245761Y80739D01*
X245874Y80777D01*
X246145Y80876D01*
X246425Y80944D01*
X246711Y80986D01*
X246998Y81000D01*
Y75000D01*
G37*
G36*
X243387Y74500D02*X237200D01*
X237075Y74493D01*
X236873Y74486D01*
X236448Y74430D01*
X236031Y74338D01*
X235623Y74209D01*
X235227Y74045D01*
X234848Y73848D01*
X234487Y73618D01*
X234147Y73357D01*
X233832Y73068D01*
X233543Y72753D01*
X233282Y72413D01*
X233052Y72052D01*
X232855Y71673D01*
X232691Y71277D01*
X232562Y70869D01*
X232470Y70452D01*
X232414Y70027D01*
X232395Y69600D01*
X232398Y69565D01*
X232396Y69504D01*
X232383Y69409D01*
X232363Y69315D01*
X232334Y69224D01*
X232297Y69135D01*
X232253Y69050D01*
X232201Y68969D01*
X232143Y68893D01*
X232078Y68822D01*
X232007Y68757D01*
X231931Y68699D01*
X231850Y68647D01*
X231765Y68603D01*
X231676Y68566D01*
X231585Y68537D01*
X231491Y68517D01*
X231396Y68504D01*
X231300Y68500D01*
X221613D01*
Y69853D01*
X221656Y69860D01*
X221768Y69897D01*
X221873Y69952D01*
X221968Y70022D01*
X222051Y70106D01*
X222119Y70202D01*
X222170Y70308D01*
X222318Y70716D01*
X222422Y71137D01*
X222484Y71567D01*
X222505Y72000D01*
X222484Y72433D01*
X222422Y72863D01*
X222318Y73284D01*
X222175Y73694D01*
X222122Y73800D01*
X222053Y73896D01*
X221970Y73981D01*
X221875Y74051D01*
X221769Y74106D01*
X221657Y74143D01*
X221613Y74151D01*
Y86852D01*
X222329Y87078D01*
X223114Y87403D01*
X223867Y87795D01*
X224583Y88251D01*
X225257Y88768D01*
X225883Y89342D01*
X226456Y89968D01*
X226973Y90641D01*
X227430Y91358D01*
X227822Y92111D01*
X228147Y92895D01*
X228402Y93705D01*
X228586Y94534D01*
X228697Y95376D01*
X228734Y96224D01*
X228724Y96355D01*
Y99796D01*
X229274Y100024D01*
X229878Y100394D01*
X230416Y100854D01*
X230876Y101392D01*
X231246Y101996D01*
X231517Y102651D01*
X231683Y103340D01*
X231724Y104046D01*
X231683Y104752D01*
X231517Y105441D01*
X231246Y106095D01*
X230876Y106699D01*
X230416Y107237D01*
X229878Y107697D01*
X229274Y108068D01*
X228619Y108339D01*
X227931Y108504D01*
X227224Y108560D01*
X226518Y108504D01*
X225830Y108339D01*
X225175Y108068D01*
X224571Y107697D01*
X224033Y107237D01*
X223573Y106699D01*
X223203Y106095D01*
X222931Y105441D01*
X222766Y104752D01*
X222711Y104046D01*
X222766Y103340D01*
X222931Y102651D01*
X223203Y101996D01*
X223573Y101392D01*
X224033Y100854D01*
X224571Y100394D01*
X225175Y100024D01*
X225724Y99796D01*
Y96333D01*
X225718Y96224D01*
X225699Y95638D01*
X225622Y95057D01*
X225495Y94484D01*
X225319Y93925D01*
X225094Y93383D01*
X224824Y92862D01*
X224508Y92367D01*
X224151Y91902D01*
X223755Y91470D01*
X223322Y91073D01*
X222857Y90716D01*
X222362Y90401D01*
X221842Y90130D01*
X221613Y90035D01*
Y103050D01*
X221683Y103340D01*
X221724Y104046D01*
X221683Y104752D01*
X221613Y105042D01*
Y109420D01*
X221952Y109635D01*
X222451Y109895D01*
X222971Y110111D01*
X223508Y110280D01*
X224058Y110402D01*
X224616Y110475D01*
X225179Y110500D01*
X225179Y110500D01*
X240868D01*
X241100Y110486D01*
X242355Y110445D01*
X243387Y110309D01*
Y80147D01*
X243344Y80140D01*
X243232Y80103D01*
X243127Y80048D01*
X243032Y79978D01*
X242949Y79894D01*
X242881Y79798D01*
X242830Y79692D01*
X242682Y79284D01*
X242578Y78863D01*
X242516Y78433D01*
X242495Y78000D01*
X242516Y77567D01*
X242578Y77137D01*
X242682Y76716D01*
X242825Y76306D01*
X242878Y76200D01*
X242947Y76104D01*
X243030Y76019D01*
X243125Y75949D01*
X243231Y75894D01*
X243343Y75857D01*
X243387Y75849D01*
Y74500D01*
G37*
G36*
X250613Y5000D02*X221613D01*
Y13500D01*
X235000D01*
X235001Y13500D01*
X237922Y13596D01*
X240823Y13978D01*
X243679Y14611D01*
X246469Y15490D01*
X249171Y16610D01*
X250613Y17360D01*
Y5000D01*
G37*
G36*
X221613Y146000D02*X250613D01*
Y136109D01*
X221613Y136105D01*
Y146000D01*
G37*
G36*
Y112802D02*X221179Y112622D01*
X220447Y112241D01*
X219751Y111798D01*
X219096Y111295D01*
X218487Y110737D01*
X217929Y110129D01*
X217427Y109474D01*
X216983Y108777D01*
X216855Y108530D01*
X216518Y108504D01*
X215830Y108339D01*
X215175Y108068D01*
X214571Y107697D01*
X214033Y107237D01*
X213573Y106699D01*
X213203Y106095D01*
X212975Y105546D01*
X201197D01*
Y123542D01*
X221613Y123545D01*
Y112802D01*
G37*
G36*
Y105042D02*X221517Y105441D01*
X221246Y106095D01*
X220876Y106699D01*
X220416Y107237D01*
X219878Y107697D01*
X219865Y107705D01*
X219892Y107748D01*
X220234Y108194D01*
X220615Y108610D01*
X221030Y108990D01*
X221477Y109333D01*
X221613Y109420D01*
Y105042D01*
G37*
G36*
Y90035D02*X221300Y89906D01*
X220740Y89729D01*
X220168Y89602D01*
X219586Y89526D01*
X219000Y89500D01*
X201197D01*
Y102546D01*
X212975D01*
X213203Y101996D01*
X213573Y101392D01*
X214033Y100854D01*
X214571Y100394D01*
X215175Y100024D01*
X215830Y99753D01*
X216518Y99587D01*
X217224Y99532D01*
X217931Y99587D01*
X218619Y99753D01*
X219274Y100024D01*
X219878Y100394D01*
X220416Y100854D01*
X220876Y101392D01*
X221246Y101996D01*
X221517Y102651D01*
X221613Y103050D01*
Y90035D01*
G37*
G36*
Y68500D02*X220163D01*
X220164Y68579D01*
X220146Y68696D01*
X220110Y68809D01*
X220057Y68915D01*
X219988Y69012D01*
X219905Y69096D01*
X219809Y69167D01*
X219704Y69221D01*
X219592Y69259D01*
X219475Y69278D01*
X219356Y69279D01*
X219239Y69261D01*
X219126Y69223D01*
X218855Y69124D01*
X218575Y69056D01*
X218289Y69014D01*
X218000Y69000D01*
X217998Y69000D01*
Y75000D01*
X218000Y75000D01*
X218289Y74986D01*
X218575Y74944D01*
X218855Y74876D01*
X219128Y74780D01*
X219239Y74742D01*
X219356Y74725D01*
X219474Y74725D01*
X219591Y74745D01*
X219703Y74782D01*
X219807Y74836D01*
X219902Y74906D01*
X219985Y74991D01*
X220054Y75087D01*
X220107Y75192D01*
X220143Y75305D01*
X220160Y75421D01*
X220159Y75539D01*
X220140Y75656D01*
X220103Y75768D01*
X220048Y75873D01*
X219978Y75968D01*
X219894Y76051D01*
X219798Y76119D01*
X219692Y76170D01*
X219284Y76318D01*
X218863Y76422D01*
X218433Y76484D01*
X218000Y76505D01*
X217998Y76505D01*
Y86500D01*
X219000D01*
X219000Y86500D01*
X219848Y86528D01*
X220690Y86639D01*
X221519Y86822D01*
X221613Y86852D01*
Y74151D01*
X221540Y74163D01*
X221421Y74164D01*
X221304Y74146D01*
X221191Y74110D01*
X221085Y74057D01*
X220988Y73988D01*
X220904Y73905D01*
X220833Y73809D01*
X220779Y73704D01*
X220741Y73592D01*
X220722Y73475D01*
X220721Y73356D01*
X220739Y73239D01*
X220777Y73126D01*
X220876Y72855D01*
X220944Y72575D01*
X220986Y72289D01*
X221000Y72000D01*
X220986Y71711D01*
X220944Y71425D01*
X220876Y71145D01*
X220780Y70872D01*
X220742Y70761D01*
X220725Y70644D01*
X220725Y70526D01*
X220745Y70409D01*
X220782Y70297D01*
X220836Y70193D01*
X220906Y70098D01*
X220991Y70015D01*
X221087Y69946D01*
X221192Y69893D01*
X221305Y69857D01*
X221421Y69840D01*
X221539Y69841D01*
X221613Y69853D01*
Y68500D01*
G37*
G36*
X217998Y69000D02*X217711Y69014D01*
X217425Y69056D01*
X217145Y69124D01*
X216872Y69220D01*
X216761Y69258D01*
X216644Y69275D01*
X216526Y69275D01*
X216409Y69255D01*
X216297Y69218D01*
X216193Y69164D01*
X216098Y69094D01*
X216015Y69009D01*
X215946Y68913D01*
X215893Y68808D01*
X215857Y68695D01*
X215840Y68579D01*
X215840Y68500D01*
X214387D01*
Y69849D01*
X214460Y69837D01*
X214579Y69836D01*
X214696Y69854D01*
X214809Y69890D01*
X214915Y69943D01*
X215012Y70012D01*
X215096Y70095D01*
X215167Y70191D01*
X215221Y70296D01*
X215259Y70408D01*
X215278Y70525D01*
X215279Y70644D01*
X215261Y70761D01*
X215223Y70874D01*
X215124Y71145D01*
X215056Y71425D01*
X215014Y71711D01*
X215000Y72000D01*
X215014Y72289D01*
X215056Y72575D01*
X215124Y72855D01*
X215220Y73128D01*
X215258Y73239D01*
X215275Y73356D01*
X215275Y73474D01*
X215255Y73591D01*
X215218Y73703D01*
X215164Y73807D01*
X215094Y73902D01*
X215009Y73985D01*
X214913Y74054D01*
X214808Y74107D01*
X214695Y74143D01*
X214579Y74160D01*
X214461Y74159D01*
X214387Y74147D01*
Y86500D01*
X217998D01*
Y76505D01*
X217567Y76484D01*
X217137Y76422D01*
X216716Y76318D01*
X216306Y76175D01*
X216200Y76122D01*
X216104Y76053D01*
X216019Y75970D01*
X215949Y75875D01*
X215894Y75769D01*
X215857Y75657D01*
X215837Y75540D01*
X215836Y75421D01*
X215854Y75304D01*
X215890Y75191D01*
X215943Y75085D01*
X216012Y74988D01*
X216095Y74904D01*
X216191Y74833D01*
X216296Y74779D01*
X216408Y74741D01*
X216525Y74722D01*
X216644Y74721D01*
X216761Y74739D01*
X216874Y74777D01*
X217145Y74876D01*
X217425Y74944D01*
X217711Y74986D01*
X217998Y75000D01*
Y69000D01*
G37*
G36*
X214387Y68500D02*X206822D01*
Y74604D01*
X206914Y74622D01*
X207025Y74663D01*
X207128Y74720D01*
X207221Y74793D01*
X207301Y74879D01*
X207367Y74977D01*
X207415Y75085D01*
X207535Y75445D01*
X207619Y75815D01*
X207670Y76191D01*
X207687Y76570D01*
X207670Y76949D01*
X207619Y77325D01*
X207535Y77695D01*
X207419Y78056D01*
X207370Y78163D01*
X207304Y78262D01*
X207223Y78348D01*
X207130Y78421D01*
X207026Y78479D01*
X206915Y78520D01*
X206822Y78538D01*
Y86500D01*
X214387D01*
Y74147D01*
X214344Y74140D01*
X214232Y74103D01*
X214127Y74048D01*
X214032Y73978D01*
X213949Y73894D01*
X213881Y73798D01*
X213830Y73692D01*
X213682Y73284D01*
X213578Y72863D01*
X213516Y72433D01*
X213495Y72000D01*
X213516Y71567D01*
X213578Y71137D01*
X213682Y70716D01*
X213825Y70306D01*
X213878Y70200D01*
X213947Y70104D01*
X214030Y70019D01*
X214125Y69949D01*
X214231Y69894D01*
X214343Y69857D01*
X214387Y69849D01*
Y68500D01*
G37*
G36*
X206822D02*X203434D01*
Y72316D01*
X203812Y72332D01*
X204188Y72383D01*
X204558Y72467D01*
X204919Y72583D01*
X205026Y72633D01*
X205125Y72699D01*
X205211Y72780D01*
X205284Y72873D01*
X205342Y72976D01*
X205383Y73088D01*
X205405Y73204D01*
X205410Y73322D01*
X205395Y73440D01*
X205363Y73554D01*
X205313Y73661D01*
X205247Y73760D01*
X205166Y73846D01*
X205073Y73919D01*
X204969Y73977D01*
X204858Y74018D01*
X204741Y74040D01*
X204623Y74045D01*
X204505Y74030D01*
X204392Y73995D01*
X204160Y73918D01*
X203921Y73863D01*
X203678Y73831D01*
X203434Y73820D01*
Y79320D01*
X203678Y79309D01*
X203921Y79276D01*
X204160Y79222D01*
X204393Y79146D01*
X204506Y79112D01*
X204623Y79098D01*
X204741Y79102D01*
X204857Y79124D01*
X204968Y79165D01*
X205071Y79222D01*
X205164Y79295D01*
X205244Y79381D01*
X205310Y79479D01*
X205360Y79586D01*
X205393Y79700D01*
X205407Y79817D01*
X205403Y79935D01*
X205380Y80051D01*
X205340Y80162D01*
X205282Y80265D01*
X205209Y80358D01*
X205123Y80438D01*
X205025Y80504D01*
X204917Y80552D01*
X204558Y80672D01*
X204188Y80756D01*
X203812Y80807D01*
X203434Y80824D01*
Y86500D01*
X206822D01*
Y78538D01*
X206798Y78542D01*
X206680Y78547D01*
X206562Y78532D01*
X206448Y78500D01*
X206341Y78450D01*
X206243Y78384D01*
X206156Y78303D01*
X206083Y78210D01*
X206025Y78106D01*
X205985Y77995D01*
X205962Y77878D01*
X205958Y77760D01*
X205972Y77642D01*
X206007Y77529D01*
X206085Y77297D01*
X206139Y77058D01*
X206172Y76815D01*
X206183Y76570D01*
X206172Y76325D01*
X206139Y76082D01*
X206085Y75842D01*
X206009Y75609D01*
X205975Y75496D01*
X205961Y75379D01*
X205965Y75261D01*
X205987Y75145D01*
X206028Y75034D01*
X206085Y74931D01*
X206158Y74838D01*
X206244Y74758D01*
X206342Y74692D01*
X206449Y74642D01*
X206563Y74610D01*
X206680Y74596D01*
X206798Y74600D01*
X206822Y74604D01*
Y68500D01*
G37*
G36*
X203434D02*X201197D01*
Y86500D01*
X203434D01*
Y80824D01*
X203433Y80824D01*
X203054Y80807D01*
X202678Y80756D01*
X202308Y80672D01*
X201947Y80556D01*
X201839Y80507D01*
X201741Y80441D01*
X201654Y80360D01*
X201581Y80267D01*
X201523Y80163D01*
X201483Y80052D01*
X201460Y79935D01*
X201456Y79817D01*
X201470Y79699D01*
X201503Y79585D01*
X201553Y79478D01*
X201619Y79380D01*
X201699Y79293D01*
X201793Y79220D01*
X201896Y79162D01*
X202008Y79122D01*
X202124Y79099D01*
X202242Y79095D01*
X202360Y79109D01*
X202473Y79144D01*
X202705Y79222D01*
X202945Y79276D01*
X203188Y79309D01*
X203433Y79320D01*
X203434Y79320D01*
Y73820D01*
X203433Y73820D01*
X203188Y73831D01*
X202945Y73863D01*
X202705Y73918D01*
X202472Y73993D01*
X202359Y74028D01*
X202242Y74042D01*
X202124Y74038D01*
X202008Y74015D01*
X201897Y73974D01*
X201794Y73917D01*
X201701Y73844D01*
X201621Y73758D01*
X201555Y73660D01*
X201505Y73553D01*
X201473Y73439D01*
X201458Y73322D01*
X201463Y73204D01*
X201485Y73088D01*
X201526Y72978D01*
X201583Y72874D01*
X201656Y72781D01*
X201742Y72701D01*
X201840Y72635D01*
X201948Y72587D01*
X202308Y72467D01*
X202678Y72383D01*
X203054Y72332D01*
X203433Y72315D01*
X203434Y72316D01*
Y68500D01*
G37*
G36*
X221613Y5000D02*X201197D01*
Y13500D01*
X221613D01*
Y5000D01*
G37*
G36*
X201197Y146000D02*X221613D01*
Y136105D01*
X201197Y136103D01*
Y146000D01*
G37*
G36*
X161703Y50031D02*X161978Y49710D01*
X162517Y49250D01*
X162920Y49003D01*
Y44678D01*
X162866Y44454D01*
X162845Y44100D01*
X162832Y43677D01*
X162776Y43258D01*
X162685Y42845D01*
X162558Y42441D01*
X162396Y42050D01*
X162200Y41675D01*
X161973Y41318D01*
X161715Y40982D01*
X161703Y40970D01*
Y50031D01*
G37*
G36*
Y62844D02*X162141Y63180D01*
X163085Y63781D01*
X164078Y64298D01*
X165112Y64726D01*
X166179Y65063D01*
X167272Y65305D01*
X168382Y65451D01*
X169500Y65500D01*
X169500Y65500D01*
X201197D01*
Y60184D01*
X200927Y60019D01*
X200418Y59584D01*
X199984Y59075D01*
X199634Y58505D01*
X199378Y57887D01*
X199222Y57237D01*
X199170Y56570D01*
X199222Y55903D01*
X199378Y55252D01*
X199634Y54634D01*
X199984Y54064D01*
X200418Y53555D01*
X200422Y53552D01*
X200323Y53360D01*
X200022Y52888D01*
X199681Y52443D01*
X199302Y52030D01*
X198889Y51652D01*
X198445Y51311D01*
X197973Y51010D01*
X197476Y50751D01*
X197301Y50679D01*
X197014Y51014D01*
X196506Y51449D01*
X195935Y51798D01*
X195317Y52054D01*
X194667Y52211D01*
X194000Y52263D01*
X193333Y52211D01*
X192683Y52054D01*
X192065Y51798D01*
X191494Y51449D01*
X190986Y51014D01*
X190551Y50506D01*
X190394Y50250D01*
X180114D01*
X180072Y50253D01*
X179841Y50260D01*
X179611Y50290D01*
X179385Y50340D01*
X179165Y50410D01*
X178970Y50491D01*
X179192Y50852D01*
X179463Y51507D01*
X179628Y52195D01*
X179670Y52902D01*
X179628Y53608D01*
X179463Y54296D01*
X179192Y54951D01*
X178822Y55555D01*
X178362Y56093D01*
X177823Y56553D01*
X177219Y56923D01*
X176565Y57195D01*
X175876Y57360D01*
X175170Y57415D01*
X174464Y57360D01*
X173775Y57195D01*
X173121Y56923D01*
X172517Y56553D01*
X171978Y56093D01*
X171518Y55555D01*
X171148Y54951D01*
X170877Y54296D01*
X170712Y53608D01*
X170656Y52902D01*
X170712Y52195D01*
X170877Y51507D01*
X171148Y50852D01*
X171518Y50248D01*
X171978Y49710D01*
X172517Y49250D01*
X172920Y49003D01*
Y22170D01*
X172936Y21905D01*
X172931Y21769D01*
X172875Y21340D01*
X172781Y20919D01*
X172651Y20507D01*
X172486Y20108D01*
X172287Y19725D01*
X172055Y19361D01*
X171792Y19018D01*
X171500Y18700D01*
X171182Y18408D01*
X170839Y18145D01*
X170475Y17913D01*
X170092Y17714D01*
X169693Y17549D01*
X169281Y17419D01*
X168860Y17325D01*
X168431Y17269D01*
X168000Y17250D01*
X168000Y17250D01*
X161703D01*
Y19936D01*
X161798Y20091D01*
X162054Y20709D01*
X162211Y21360D01*
X162250Y22027D01*
X162211Y22694D01*
X162054Y23344D01*
X161798Y23962D01*
X161703Y24117D01*
Y34910D01*
X161798Y35065D01*
X162048Y35666D01*
X162679Y35995D01*
X163368Y36434D01*
X164016Y36931D01*
X164618Y37482D01*
X165169Y38084D01*
X165666Y38732D01*
X166105Y39421D01*
X166482Y40145D01*
X166794Y40899D01*
X167040Y41678D01*
X167217Y42475D01*
X167323Y43284D01*
X167335Y43549D01*
X167399Y43817D01*
X167420Y44170D01*
Y49003D01*
X167823Y49250D01*
X168362Y49710D01*
X168822Y50248D01*
X169192Y50852D01*
X169463Y51507D01*
X169628Y52195D01*
X169670Y52902D01*
X169628Y53608D01*
X169463Y54296D01*
X169192Y54951D01*
X168822Y55555D01*
X168362Y56093D01*
X167823Y56553D01*
X167219Y56923D01*
X166565Y57195D01*
X165876Y57360D01*
X165170Y57415D01*
X164464Y57360D01*
X163775Y57195D01*
X163121Y56923D01*
X162517Y56553D01*
X161978Y56093D01*
X161703Y55772D01*
Y62844D01*
G37*
G36*
X200043Y102546D02*X201197D01*
Y89500D01*
X200043D01*
Y102546D01*
G37*
G36*
X201197Y68500D02*X200043D01*
Y74602D01*
X200067Y74597D01*
X200185Y74593D01*
X200303Y74607D01*
X200417Y74640D01*
X200524Y74690D01*
X200623Y74756D01*
X200709Y74836D01*
X200782Y74930D01*
X200840Y75033D01*
X200881Y75145D01*
X200903Y75261D01*
X200908Y75379D01*
X200893Y75497D01*
X200858Y75610D01*
X200781Y75842D01*
X200726Y76082D01*
X200694Y76325D01*
X200683Y76570D01*
X200694Y76815D01*
X200726Y77058D01*
X200781Y77297D01*
X200856Y77530D01*
X200890Y77643D01*
X200905Y77760D01*
X200901Y77878D01*
X200878Y77994D01*
X200837Y78105D01*
X200780Y78208D01*
X200707Y78301D01*
X200621Y78381D01*
X200523Y78447D01*
X200416Y78497D01*
X200302Y78530D01*
X200185Y78544D01*
X200067Y78540D01*
X200043Y78535D01*
Y86500D01*
X201197D01*
Y68500D01*
G37*
G36*
X200043D02*X169369D01*
X169205Y68490D01*
X168119Y68455D01*
X166749Y68274D01*
X165399Y67975D01*
X164081Y67559D01*
X162804Y67031D01*
X161703Y66458D01*
Y80031D01*
X161978Y79710D01*
X162517Y79250D01*
X163121Y78880D01*
X163775Y78609D01*
X164464Y78443D01*
X165170Y78388D01*
X165876Y78443D01*
X166565Y78609D01*
X167219Y78880D01*
X167823Y79250D01*
X168362Y79710D01*
X168822Y80248D01*
X169192Y80852D01*
X169463Y81507D01*
X169628Y82195D01*
X169670Y82902D01*
X169628Y83608D01*
X169463Y84296D01*
X169192Y84951D01*
X168822Y85555D01*
X168362Y86093D01*
X167823Y86553D01*
X167219Y86923D01*
X166565Y87195D01*
X165876Y87360D01*
X165170Y87415D01*
X164464Y87360D01*
X163775Y87195D01*
X163121Y86923D01*
X162517Y86553D01*
X161978Y86093D01*
X161703Y85772D01*
Y93131D01*
X161893Y93988D01*
X162196Y94949D01*
X162582Y95879D01*
X163047Y96773D01*
X163588Y97622D01*
X164201Y98421D01*
X164882Y99164D01*
X165624Y99844D01*
X166423Y100458D01*
X167273Y100999D01*
X168166Y101464D01*
X169097Y101849D01*
X170057Y102152D01*
X171041Y102370D01*
X172039Y102502D01*
X173046Y102546D01*
X200043D01*
Y89500D01*
X197979D01*
X197798Y89935D01*
X197449Y90506D01*
X197014Y91014D01*
X196506Y91449D01*
X195935Y91798D01*
X195317Y92054D01*
X194667Y92211D01*
X194000Y92263D01*
X193333Y92211D01*
X192683Y92054D01*
X192065Y91798D01*
X191494Y91449D01*
X190986Y91014D01*
X190551Y90506D01*
X190202Y89935D01*
X190021Y89500D01*
X180269D01*
X180269Y89500D01*
X180269Y89500D01*
X179693Y89481D01*
X179122Y89406D01*
X178559Y89281D01*
X178010Y89108D01*
X177477Y88887D01*
X176966Y88621D01*
X176480Y88312D01*
X176023Y87961D01*
X175598Y87572D01*
X175437Y87395D01*
X171935Y87388D01*
X171705Y87333D01*
X171487Y87242D01*
X171286Y87119D01*
X171106Y86966D01*
X170953Y86786D01*
X170829Y86585D01*
X170739Y86367D01*
X170684Y86137D01*
X170670Y85902D01*
X170684Y79666D01*
X170739Y79437D01*
X170829Y79218D01*
X170953Y79017D01*
X171106Y78838D01*
X171286Y78684D01*
X171487Y78561D01*
X171705Y78471D01*
X171935Y78415D01*
X172170Y78402D01*
X178405Y78415D01*
X178635Y78471D01*
X178853Y78561D01*
X179054Y78684D01*
X179234Y78838D01*
X179387Y79017D01*
X179511Y79218D01*
X179601Y79437D01*
X179656Y79666D01*
X179670Y79902D01*
X179656Y86137D01*
X179601Y86367D01*
X179575Y86430D01*
X179644Y86445D01*
X179955Y86486D01*
X180269Y86500D01*
X180269Y86500D01*
X180269Y86500D01*
X190021D01*
X190202Y86065D01*
X190551Y85494D01*
X190986Y84986D01*
X191494Y84551D01*
X192065Y84202D01*
X192683Y83946D01*
X193333Y83789D01*
X194000Y83737D01*
X194667Y83789D01*
X195317Y83946D01*
X195935Y84202D01*
X196506Y84551D01*
X197014Y84986D01*
X197449Y85494D01*
X197798Y86065D01*
X197979Y86500D01*
X200043D01*
Y78535D01*
X199951Y78517D01*
X199840Y78477D01*
X199737Y78419D01*
X199644Y78346D01*
X199564Y78260D01*
X199498Y78162D01*
X199450Y78054D01*
X199330Y77695D01*
X199246Y77325D01*
X199195Y76949D01*
X199178Y76570D01*
X199195Y76191D01*
X199246Y75815D01*
X199330Y75445D01*
X199446Y75084D01*
X199496Y74976D01*
X199562Y74878D01*
X199642Y74791D01*
X199736Y74718D01*
X199839Y74660D01*
X199951Y74620D01*
X200043Y74602D01*
Y68500D01*
G37*
G36*
X161703Y85772D02*X161518Y85555D01*
X161500Y85525D01*
Y90814D01*
X161511Y91000D01*
X161544Y92006D01*
X161675Y93005D01*
X161703Y93131D01*
Y85772D01*
G37*
G36*
Y17250D02*X150390D01*
Y20313D01*
X150481Y20331D01*
X150592Y20372D01*
X150695Y20429D01*
X150788Y20502D01*
X150869Y20588D01*
X150935Y20686D01*
X150982Y20794D01*
X151103Y21153D01*
X151187Y21523D01*
X151237Y21899D01*
X151254Y22278D01*
X151237Y22657D01*
X151187Y23033D01*
X151103Y23403D01*
X150986Y23764D01*
X150937Y23872D01*
X150871Y23970D01*
X150790Y24057D01*
X150697Y24130D01*
X150593Y24188D01*
X150482Y24228D01*
X150390Y24246D01*
Y27253D01*
X150395Y27253D01*
X150527Y27245D01*
X150982Y27230D01*
X151434Y27171D01*
X151879Y27072D01*
X152313Y26935D01*
X152734Y26761D01*
X153138Y26550D01*
X153523Y26305D01*
X153884Y26028D01*
X154220Y25720D01*
X154528Y25384D01*
X154805Y25023D01*
X154876Y24913D01*
X154551Y24533D01*
X154202Y23962D01*
X153946Y23344D01*
X153789Y22694D01*
X153737Y22027D01*
X153789Y21360D01*
X153946Y20709D01*
X154202Y20091D01*
X154551Y19521D01*
X154986Y19012D01*
X155494Y18578D01*
X156065Y18228D01*
X156683Y17972D01*
X157333Y17816D01*
X158000Y17764D01*
X158667Y17816D01*
X159317Y17972D01*
X159935Y18228D01*
X160506Y18578D01*
X161014Y19012D01*
X161449Y19521D01*
X161703Y19936D01*
Y17250D01*
G37*
G36*
X150390D02*X147533D01*
Y18062D01*
X147755Y18092D01*
X148125Y18176D01*
X148486Y18292D01*
X148594Y18341D01*
X148692Y18407D01*
X148779Y18488D01*
X148852Y18581D01*
X148909Y18685D01*
X148950Y18796D01*
X148973Y18913D01*
X148977Y19031D01*
X148963Y19149D01*
X148930Y19263D01*
X148880Y19370D01*
X148814Y19468D01*
X148733Y19555D01*
X148640Y19628D01*
X148536Y19686D01*
X148425Y19726D01*
X148309Y19749D01*
X148190Y19753D01*
X148073Y19739D01*
X147960Y19704D01*
X147727Y19626D01*
X147533Y19582D01*
Y24975D01*
X147727Y24930D01*
X147961Y24855D01*
X148073Y24821D01*
X148190Y24806D01*
X148308Y24810D01*
X148424Y24833D01*
X148535Y24874D01*
X148638Y24931D01*
X148731Y25004D01*
X148812Y25090D01*
X148878Y25188D01*
X148927Y25295D01*
X148960Y25409D01*
X148974Y25526D01*
X148970Y25644D01*
X148947Y25760D01*
X148907Y25871D01*
X148849Y25974D01*
X148777Y26067D01*
X148690Y26147D01*
X148592Y26213D01*
X148485Y26261D01*
X148125Y26381D01*
X147755Y26465D01*
X147533Y26495D01*
Y27899D01*
X147999Y27706D01*
X148638Y27505D01*
X149292Y27359D01*
X149957Y27272D01*
X150390Y27253D01*
Y24246D01*
X150366Y24251D01*
X150247Y24255D01*
X150130Y24241D01*
X150016Y24208D01*
X149908Y24158D01*
X149810Y24092D01*
X149723Y24012D01*
X149650Y23918D01*
X149593Y23815D01*
X149552Y23703D01*
X149529Y23587D01*
X149525Y23469D01*
X149539Y23351D01*
X149574Y23238D01*
X149652Y23006D01*
X149706Y22766D01*
X149739Y22523D01*
X149750Y22278D01*
X149739Y22033D01*
X149706Y21790D01*
X149652Y21551D01*
X149577Y21318D01*
X149542Y21205D01*
X149528Y21088D01*
X149532Y20970D01*
X149555Y20854D01*
X149595Y20743D01*
X149653Y20640D01*
X149725Y20547D01*
X149812Y20467D01*
X149910Y20401D01*
X150017Y20351D01*
X150130Y20318D01*
X150247Y20304D01*
X150365Y20308D01*
X150390Y20313D01*
Y17250D01*
G37*
G36*
X161703Y66458D02*X161577Y66392D01*
X160412Y65650D01*
X159315Y64808D01*
X158296Y63874D01*
X157362Y62855D01*
X156520Y61758D01*
X155778Y60593D01*
X155139Y59366D01*
X154611Y58089D01*
X154374Y57338D01*
X153775Y57195D01*
X153121Y56923D01*
X152517Y56553D01*
X151978Y56093D01*
X151518Y55555D01*
X151148Y54951D01*
X150877Y54296D01*
X150712Y53608D01*
X150656Y52902D01*
X150712Y52195D01*
X150877Y51507D01*
X151148Y50852D01*
X151518Y50248D01*
X151978Y49710D01*
X152517Y49250D01*
X153121Y48880D01*
X153775Y48609D01*
X154464Y48443D01*
X155170Y48388D01*
X155876Y48443D01*
X156565Y48609D01*
X157219Y48880D01*
X157823Y49250D01*
X158362Y49710D01*
X158822Y50248D01*
X159192Y50852D01*
X159463Y51507D01*
X159628Y52195D01*
X159670Y52902D01*
X159628Y53608D01*
X159463Y54296D01*
X159192Y54951D01*
X158822Y55555D01*
X158362Y56093D01*
X157823Y56553D01*
X157372Y56830D01*
X157444Y57058D01*
X157872Y58092D01*
X158389Y59085D01*
X158990Y60029D01*
X159672Y60917D01*
X160428Y61742D01*
X161253Y62498D01*
X161703Y62844D01*
Y55772D01*
X161518Y55555D01*
X161148Y54951D01*
X160877Y54296D01*
X160712Y53608D01*
X160656Y52902D01*
X160712Y52195D01*
X160877Y51507D01*
X161148Y50852D01*
X161518Y50248D01*
X161703Y50031D01*
Y40970D01*
X161429Y40671D01*
X161118Y40385D01*
X160835Y40168D01*
X160506Y40449D01*
X159935Y40798D01*
X159317Y41054D01*
X158667Y41211D01*
X158000Y41263D01*
X157333Y41211D01*
X156683Y41054D01*
X156065Y40798D01*
X155494Y40449D01*
X154986Y40014D01*
X154551Y39506D01*
X154202Y38935D01*
X153946Y38317D01*
X153789Y37667D01*
X153737Y37000D01*
X153789Y36333D01*
X153946Y35683D01*
X154202Y35065D01*
X154551Y34494D01*
X154986Y33986D01*
X155494Y33551D01*
X156065Y33202D01*
X156683Y32946D01*
X157333Y32789D01*
X158000Y32737D01*
X158667Y32789D01*
X159317Y32946D01*
X159935Y33202D01*
X160506Y33551D01*
X161014Y33986D01*
X161449Y34494D01*
X161703Y34910D01*
Y24117D01*
X161449Y24533D01*
X161014Y25041D01*
X160506Y25476D01*
X159935Y25825D01*
X159383Y26054D01*
X159347Y26140D01*
X158955Y26893D01*
X158499Y27609D01*
X157982Y28283D01*
X157409Y28909D01*
X156783Y29482D01*
X156109Y29999D01*
X155393Y30455D01*
X154640Y30847D01*
X153855Y31172D01*
X153046Y31428D01*
X152217Y31611D01*
X151375Y31722D01*
X150527Y31759D01*
X150498Y31757D01*
X150350Y31762D01*
X150075Y31798D01*
X149805Y31858D01*
X149540Y31942D01*
X149284Y32048D01*
X149038Y32176D01*
X148805Y32325D01*
X148585Y32493D01*
X148380Y32680D01*
X148193Y32885D01*
X148025Y33105D01*
X147876Y33338D01*
X147748Y33584D01*
X147642Y33840D01*
X147558Y34105D01*
X147533Y34220D01*
Y49072D01*
X147823Y49250D01*
X148362Y49710D01*
X148822Y50248D01*
X149192Y50852D01*
X149463Y51507D01*
X149628Y52195D01*
X149670Y52902D01*
X149628Y53608D01*
X149463Y54296D01*
X149192Y54951D01*
X148822Y55555D01*
X148362Y56093D01*
X147823Y56553D01*
X147533Y56731D01*
Y66500D01*
X150000D01*
X150125Y66507D01*
X150912Y66533D01*
X151916Y66665D01*
X152905Y66885D01*
X153871Y67189D01*
X154807Y67577D01*
X155706Y68045D01*
X156560Y68589D01*
X157363Y69205D01*
X158110Y69890D01*
X158795Y70637D01*
X159411Y71440D01*
X159955Y72294D01*
X160423Y73193D01*
X160811Y74129D01*
X161115Y75095D01*
X161335Y76084D01*
X161467Y77088D01*
X161511Y78100D01*
X161500Y78255D01*
Y80278D01*
X161518Y80248D01*
X161703Y80031D01*
Y66458D01*
G37*
G36*
X201197Y24827D02*X201014Y25041D01*
X200506Y25476D01*
X199935Y25825D01*
X199317Y26081D01*
X198667Y26237D01*
X198000Y26290D01*
X197333Y26237D01*
X196683Y26081D01*
X196065Y25825D01*
X195494Y25476D01*
X194986Y25041D01*
X194551Y24533D01*
X194202Y23962D01*
X193946Y23344D01*
X193789Y22694D01*
X193737Y22027D01*
X193789Y21360D01*
X193946Y20709D01*
X194202Y20091D01*
X194551Y19521D01*
X194986Y19012D01*
X195494Y18578D01*
X196065Y18228D01*
X196683Y17972D01*
X197333Y17816D01*
X198000Y17764D01*
X198667Y17816D01*
X199317Y17972D01*
X199935Y18228D01*
X200506Y18578D01*
X201014Y19012D01*
X201197Y19226D01*
Y16500D01*
X191105D01*
X191000Y16506D01*
X190433Y16525D01*
X189871Y16599D01*
X189318Y16721D01*
X188777Y16892D01*
X188253Y17109D01*
X187750Y17371D01*
X187272Y17676D01*
X186822Y18021D01*
X186404Y18404D01*
X186021Y18822D01*
X185676Y19272D01*
X185371Y19750D01*
X185109Y20253D01*
X184892Y20777D01*
X184721Y21318D01*
X184599Y21871D01*
X184525Y22433D01*
X184500Y23000D01*
Y28895D01*
X184506Y29000D01*
X184525Y29567D01*
X184599Y30129D01*
X184721Y30682D01*
X184892Y31223D01*
X185109Y31747D01*
X185371Y32250D01*
X185676Y32728D01*
X186021Y33178D01*
X186404Y33596D01*
X186822Y33979D01*
X187272Y34324D01*
X187750Y34629D01*
X188253Y34891D01*
X188777Y35108D01*
X189318Y35279D01*
X189871Y35401D01*
X190433Y35475D01*
X191000Y35500D01*
X194021D01*
X194202Y35065D01*
X194551Y34494D01*
X194986Y33986D01*
X195494Y33551D01*
X196065Y33202D01*
X196683Y32946D01*
X197333Y32789D01*
X198000Y32737D01*
X198667Y32789D01*
X199317Y32946D01*
X199935Y33202D01*
X200506Y33551D01*
X201014Y33986D01*
X201197Y34199D01*
Y24827D01*
G37*
G36*
Y5000D02*X147533D01*
Y12750D01*
X168000D01*
X168000Y12750D01*
X168824Y12777D01*
X169643Y12885D01*
X170448Y13063D01*
X171235Y13311D01*
X171998Y13627D01*
X172729Y14008D01*
X173425Y14452D01*
X174080Y14954D01*
X174689Y15511D01*
X175246Y16120D01*
X175748Y16775D01*
X176192Y17471D01*
X176573Y18202D01*
X176889Y18965D01*
X177137Y19752D01*
X177315Y20557D01*
X177423Y21376D01*
X177459Y22200D01*
X177434Y22554D01*
X177420Y22611D01*
Y42726D01*
X177432Y42775D01*
X177452Y43128D01*
X177460Y43357D01*
X177490Y43584D01*
X177539Y43807D01*
X177608Y44025D01*
X177696Y44236D01*
X177801Y44439D01*
X177924Y44632D01*
X178063Y44814D01*
X178218Y44982D01*
X178386Y45137D01*
X178568Y45276D01*
X178761Y45399D01*
X178964Y45504D01*
X179175Y45592D01*
X179393Y45661D01*
X179616Y45710D01*
X179843Y45740D01*
X179994Y45747D01*
X180072Y45743D01*
X180167Y45750D01*
X190394D01*
X190551Y45494D01*
X190986Y44986D01*
X191494Y44551D01*
X192065Y44202D01*
X192683Y43946D01*
X193333Y43789D01*
X194000Y43737D01*
X194667Y43789D01*
X195317Y43946D01*
X195935Y44202D01*
X196506Y44551D01*
X197014Y44986D01*
X197449Y45494D01*
X197606Y45750D01*
X201197D01*
Y39801D01*
X201014Y40014D01*
X200506Y40449D01*
X199935Y40798D01*
X199317Y41054D01*
X198667Y41211D01*
X198000Y41263D01*
X197333Y41211D01*
X196683Y41054D01*
X196065Y40798D01*
X195494Y40449D01*
X194986Y40014D01*
X194551Y39506D01*
X194202Y38935D01*
X194021Y38500D01*
X191000D01*
X191000Y38500D01*
X190171Y38473D01*
X189349Y38365D01*
X188539Y38185D01*
X187748Y37936D01*
X186981Y37618D01*
X186245Y37235D01*
X185546Y36789D01*
X184888Y36284D01*
X184276Y35724D01*
X183716Y35112D01*
X183211Y34454D01*
X182765Y33755D01*
X182382Y33019D01*
X182064Y32252D01*
X181815Y31461D01*
X181635Y30651D01*
X181527Y29829D01*
X181491Y29000D01*
X181500Y28873D01*
Y23000D01*
X181500Y23000D01*
X181527Y22171D01*
X181635Y21349D01*
X181815Y20539D01*
X182064Y19748D01*
X182382Y18981D01*
X182765Y18245D01*
X183211Y17546D01*
X183716Y16888D01*
X184276Y16276D01*
X184888Y15716D01*
X185546Y15211D01*
X186245Y14765D01*
X186981Y14382D01*
X187748Y14064D01*
X188539Y13815D01*
X189349Y13635D01*
X190171Y13527D01*
X191000Y13491D01*
X191127Y13500D01*
X201197D01*
Y5000D01*
G37*
G36*
X153390Y78768D02*X153775Y78609D01*
X154464Y78443D01*
X155170Y78388D01*
X155876Y78443D01*
X156565Y78609D01*
X157219Y78880D01*
X157823Y79250D01*
X158362Y79710D01*
X158500Y79872D01*
Y78239D01*
X158492Y78100D01*
X158467Y77350D01*
X158369Y76607D01*
X158207Y75874D01*
X157981Y75159D01*
X157694Y74465D01*
X157348Y73800D01*
X156945Y73167D01*
X156488Y72572D01*
X155981Y72019D01*
X155428Y71512D01*
X154833Y71055D01*
X154200Y70652D01*
X153535Y70306D01*
X153390Y70246D01*
Y78768D01*
G37*
G36*
Y146000D02*X201197D01*
Y136103D01*
X184743Y136101D01*
X184590Y136064D01*
X184445Y136004D01*
X184310Y135922D01*
X184191Y135819D01*
X184088Y135700D01*
X184006Y135565D01*
X183946Y135420D01*
X183909Y135267D01*
X183900Y135110D01*
X183909Y124383D01*
X183946Y124230D01*
X184006Y124085D01*
X184088Y123950D01*
X184191Y123831D01*
X184310Y123728D01*
X184445Y123646D01*
X184590Y123586D01*
X184743Y123549D01*
X184900Y123540D01*
X201197Y123542D01*
Y105546D01*
X173046D01*
X173045Y105546D01*
X171777Y105504D01*
X170517Y105338D01*
X169277Y105063D01*
X168066Y104681D01*
X166893Y104195D01*
X165766Y103609D01*
X164695Y102926D01*
X163687Y102153D01*
X162751Y101295D01*
X161892Y100359D01*
X161119Y99351D01*
X160437Y98280D01*
X159850Y97153D01*
X159364Y95980D01*
X158982Y94768D01*
X158707Y93528D01*
X158542Y92269D01*
X158486Y91000D01*
X158500Y90805D01*
Y85932D01*
X158362Y86093D01*
X157823Y86553D01*
X157219Y86923D01*
X156565Y87195D01*
X155876Y87360D01*
X155170Y87415D01*
X154464Y87360D01*
X153775Y87195D01*
X153390Y87035D01*
Y98721D01*
X153608Y98977D01*
X153958Y99547D01*
X154214Y100165D01*
X154370Y100816D01*
X154409Y101483D01*
X154370Y102150D01*
X154214Y102800D01*
X153958Y103418D01*
X153608Y103988D01*
X153390Y104244D01*
Y110425D01*
X153449Y110494D01*
X153798Y111065D01*
X154054Y111683D01*
X154211Y112333D01*
X154250Y113000D01*
X154211Y113667D01*
X154054Y114317D01*
X153798Y114935D01*
X153449Y115506D01*
X153390Y115575D01*
Y131035D01*
X153481Y131053D01*
X153592Y131093D01*
X153695Y131151D01*
X153788Y131223D01*
X153869Y131310D01*
X153935Y131408D01*
X153982Y131515D01*
X154103Y131875D01*
X154187Y132245D01*
X154237Y132621D01*
X154254Y133000D01*
X154237Y133379D01*
X154187Y133755D01*
X154103Y134125D01*
X153986Y134486D01*
X153937Y134594D01*
X153871Y134692D01*
X153790Y134779D01*
X153697Y134852D01*
X153593Y134909D01*
X153482Y134950D01*
X153390Y134968D01*
Y146000D01*
G37*
G36*
Y104244D02*X153174Y104497D01*
X152665Y104932D01*
X152414Y105085D01*
X152415Y105104D01*
X152409Y105183D01*
Y109492D01*
X152506Y109551D01*
X153014Y109986D01*
X153390Y110425D01*
Y104244D01*
G37*
G36*
Y87035D02*X153121Y86923D01*
X152517Y86553D01*
X151978Y86093D01*
X151518Y85555D01*
X151148Y84951D01*
X150877Y84296D01*
X150712Y83608D01*
X150656Y82902D01*
X150712Y82195D01*
X150877Y81507D01*
X151148Y80852D01*
X151518Y80248D01*
X151978Y79710D01*
X152517Y79250D01*
X153121Y78880D01*
X153390Y78768D01*
Y70246D01*
X152841Y70019D01*
X152126Y69793D01*
X151393Y69631D01*
X150650Y69533D01*
X150001Y69504D01*
Y97232D01*
X150159Y97220D01*
X150826Y97272D01*
X151476Y97428D01*
X152094Y97684D01*
X152665Y98034D01*
X153174Y98468D01*
X153390Y98721D01*
Y87035D01*
G37*
G36*
X150001Y146000D02*X153390D01*
Y134968D01*
X153366Y134973D01*
X153247Y134977D01*
X153130Y134963D01*
X153016Y134930D01*
X152908Y134880D01*
X152810Y134814D01*
X152723Y134733D01*
X152650Y134640D01*
X152593Y134536D01*
X152552Y134425D01*
X152529Y134309D01*
X152525Y134190D01*
X152539Y134073D01*
X152574Y133960D01*
X152652Y133727D01*
X152706Y133488D01*
X152739Y133245D01*
X152750Y133000D01*
X152739Y132755D01*
X152706Y132512D01*
X152652Y132273D01*
X152577Y132039D01*
X152542Y131927D01*
X152528Y131810D01*
X152532Y131692D01*
X152555Y131576D01*
X152595Y131465D01*
X152653Y131362D01*
X152725Y131269D01*
X152812Y131188D01*
X152910Y131122D01*
X153017Y131073D01*
X153130Y131040D01*
X153247Y131026D01*
X153365Y131030D01*
X153390Y131035D01*
Y115575D01*
X153014Y116014D01*
X152506Y116449D01*
X151935Y116798D01*
X151317Y117054D01*
X150667Y117211D01*
X150001Y117263D01*
Y128746D01*
X150379Y128763D01*
X150755Y128813D01*
X151125Y128897D01*
X151486Y129014D01*
X151594Y129063D01*
X151692Y129129D01*
X151779Y129210D01*
X151852Y129303D01*
X151909Y129407D01*
X151950Y129518D01*
X151973Y129634D01*
X151977Y129753D01*
X151963Y129870D01*
X151930Y129984D01*
X151880Y130092D01*
X151814Y130190D01*
X151733Y130277D01*
X151640Y130350D01*
X151536Y130407D01*
X151425Y130448D01*
X151309Y130471D01*
X151190Y130475D01*
X151073Y130461D01*
X150960Y130426D01*
X150727Y130348D01*
X150488Y130294D01*
X150245Y130261D01*
X150001Y130250D01*
Y135750D01*
X150245Y135739D01*
X150488Y135706D01*
X150727Y135652D01*
X150961Y135577D01*
X151073Y135542D01*
X151190Y135528D01*
X151308Y135532D01*
X151424Y135555D01*
X151535Y135595D01*
X151638Y135653D01*
X151731Y135725D01*
X151812Y135812D01*
X151878Y135910D01*
X151927Y136017D01*
X151960Y136130D01*
X151974Y136247D01*
X151970Y136365D01*
X151947Y136481D01*
X151907Y136592D01*
X151849Y136695D01*
X151777Y136788D01*
X151690Y136869D01*
X151592Y136935D01*
X151485Y136982D01*
X151125Y137103D01*
X150755Y137187D01*
X150379Y137237D01*
X150001Y137254D01*
Y146000D01*
G37*
G36*
Y69504D02*X149900Y69500D01*
X147533D01*
Y79072D01*
X147823Y79250D01*
X148362Y79710D01*
X148822Y80248D01*
X149192Y80852D01*
X149463Y81507D01*
X149628Y82195D01*
X149670Y82902D01*
X149628Y83608D01*
X149463Y84296D01*
X149192Y84951D01*
X148822Y85555D01*
X148362Y86093D01*
X147823Y86553D01*
X147533Y86731D01*
Y97181D01*
X147542Y97225D01*
X147613Y97450D01*
X147704Y97669D01*
X147813Y97878D01*
X147839Y97920D01*
X148224Y97684D01*
X148842Y97428D01*
X149492Y97272D01*
X150001Y97232D01*
Y69504D01*
G37*
G36*
X147533Y146000D02*X150001D01*
Y137254D01*
X150000Y137254D01*
X149621Y137237D01*
X149245Y137187D01*
X148875Y137103D01*
X148514Y136986D01*
X148406Y136937D01*
X148308Y136871D01*
X148221Y136790D01*
X148148Y136697D01*
X148091Y136593D01*
X148050Y136482D01*
X148027Y136366D01*
X148023Y136247D01*
X148037Y136130D01*
X148070Y136016D01*
X148120Y135908D01*
X148186Y135810D01*
X148267Y135723D01*
X148360Y135650D01*
X148464Y135593D01*
X148575Y135552D01*
X148691Y135529D01*
X148810Y135525D01*
X148927Y135539D01*
X149040Y135574D01*
X149273Y135652D01*
X149512Y135706D01*
X149755Y135739D01*
X150000Y135750D01*
X150001Y135750D01*
Y130250D01*
X150000Y130250D01*
X149755Y130261D01*
X149512Y130294D01*
X149273Y130348D01*
X149039Y130423D01*
X148927Y130458D01*
X148810Y130472D01*
X148692Y130468D01*
X148576Y130445D01*
X148465Y130405D01*
X148362Y130347D01*
X148269Y130275D01*
X148188Y130188D01*
X148122Y130090D01*
X148073Y129983D01*
X148040Y129870D01*
X148026Y129753D01*
X148030Y129635D01*
X148053Y129519D01*
X148093Y129408D01*
X148150Y129305D01*
X148223Y129212D01*
X148310Y129131D01*
X148408Y129065D01*
X148515Y129018D01*
X148875Y128897D01*
X149245Y128813D01*
X149621Y128763D01*
X150000Y128746D01*
X150001Y128746D01*
Y117263D01*
X150000Y117263D01*
X149333Y117211D01*
X148683Y117054D01*
X148065Y116798D01*
X147533Y116472D01*
Y146000D01*
G37*
G36*
Y34220D02*X147498Y34375D01*
X147462Y34650D01*
X147450Y34927D01*
X147429Y35280D01*
X147420Y35318D01*
Y49003D01*
X147533Y49072D01*
Y34220D01*
G37*
G36*
Y86731D02*X147450Y86782D01*
X147450Y86783D01*
X147428Y86954D01*
X147423Y87056D01*
X147426Y87126D01*
X147420Y87214D01*
Y96121D01*
X147432Y96170D01*
X147453Y96524D01*
X147460Y96760D01*
X147491Y96994D01*
X147533Y97181D01*
Y86731D01*
G37*
G36*
Y5000D02*X95085D01*
Y12750D01*
X147533D01*
Y5000D01*
G37*
G36*
X132703Y133501D02*X132706Y133488D01*
X132739Y133245D01*
X132750Y133000D01*
X132739Y132755D01*
X132706Y132512D01*
X132703Y132499D01*
Y133501D01*
G37*
G36*
Y97312D02*X132758Y97138D01*
X132809Y96909D01*
X132840Y96676D01*
X132850Y96442D01*
X132871Y96089D01*
X132920Y95884D01*
Y87157D01*
X132918Y87126D01*
X132913Y86954D01*
X132890Y86783D01*
X132890Y86782D01*
X132703Y86668D01*
Y97312D01*
G37*
G36*
X143610Y31806D02*X143663Y31679D01*
X143972Y31085D01*
X144332Y30519D01*
X144740Y29988D01*
X145193Y29493D01*
X145688Y29040D01*
X146219Y28632D01*
X146785Y28272D01*
X147379Y27963D01*
X147533Y27899D01*
Y26495D01*
X147379Y26516D01*
X147000Y26533D01*
X146621Y26516D01*
X146245Y26465D01*
X145875Y26381D01*
X145514Y26265D01*
X145406Y26215D01*
X145308Y26149D01*
X145221Y26069D01*
X145148Y25975D01*
X145091Y25872D01*
X145050Y25760D01*
X145027Y25644D01*
X145023Y25526D01*
X145037Y25408D01*
X145070Y25294D01*
X145120Y25187D01*
X145186Y25088D01*
X145267Y25002D01*
X145360Y24929D01*
X145464Y24871D01*
X145575Y24830D01*
X145691Y24808D01*
X145810Y24804D01*
X145927Y24818D01*
X146040Y24853D01*
X146273Y24930D01*
X146512Y24985D01*
X146755Y25017D01*
X147000Y25028D01*
X147245Y25017D01*
X147488Y24985D01*
X147533Y24975D01*
Y19582D01*
X147488Y19572D01*
X147245Y19539D01*
X147000Y19528D01*
X146755Y19539D01*
X146512Y19572D01*
X146273Y19626D01*
X146039Y19702D01*
X145927Y19736D01*
X145810Y19750D01*
X145692Y19746D01*
X145576Y19724D01*
X145465Y19683D01*
X145362Y19626D01*
X145269Y19553D01*
X145188Y19467D01*
X145122Y19369D01*
X145073Y19262D01*
X145040Y19148D01*
X145026Y19031D01*
X145030Y18913D01*
X145053Y18797D01*
X145093Y18686D01*
X145150Y18583D01*
X145223Y18490D01*
X145310Y18410D01*
X145408Y18344D01*
X145515Y18296D01*
X145875Y18176D01*
X146245Y18092D01*
X146621Y18041D01*
X147000Y18024D01*
X147379Y18041D01*
X147533Y18062D01*
Y17250D01*
X143610D01*
Y20310D01*
X143634Y20306D01*
X143753Y20301D01*
X143870Y20316D01*
X143984Y20348D01*
X144092Y20398D01*
X144190Y20464D01*
X144277Y20545D01*
X144350Y20638D01*
X144407Y20742D01*
X144448Y20853D01*
X144471Y20970D01*
X144475Y21088D01*
X144461Y21206D01*
X144426Y21319D01*
X144348Y21551D01*
X144294Y21790D01*
X144261Y22033D01*
X144250Y22278D01*
X144261Y22523D01*
X144294Y22766D01*
X144348Y23006D01*
X144423Y23239D01*
X144458Y23352D01*
X144472Y23469D01*
X144468Y23587D01*
X144445Y23703D01*
X144405Y23814D01*
X144347Y23917D01*
X144275Y24010D01*
X144188Y24090D01*
X144090Y24156D01*
X143983Y24206D01*
X143870Y24238D01*
X143753Y24253D01*
X143635Y24248D01*
X143610Y24244D01*
Y31806D01*
G37*
G36*
Y66500D02*X147533D01*
Y56731D01*
X147219Y56923D01*
X146565Y57195D01*
X145876Y57360D01*
X145170Y57415D01*
X144464Y57360D01*
X143775Y57195D01*
X143610Y57126D01*
Y66500D01*
G37*
G36*
X132703Y49135D02*X133121Y48880D01*
X133775Y48609D01*
X134464Y48443D01*
X135170Y48388D01*
X135876Y48443D01*
X136565Y48609D01*
X137219Y48880D01*
X137823Y49250D01*
X138362Y49710D01*
X138822Y50248D01*
X139192Y50852D01*
X139463Y51507D01*
X139628Y52195D01*
X139670Y52902D01*
X139628Y53608D01*
X139463Y54296D01*
X139192Y54951D01*
X138822Y55555D01*
X138362Y56093D01*
X137823Y56553D01*
X137219Y56923D01*
X136565Y57195D01*
X136500Y57210D01*
Y60911D01*
X136505Y61000D01*
X136521Y61479D01*
X136584Y61955D01*
X136687Y62424D01*
X136832Y62881D01*
X137015Y63324D01*
X137237Y63750D01*
X137495Y64155D01*
X137787Y64535D01*
X138111Y64889D01*
X138465Y65213D01*
X138845Y65505D01*
X139250Y65763D01*
X139676Y65985D01*
X140119Y66168D01*
X140576Y66313D01*
X141045Y66416D01*
X141521Y66479D01*
X142000Y66500D01*
X142000Y66500D01*
X143610D01*
Y57126D01*
X143121Y56923D01*
X142517Y56553D01*
X141978Y56093D01*
X141518Y55555D01*
X141148Y54951D01*
X140877Y54296D01*
X140712Y53608D01*
X140656Y52902D01*
X140712Y52195D01*
X140877Y51507D01*
X141148Y50852D01*
X141518Y50248D01*
X141978Y49710D01*
X142517Y49250D01*
X142920Y49003D01*
Y34856D01*
X142941Y34503D01*
X142968Y34392D01*
X142972Y34257D01*
X143059Y33592D01*
X143205Y32938D01*
X143406Y32299D01*
X143610Y31806D01*
Y24244D01*
X143519Y24226D01*
X143408Y24185D01*
X143305Y24128D01*
X143212Y24055D01*
X143131Y23969D01*
X143065Y23871D01*
X143018Y23763D01*
X142897Y23403D01*
X142813Y23033D01*
X142763Y22657D01*
X142746Y22278D01*
X142763Y21899D01*
X142813Y21523D01*
X142897Y21153D01*
X143014Y20792D01*
X143063Y20685D01*
X143129Y20586D01*
X143210Y20500D01*
X143303Y20427D01*
X143407Y20369D01*
X143518Y20328D01*
X143610Y20310D01*
Y17250D01*
X132703D01*
Y49135D01*
G37*
G36*
X146610Y78627D02*X147219Y78880D01*
X147533Y79072D01*
Y69500D01*
X146610D01*
Y78627D01*
G37*
G36*
Y110425D02*X146986Y109986D01*
X147494Y109551D01*
X147533Y109528D01*
Y104829D01*
X147145Y104497D01*
X146710Y103988D01*
X146610Y103826D01*
Y110425D01*
G37*
G36*
Y146000D02*X147533D01*
Y116472D01*
X147494Y116449D01*
X146986Y116014D01*
X146610Y115575D01*
Y131032D01*
X146634Y131027D01*
X146753Y131023D01*
X146870Y131037D01*
X146984Y131070D01*
X147092Y131120D01*
X147190Y131186D01*
X147277Y131267D01*
X147350Y131360D01*
X147407Y131464D01*
X147448Y131575D01*
X147471Y131691D01*
X147475Y131810D01*
X147461Y131927D01*
X147426Y132040D01*
X147348Y132273D01*
X147294Y132512D01*
X147261Y132755D01*
X147250Y133000D01*
X147261Y133245D01*
X147294Y133488D01*
X147348Y133727D01*
X147423Y133961D01*
X147458Y134073D01*
X147472Y134190D01*
X147468Y134308D01*
X147445Y134424D01*
X147405Y134535D01*
X147347Y134638D01*
X147275Y134731D01*
X147188Y134812D01*
X147090Y134878D01*
X146983Y134927D01*
X146870Y134960D01*
X146753Y134974D01*
X146635Y134970D01*
X146610Y134965D01*
Y146000D01*
G37*
G36*
X132703D02*X146610D01*
Y134965D01*
X146519Y134947D01*
X146408Y134907D01*
X146305Y134850D01*
X146212Y134777D01*
X146131Y134690D01*
X146065Y134592D01*
X146018Y134485D01*
X145897Y134125D01*
X145813Y133755D01*
X145763Y133379D01*
X145746Y133000D01*
X145763Y132621D01*
X145813Y132245D01*
X145897Y131875D01*
X146014Y131514D01*
X146063Y131406D01*
X146129Y131308D01*
X146210Y131221D01*
X146303Y131148D01*
X146407Y131091D01*
X146518Y131050D01*
X146610Y131032D01*
Y115575D01*
X146551Y115506D01*
X146202Y114935D01*
X145946Y114317D01*
X145789Y113667D01*
X145737Y113000D01*
X145789Y112333D01*
X145946Y111683D01*
X146202Y111065D01*
X146551Y110494D01*
X146610Y110425D01*
Y103826D01*
X146361Y103418D01*
X146105Y102800D01*
X146016Y102431D01*
X145521Y102051D01*
X145057Y101626D01*
X144631Y101162D01*
X144248Y100663D01*
X143910Y100132D01*
X143619Y99573D01*
X143378Y98992D01*
X143189Y98391D01*
X143053Y97777D01*
X142971Y97153D01*
X142961Y96930D01*
X142941Y96847D01*
X142920Y96494D01*
Y87157D01*
X142918Y87126D01*
X142913Y86954D01*
X142890Y86783D01*
X142890Y86782D01*
X142517Y86553D01*
X141978Y86093D01*
X141518Y85555D01*
X141148Y84951D01*
X140877Y84296D01*
X140712Y83608D01*
X140656Y82902D01*
X140712Y82195D01*
X140877Y81507D01*
X141148Y80852D01*
X141518Y80248D01*
X141978Y79710D01*
X142517Y79250D01*
X143121Y78880D01*
X143775Y78609D01*
X144464Y78443D01*
X145170Y78388D01*
X145876Y78443D01*
X146565Y78609D01*
X146610Y78627D01*
Y69500D01*
X142000D01*
X142000Y69500D01*
X141258Y69476D01*
X140523Y69379D01*
X139798Y69218D01*
X139090Y68995D01*
X138404Y68711D01*
X137746Y68368D01*
X137120Y67969D01*
X136531Y67518D01*
X135984Y67016D01*
X135482Y66469D01*
X135031Y65880D01*
X134632Y65254D01*
X134289Y64596D01*
X134005Y63910D01*
X133782Y63202D01*
X133621Y62477D01*
X133524Y61742D01*
X133492Y61000D01*
X133500Y60886D01*
Y57081D01*
X133121Y56923D01*
X132703Y56668D01*
Y79135D01*
X133121Y78880D01*
X133775Y78609D01*
X134464Y78443D01*
X135170Y78388D01*
X135876Y78443D01*
X136565Y78609D01*
X137219Y78880D01*
X137823Y79250D01*
X138362Y79710D01*
X138822Y80248D01*
X139192Y80852D01*
X139463Y81507D01*
X139628Y82195D01*
X139670Y82902D01*
X139628Y83608D01*
X139463Y84296D01*
X139192Y84951D01*
X138822Y85555D01*
X138362Y86093D01*
X137823Y86553D01*
X137450Y86782D01*
X137450Y86783D01*
X137428Y86954D01*
X137423Y87056D01*
X137426Y87126D01*
X137420Y87214D01*
Y96472D01*
X137399Y96825D01*
X137316Y97169D01*
X137316Y97170D01*
X137247Y97692D01*
X137112Y98305D01*
X136923Y98904D01*
X136682Y99484D01*
X136393Y100041D01*
X136055Y100570D01*
X135673Y101068D01*
X135249Y101531D01*
X134786Y101956D01*
X134333Y102303D01*
X134214Y102800D01*
X133958Y103418D01*
X133608Y103988D01*
X133174Y104497D01*
X132703Y104899D01*
Y109720D01*
X133014Y109986D01*
X133449Y110494D01*
X133798Y111065D01*
X134054Y111683D01*
X134211Y112333D01*
X134250Y113000D01*
X134211Y113667D01*
X134054Y114317D01*
X133798Y114935D01*
X133449Y115506D01*
X133014Y116014D01*
X132703Y116280D01*
Y131297D01*
X132725Y131269D01*
X132812Y131188D01*
X132910Y131122D01*
X133017Y131073D01*
X133130Y131040D01*
X133247Y131026D01*
X133365Y131030D01*
X133481Y131053D01*
X133592Y131093D01*
X133695Y131151D01*
X133788Y131223D01*
X133869Y131310D01*
X133935Y131408D01*
X133982Y131515D01*
X134103Y131875D01*
X134187Y132245D01*
X134237Y132621D01*
X134254Y133000D01*
X134237Y133379D01*
X134187Y133755D01*
X134103Y134125D01*
X133986Y134486D01*
X133937Y134594D01*
X133871Y134692D01*
X133790Y134779D01*
X133697Y134852D01*
X133593Y134909D01*
X133482Y134950D01*
X133366Y134973D01*
X133247Y134977D01*
X133130Y134963D01*
X133016Y134930D01*
X132908Y134880D01*
X132810Y134814D01*
X132723Y134733D01*
X132703Y134708D01*
Y146000D01*
G37*
G36*
Y104899D02*X132665Y104932D01*
X132414Y105085D01*
X132415Y105104D01*
X132409Y105183D01*
Y109492D01*
X132506Y109551D01*
X132703Y109720D01*
Y104899D01*
G37*
G36*
X115203Y130728D02*X115308Y130714D01*
X115508Y130670D01*
X115704Y130608D01*
X115893Y130530D01*
X116075Y130435D01*
X116248Y130325D01*
X116411Y130200D01*
X116562Y130062D01*
X116700Y129911D01*
X116825Y129748D01*
X116935Y129575D01*
X117030Y129393D01*
X117108Y129204D01*
X117170Y129008D01*
X117214Y128808D01*
X117241Y128605D01*
X117250Y128400D01*
X117250Y128400D01*
Y125500D01*
X117250Y125500D01*
Y121314D01*
X117149Y121767D01*
X116991Y122271D01*
X116788Y122759D01*
X116544Y123228D01*
X116261Y123673D01*
X115939Y124093D01*
X115582Y124482D01*
X115203Y124829D01*
Y130728D01*
G37*
G36*
X130001Y97232D02*X130159Y97220D01*
X130826Y97272D01*
X131476Y97428D01*
X132094Y97684D01*
X132426Y97887D01*
X132489Y97787D01*
X132598Y97579D01*
X132688Y97362D01*
X132703Y97312D01*
Y86668D01*
X132517Y86553D01*
X131978Y86093D01*
X131518Y85555D01*
X131148Y84951D01*
X130877Y84296D01*
X130712Y83608D01*
X130656Y82902D01*
X130712Y82195D01*
X130877Y81507D01*
X131148Y80852D01*
X131518Y80248D01*
X131978Y79710D01*
X132517Y79250D01*
X132703Y79135D01*
Y56668D01*
X132517Y56553D01*
X131978Y56093D01*
X131518Y55555D01*
X131148Y54951D01*
X130877Y54296D01*
X130712Y53608D01*
X130656Y52902D01*
X130712Y52195D01*
X130877Y51507D01*
X131148Y50852D01*
X131518Y50248D01*
X131978Y49710D01*
X132517Y49250D01*
X132703Y49135D01*
Y17250D01*
X130001D01*
Y97232D01*
G37*
G36*
Y146000D02*X132703D01*
Y134708D01*
X132650Y134640D01*
X132593Y134536D01*
X132552Y134425D01*
X132529Y134309D01*
X132525Y134190D01*
X132539Y134073D01*
X132574Y133960D01*
X132652Y133727D01*
X132703Y133501D01*
Y132499D01*
X132652Y132273D01*
X132577Y132039D01*
X132542Y131927D01*
X132528Y131810D01*
X132532Y131692D01*
X132555Y131576D01*
X132595Y131465D01*
X132653Y131362D01*
X132703Y131297D01*
Y116280D01*
X132506Y116449D01*
X131935Y116798D01*
X131317Y117054D01*
X130667Y117211D01*
X130001Y117263D01*
Y128746D01*
X130379Y128763D01*
X130755Y128813D01*
X131125Y128897D01*
X131486Y129014D01*
X131594Y129063D01*
X131692Y129129D01*
X131779Y129210D01*
X131852Y129303D01*
X131909Y129407D01*
X131950Y129518D01*
X131973Y129634D01*
X131977Y129753D01*
X131963Y129870D01*
X131930Y129984D01*
X131880Y130092D01*
X131814Y130190D01*
X131733Y130277D01*
X131640Y130350D01*
X131536Y130407D01*
X131425Y130448D01*
X131309Y130471D01*
X131190Y130475D01*
X131073Y130461D01*
X130960Y130426D01*
X130727Y130348D01*
X130488Y130294D01*
X130245Y130261D01*
X130001Y130250D01*
Y135750D01*
X130245Y135739D01*
X130488Y135706D01*
X130727Y135652D01*
X130961Y135577D01*
X131073Y135542D01*
X131190Y135528D01*
X131308Y135532D01*
X131424Y135555D01*
X131535Y135595D01*
X131638Y135653D01*
X131731Y135725D01*
X131812Y135812D01*
X131878Y135910D01*
X131927Y136017D01*
X131960Y136130D01*
X131974Y136247D01*
X131970Y136365D01*
X131947Y136481D01*
X131907Y136592D01*
X131849Y136695D01*
X131777Y136788D01*
X131690Y136869D01*
X131592Y136935D01*
X131485Y136982D01*
X131125Y137103D01*
X130755Y137187D01*
X130379Y137237D01*
X130001Y137254D01*
Y146000D01*
G37*
G36*
X126610Y99140D02*X126710Y98977D01*
X127145Y98468D01*
X127653Y98034D01*
X128224Y97684D01*
X128842Y97428D01*
X129492Y97272D01*
X130001Y97232D01*
Y17250D01*
X126610D01*
Y48627D01*
X127219Y48880D01*
X127823Y49250D01*
X128362Y49710D01*
X128822Y50248D01*
X129192Y50852D01*
X129463Y51507D01*
X129628Y52195D01*
X129670Y52902D01*
X129628Y53608D01*
X129463Y54296D01*
X129192Y54951D01*
X128822Y55555D01*
X128362Y56093D01*
X127823Y56553D01*
X127219Y56923D01*
X126610Y57176D01*
Y78627D01*
X127219Y78880D01*
X127823Y79250D01*
X128362Y79710D01*
X128822Y80248D01*
X129192Y80852D01*
X129463Y81507D01*
X129628Y82195D01*
X129670Y82902D01*
X129628Y83608D01*
X129463Y84296D01*
X129192Y84951D01*
X128822Y85555D01*
X128362Y86093D01*
X127823Y86553D01*
X127450Y86782D01*
X127450Y86783D01*
X127428Y86954D01*
X127423Y87056D01*
X127426Y87126D01*
X127420Y87214D01*
Y90830D01*
X127399Y91183D01*
X127347Y91401D01*
X127335Y91749D01*
X127277Y92195D01*
X127179Y92634D01*
X127044Y93063D01*
X126872Y93479D01*
X126664Y93877D01*
X126610Y93962D01*
Y99140D01*
G37*
G36*
Y110425D02*X126986Y109986D01*
X127494Y109551D01*
X127909Y109297D01*
Y105126D01*
X127908Y105104D01*
X127907Y105087D01*
X127653Y104932D01*
X127145Y104497D01*
X126710Y103988D01*
X126610Y103826D01*
Y110425D01*
G37*
G36*
Y146000D02*X130001D01*
Y137254D01*
X130000Y137254D01*
X129621Y137237D01*
X129245Y137187D01*
X128875Y137103D01*
X128514Y136986D01*
X128406Y136937D01*
X128308Y136871D01*
X128221Y136790D01*
X128148Y136697D01*
X128091Y136593D01*
X128050Y136482D01*
X128027Y136366D01*
X128023Y136247D01*
X128037Y136130D01*
X128070Y136016D01*
X128120Y135908D01*
X128186Y135810D01*
X128267Y135723D01*
X128360Y135650D01*
X128464Y135593D01*
X128575Y135552D01*
X128691Y135529D01*
X128810Y135525D01*
X128927Y135539D01*
X129040Y135574D01*
X129273Y135652D01*
X129512Y135706D01*
X129755Y135739D01*
X130000Y135750D01*
X130001Y135750D01*
Y130250D01*
X130000Y130250D01*
X129755Y130261D01*
X129512Y130294D01*
X129273Y130348D01*
X129039Y130423D01*
X128927Y130458D01*
X128810Y130472D01*
X128692Y130468D01*
X128576Y130445D01*
X128465Y130405D01*
X128362Y130347D01*
X128269Y130275D01*
X128188Y130188D01*
X128122Y130090D01*
X128073Y129983D01*
X128040Y129870D01*
X128026Y129753D01*
X128030Y129635D01*
X128053Y129519D01*
X128093Y129408D01*
X128151Y129305D01*
X128223Y129212D01*
X128310Y129131D01*
X128408Y129065D01*
X128515Y129018D01*
X128875Y128897D01*
X129245Y128813D01*
X129621Y128763D01*
X130000Y128746D01*
X130001Y128746D01*
Y117263D01*
X130000Y117263D01*
X129333Y117211D01*
X128683Y117054D01*
X128065Y116798D01*
X127494Y116449D01*
X126986Y116014D01*
X126610Y115575D01*
Y131032D01*
X126634Y131027D01*
X126753Y131023D01*
X126870Y131037D01*
X126984Y131070D01*
X127092Y131120D01*
X127190Y131186D01*
X127277Y131267D01*
X127350Y131360D01*
X127407Y131464D01*
X127448Y131575D01*
X127471Y131691D01*
X127475Y131810D01*
X127461Y131927D01*
X127426Y132040D01*
X127348Y132273D01*
X127294Y132512D01*
X127261Y132755D01*
X127250Y133000D01*
X127261Y133245D01*
X127294Y133488D01*
X127348Y133727D01*
X127423Y133961D01*
X127458Y134073D01*
X127472Y134190D01*
X127468Y134308D01*
X127445Y134424D01*
X127405Y134535D01*
X127347Y134638D01*
X127275Y134731D01*
X127188Y134812D01*
X127090Y134878D01*
X126983Y134927D01*
X126870Y134960D01*
X126753Y134974D01*
X126635Y134970D01*
X126610Y134965D01*
Y146000D01*
G37*
G36*
Y17250D02*X115203D01*
Y48390D01*
X115876Y48443D01*
X116565Y48609D01*
X117219Y48880D01*
X117823Y49250D01*
X118362Y49710D01*
X118822Y50248D01*
X119192Y50852D01*
X119463Y51507D01*
X119628Y52195D01*
X119670Y52902D01*
X119628Y53608D01*
X119463Y54296D01*
X119192Y54951D01*
X118822Y55555D01*
X118362Y56093D01*
X117823Y56553D01*
X117219Y56923D01*
X116565Y57195D01*
X115876Y57360D01*
X115203Y57413D01*
Y78390D01*
X115876Y78443D01*
X116565Y78609D01*
X117219Y78880D01*
X117823Y79250D01*
X118362Y79710D01*
X118822Y80248D01*
X119192Y80852D01*
X119463Y81507D01*
X119628Y82195D01*
X119670Y82902D01*
X119628Y83608D01*
X119463Y84296D01*
X119192Y84951D01*
X118822Y85555D01*
X118362Y86093D01*
X117823Y86553D01*
X117450Y86782D01*
X117450Y86783D01*
X117428Y86954D01*
X117423Y87056D01*
X117426Y87126D01*
X117420Y87214D01*
Y90630D01*
X117420Y90630D01*
Y95430D01*
X117532Y95074D01*
X117691Y94691D01*
X117882Y94323D01*
X118105Y93973D01*
X118358Y93644D01*
X118638Y93338D01*
X118944Y93058D01*
X119273Y92805D01*
X119623Y92582D01*
X119991Y92391D01*
X120374Y92232D01*
X120769Y92107D01*
X121174Y92018D01*
X121586Y91964D01*
X122000Y91945D01*
X122121Y91954D01*
X122200Y91949D01*
X122257Y91948D01*
X122313Y91940D01*
X122368Y91928D01*
X122422Y91911D01*
X122475Y91889D01*
X122525Y91863D01*
X122573Y91832D01*
X122618Y91798D01*
X122660Y91760D01*
X122698Y91718D01*
X122732Y91673D01*
X122763Y91625D01*
X122789Y91575D01*
X122811Y91522D01*
X122828Y91468D01*
X122840Y91413D01*
X122848Y91357D01*
X122850Y91300D01*
X122871Y90947D01*
X122920Y90742D01*
Y87157D01*
X122918Y87126D01*
X122913Y86954D01*
X122890Y86783D01*
X122890Y86782D01*
X122517Y86553D01*
X121978Y86093D01*
X121518Y85555D01*
X121148Y84951D01*
X120877Y84296D01*
X120712Y83608D01*
X120656Y82902D01*
X120712Y82195D01*
X120877Y81507D01*
X121148Y80852D01*
X121518Y80248D01*
X121978Y79710D01*
X122517Y79250D01*
X123121Y78880D01*
X123775Y78609D01*
X124464Y78443D01*
X125170Y78388D01*
X125876Y78443D01*
X126565Y78609D01*
X126610Y78627D01*
Y57176D01*
X126565Y57195D01*
X125876Y57360D01*
X125170Y57415D01*
X124464Y57360D01*
X123775Y57195D01*
X123121Y56923D01*
X122517Y56553D01*
X121978Y56093D01*
X121518Y55555D01*
X121148Y54951D01*
X120877Y54296D01*
X120712Y53608D01*
X120656Y52902D01*
X120712Y52195D01*
X120877Y51507D01*
X121148Y50852D01*
X121518Y50248D01*
X121978Y49710D01*
X122517Y49250D01*
X123121Y48880D01*
X123775Y48609D01*
X124464Y48443D01*
X125170Y48388D01*
X125876Y48443D01*
X126565Y48609D01*
X126610Y48627D01*
Y17250D01*
G37*
G36*
X115203Y146000D02*X126610D01*
Y134965D01*
X126519Y134947D01*
X126408Y134907D01*
X126305Y134850D01*
X126212Y134777D01*
X126131Y134690D01*
X126065Y134592D01*
X126018Y134485D01*
X125897Y134125D01*
X125813Y133755D01*
X125763Y133379D01*
X125746Y133000D01*
X125763Y132621D01*
X125813Y132245D01*
X125897Y131875D01*
X126014Y131514D01*
X126063Y131406D01*
X126129Y131308D01*
X126210Y131221D01*
X126303Y131148D01*
X126407Y131091D01*
X126518Y131050D01*
X126610Y131032D01*
Y115575D01*
X126551Y115506D01*
X126202Y114935D01*
X125946Y114317D01*
X125789Y113667D01*
X125737Y113000D01*
X125789Y112333D01*
X125946Y111683D01*
X126202Y111065D01*
X126551Y110494D01*
X126610Y110425D01*
Y103826D01*
X126361Y103418D01*
X126105Y102800D01*
X125948Y102150D01*
X125896Y101483D01*
X125948Y100816D01*
X126105Y100165D01*
X126361Y99547D01*
X126610Y99140D01*
Y93962D01*
X126423Y94257D01*
X126149Y94614D01*
X125845Y94945D01*
X125514Y95249D01*
X125157Y95523D01*
X124777Y95764D01*
X124379Y95972D01*
X123963Y96144D01*
X123534Y96279D01*
X123095Y96377D01*
X122649Y96435D01*
X122200Y96455D01*
X122073Y96446D01*
X122000Y96450D01*
X121978Y96451D01*
X121957Y96454D01*
X121935Y96459D01*
X121914Y96465D01*
X121894Y96473D01*
X121875Y96483D01*
X121857Y96495D01*
X121839Y96508D01*
X121823Y96523D01*
X121808Y96539D01*
X121795Y96557D01*
X121783Y96575D01*
X121773Y96594D01*
X121765Y96614D01*
X121759Y96635D01*
X121754Y96657D01*
X121751Y96678D01*
X121750Y96700D01*
X121744Y96800D01*
X121750Y96900D01*
Y118300D01*
X121750Y118300D01*
Y125500D01*
X121750Y125500D01*
Y128400D01*
X121750Y128400D01*
X121730Y128998D01*
X121652Y129591D01*
X121523Y130175D01*
X121343Y130745D01*
X121114Y131298D01*
X120838Y131828D01*
X120517Y132333D01*
X120152Y132807D01*
X119748Y133248D01*
X119307Y133652D01*
X118833Y134017D01*
X118328Y134338D01*
X117798Y134614D01*
X117245Y134843D01*
X116675Y135023D01*
X116091Y135152D01*
X115498Y135230D01*
X115203Y135243D01*
Y146000D01*
G37*
G36*
X105163Y119750D02*X105667Y119789D01*
X106317Y119946D01*
X106935Y120202D01*
X107506Y120551D01*
X108014Y120986D01*
X108449Y121494D01*
X108606Y121750D01*
X111275D01*
X111300Y121749D01*
X111435Y121744D01*
X111569Y121726D01*
X111701Y121697D01*
X111830Y121657D01*
X111955Y121605D01*
X112075Y121542D01*
X112189Y121470D01*
X112296Y121387D01*
X112396Y121296D01*
X112487Y121196D01*
X112570Y121089D01*
X112642Y120975D01*
X112705Y120855D01*
X112757Y120730D01*
X112797Y120601D01*
X112826Y120469D01*
X112844Y120335D01*
X112850Y120200D01*
X112871Y119847D01*
X112920Y119642D01*
Y90630D01*
X112920Y90630D01*
Y87157D01*
X112918Y87126D01*
X112913Y86954D01*
X112890Y86783D01*
X112890Y86782D01*
X112517Y86553D01*
X111978Y86093D01*
X111518Y85555D01*
X111148Y84951D01*
X110877Y84296D01*
X110712Y83608D01*
X110656Y82902D01*
X110712Y82195D01*
X110877Y81507D01*
X111148Y80852D01*
X111518Y80248D01*
X111978Y79710D01*
X112517Y79250D01*
X113121Y78880D01*
X113775Y78609D01*
X114464Y78443D01*
X115170Y78388D01*
X115203Y78390D01*
Y57413D01*
X115170Y57415D01*
X114464Y57360D01*
X113775Y57195D01*
X113121Y56923D01*
X112517Y56553D01*
X111978Y56093D01*
X111518Y55555D01*
X111148Y54951D01*
X110877Y54296D01*
X110712Y53608D01*
X110656Y52902D01*
X110712Y52195D01*
X110877Y51507D01*
X111148Y50852D01*
X111518Y50248D01*
X111978Y49710D01*
X112517Y49250D01*
X113121Y48880D01*
X113775Y48609D01*
X114464Y48443D01*
X115170Y48388D01*
X115203Y48390D01*
Y17250D01*
X105163D01*
Y18439D01*
X105683Y18224D01*
X106333Y18068D01*
X107000Y18015D01*
X107667Y18068D01*
X108317Y18224D01*
X108935Y18480D01*
X109506Y18829D01*
X110014Y19264D01*
X110449Y19773D01*
X110798Y20343D01*
X111054Y20961D01*
X111211Y21611D01*
X111250Y22278D01*
X111211Y22945D01*
X111054Y23596D01*
X110798Y24214D01*
X110449Y24784D01*
X110014Y25293D01*
X109506Y25727D01*
X108935Y26077D01*
X108317Y26333D01*
X107667Y26489D01*
X107000Y26541D01*
X106333Y26489D01*
X105683Y26333D01*
X105163Y26118D01*
Y48388D01*
X105170Y48388D01*
X105876Y48443D01*
X106565Y48609D01*
X107219Y48880D01*
X107823Y49250D01*
X108362Y49710D01*
X108822Y50248D01*
X109192Y50852D01*
X109463Y51507D01*
X109628Y52195D01*
X109670Y52902D01*
X109628Y53608D01*
X109463Y54296D01*
X109192Y54951D01*
X108822Y55555D01*
X108362Y56093D01*
X107823Y56553D01*
X107219Y56923D01*
X106565Y57195D01*
X105876Y57360D01*
X105170Y57415D01*
X105163Y57415D01*
Y78388D01*
X105170Y78388D01*
X105876Y78443D01*
X106565Y78609D01*
X107219Y78880D01*
X107823Y79250D01*
X108362Y79710D01*
X108822Y80248D01*
X109192Y80852D01*
X109463Y81507D01*
X109628Y82195D01*
X109670Y82902D01*
X109628Y83608D01*
X109463Y84296D01*
X109192Y84951D01*
X108822Y85555D01*
X108362Y86093D01*
X107823Y86553D01*
X107219Y86923D01*
X106565Y87195D01*
X105876Y87360D01*
X105170Y87415D01*
X105163Y87415D01*
Y119750D01*
G37*
G36*
Y128750D02*X105667Y128789D01*
X106317Y128946D01*
X106935Y129202D01*
X107506Y129551D01*
X108014Y129986D01*
X108449Y130494D01*
X108606Y130750D01*
X114862D01*
X114900Y130748D01*
X115105Y130741D01*
X115203Y130728D01*
Y124829D01*
X115193Y124839D01*
X114773Y125161D01*
X114328Y125444D01*
X113859Y125688D01*
X113371Y125891D01*
X112867Y126049D01*
X112352Y126164D01*
X111828Y126233D01*
X111300Y126256D01*
X111219Y126250D01*
X108606D01*
X108449Y126506D01*
X108014Y127014D01*
X107506Y127449D01*
X106935Y127798D01*
X106317Y128054D01*
X105667Y128211D01*
X105163Y128250D01*
Y128750D01*
G37*
G36*
Y146000D02*X115203D01*
Y135243D01*
X114900Y135257D01*
X114808Y135250D01*
X108606D01*
X108449Y135506D01*
X108014Y136014D01*
X107506Y136449D01*
X106935Y136798D01*
X106317Y137054D01*
X105667Y137211D01*
X105163Y137250D01*
Y146000D01*
G37*
G36*
Y17250D02*X95085D01*
Y23582D01*
X95658Y22958D01*
X96298Y22371D01*
X96987Y21842D01*
X97720Y21375D01*
X98491Y20974D01*
X99294Y20641D01*
X100122Y20380D01*
X100971Y20192D01*
X101832Y20078D01*
X102700Y20041D01*
X102863Y20052D01*
X102900Y20050D01*
X103381D01*
X103551Y19773D01*
X103986Y19264D01*
X104494Y18829D01*
X105065Y18480D01*
X105163Y18439D01*
Y17250D01*
G37*
G36*
X95085Y146000D02*X105163D01*
Y137250D01*
X105000Y137263D01*
X104333Y137211D01*
X103683Y137054D01*
X103065Y136798D01*
X102494Y136449D01*
X101986Y136014D01*
X101551Y135506D01*
X101202Y134935D01*
X100946Y134317D01*
X100789Y133667D01*
X100737Y133000D01*
X100789Y132333D01*
X100946Y131683D01*
X101202Y131065D01*
X101551Y130494D01*
X101986Y129986D01*
X102494Y129551D01*
X103065Y129202D01*
X103683Y128946D01*
X104333Y128789D01*
X105000Y128737D01*
X105163Y128750D01*
Y128250D01*
X105000Y128263D01*
X104333Y128211D01*
X103683Y128054D01*
X103065Y127798D01*
X102494Y127449D01*
X101986Y127014D01*
X101551Y126506D01*
X101202Y125935D01*
X100946Y125317D01*
X100789Y124667D01*
X100737Y124000D01*
X100789Y123333D01*
X100946Y122683D01*
X101202Y122065D01*
X101551Y121494D01*
X101986Y120986D01*
X102494Y120551D01*
X103065Y120202D01*
X103683Y119946D01*
X104333Y119789D01*
X105000Y119737D01*
X105163Y119750D01*
Y87415D01*
X104464Y87360D01*
X103775Y87195D01*
X103121Y86923D01*
X102517Y86553D01*
X101978Y86093D01*
X101518Y85555D01*
X101148Y84951D01*
X100877Y84296D01*
X100712Y83608D01*
X100656Y82902D01*
X100712Y82195D01*
X100877Y81507D01*
X101148Y80852D01*
X101518Y80248D01*
X101978Y79710D01*
X102517Y79250D01*
X103121Y78880D01*
X103775Y78609D01*
X104464Y78443D01*
X105163Y78388D01*
Y57415D01*
X104464Y57360D01*
X103775Y57195D01*
X103121Y56923D01*
X102517Y56553D01*
X101978Y56093D01*
X101518Y55555D01*
X101148Y54951D01*
X100877Y54296D01*
X100712Y53608D01*
X100656Y52902D01*
X100712Y52195D01*
X100877Y51507D01*
X101148Y50852D01*
X101518Y50248D01*
X101978Y49710D01*
X102517Y49250D01*
X103121Y48880D01*
X103775Y48609D01*
X104464Y48443D01*
X105163Y48388D01*
Y26118D01*
X105065Y26077D01*
X104494Y25727D01*
X103986Y25293D01*
X103551Y24784D01*
X103408Y24550D01*
X102900D01*
X102844Y24547D01*
X102700Y24555D01*
X102225Y24571D01*
X101754Y24633D01*
X101289Y24736D01*
X100836Y24879D01*
X100397Y25061D01*
X99975Y25280D01*
X99574Y25536D01*
X99197Y25825D01*
X98846Y26146D01*
X98525Y26497D01*
X98241Y26866D01*
X98652Y27347D01*
X99022Y27951D01*
X99293Y28605D01*
X99458Y29294D01*
X99500Y30000D01*
X99458Y30706D01*
X99293Y31395D01*
X99022Y32049D01*
X98652Y32653D01*
X98192Y33192D01*
X97653Y33652D01*
X97049Y34022D01*
X96395Y34293D01*
X95706Y34458D01*
X95085Y34507D01*
Y43431D01*
X95390Y43710D01*
X95806Y44164D01*
X96181Y44652D01*
X96511Y45172D01*
X96796Y45718D01*
X97031Y46286D01*
X97216Y46874D01*
X97350Y47475D01*
X97430Y48085D01*
X97457Y48700D01*
X97450Y48794D01*
Y49021D01*
X97823Y49250D01*
X98362Y49710D01*
X98822Y50248D01*
X99192Y50852D01*
X99463Y51507D01*
X99628Y52195D01*
X99670Y52902D01*
X99628Y53608D01*
X99463Y54296D01*
X99192Y54951D01*
X98822Y55555D01*
X98362Y56093D01*
X97823Y56553D01*
X97219Y56923D01*
X96565Y57195D01*
X95876Y57360D01*
X95170Y57415D01*
X95085Y57409D01*
Y78394D01*
X95170Y78388D01*
X95876Y78443D01*
X96565Y78609D01*
X97219Y78880D01*
X97823Y79250D01*
X98362Y79710D01*
X98822Y80248D01*
X99192Y80852D01*
X99463Y81507D01*
X99628Y82195D01*
X99670Y82902D01*
X99628Y83608D01*
X99463Y84296D01*
X99192Y84951D01*
X98822Y85555D01*
X98362Y86093D01*
X97823Y86553D01*
X97420Y86800D01*
Y100512D01*
X98235Y100514D01*
X98465Y100569D01*
X98683Y100659D01*
X98884Y100783D01*
X99064Y100936D01*
X99217Y101116D01*
X99341Y101317D01*
X99431Y101535D01*
X99486Y101765D01*
X99500Y102000D01*
X99486Y108235D01*
X99431Y108465D01*
X99341Y108683D01*
X99217Y108884D01*
X99064Y109064D01*
X98884Y109217D01*
X98683Y109341D01*
X98465Y109431D01*
X98235Y109486D01*
X98000Y109500D01*
X95085Y109494D01*
Y146000D01*
G37*
G36*
X71118Y12750D02*X95085D01*
Y5000D01*
X71118D01*
Y12750D01*
G37*
G36*
X85172Y25507D02*X88235Y25514D01*
X88465Y25569D01*
X88683Y25659D01*
X88884Y25783D01*
X89064Y25936D01*
X89217Y26116D01*
X89341Y26317D01*
X89431Y26535D01*
X89486Y26765D01*
X89500Y27000D01*
X89486Y33235D01*
X89431Y33465D01*
X89341Y33683D01*
X89217Y33884D01*
X89064Y34064D01*
X88884Y34217D01*
X88683Y34341D01*
X88465Y34431D01*
X88235Y34486D01*
X88000Y34500D01*
X87250Y34498D01*
Y38449D01*
X87253Y38500D01*
X87262Y38775D01*
X87298Y39047D01*
X87357Y39315D01*
X87440Y39577D01*
X87545Y39831D01*
X87672Y40075D01*
X87820Y40307D01*
X87987Y40525D01*
X88173Y40727D01*
X88375Y40913D01*
X88593Y41080D01*
X88825Y41228D01*
X89069Y41355D01*
X89323Y41460D01*
X89585Y41543D01*
X89853Y41602D01*
X90125Y41638D01*
X90400Y41650D01*
X90400Y41650D01*
X91015Y41670D01*
X91625Y41750D01*
X92226Y41884D01*
X92814Y42069D01*
X93382Y42304D01*
X93928Y42589D01*
X94448Y42919D01*
X94936Y43294D01*
X95085Y43431D01*
Y34507D01*
X95000Y34514D01*
X94294Y34458D01*
X93605Y34293D01*
X92951Y34022D01*
X92347Y33652D01*
X91808Y33192D01*
X91348Y32653D01*
X90978Y32049D01*
X90707Y31395D01*
X90542Y30706D01*
X90486Y30000D01*
X90542Y29294D01*
X90707Y28605D01*
X90978Y27951D01*
X91348Y27347D01*
X91808Y26808D01*
X92347Y26348D01*
X92951Y25978D01*
X93605Y25707D01*
X93733Y25676D01*
X94075Y25020D01*
X94542Y24287D01*
X95071Y23598D01*
X95085Y23582D01*
Y17250D01*
X85172D01*
Y25507D01*
G37*
G36*
X88783Y146000D02*X95085D01*
Y109494D01*
X91765Y109486D01*
X91535Y109431D01*
X91317Y109341D01*
X91116Y109217D01*
X90936Y109064D01*
X90783Y108884D01*
X90659Y108683D01*
X90569Y108465D01*
X90514Y108235D01*
X90500Y108000D01*
X90514Y101765D01*
X90569Y101535D01*
X90659Y101317D01*
X90783Y101116D01*
X90936Y100936D01*
X91116Y100783D01*
X91317Y100659D01*
X91535Y100569D01*
X91765Y100514D01*
X92000Y100500D01*
X92920Y100502D01*
Y86801D01*
X92517Y86553D01*
X91978Y86093D01*
X91518Y85555D01*
X91148Y84951D01*
X90877Y84296D01*
X90712Y83608D01*
X90656Y82902D01*
X90712Y82195D01*
X90877Y81507D01*
X91148Y80852D01*
X91518Y80248D01*
X91978Y79710D01*
X92517Y79250D01*
X93121Y78880D01*
X93775Y78609D01*
X94464Y78443D01*
X95085Y78394D01*
Y57409D01*
X94464Y57360D01*
X93775Y57195D01*
X93121Y56923D01*
X92517Y56553D01*
X91978Y56093D01*
X91518Y55555D01*
X91148Y54951D01*
X90877Y54296D01*
X90712Y53608D01*
X90656Y52902D01*
X90712Y52195D01*
X90877Y51507D01*
X91148Y50852D01*
X91518Y50248D01*
X91978Y49710D01*
X92517Y49250D01*
X92950Y48984D01*
Y48741D01*
X92948Y48700D01*
X92940Y48478D01*
X92911Y48257D01*
X92863Y48040D01*
X92796Y47828D01*
X92711Y47622D01*
X92608Y47425D01*
X92489Y47237D01*
X92353Y47061D01*
X92203Y46897D01*
X92039Y46747D01*
X91863Y46611D01*
X91675Y46492D01*
X91478Y46389D01*
X91272Y46304D01*
X91060Y46237D01*
X90843Y46189D01*
X90622Y46160D01*
X90400Y46150D01*
X90400Y46150D01*
X89733Y46128D01*
X89070Y46041D01*
X88783Y45977D01*
Y50203D01*
X88822Y50248D01*
X89192Y50852D01*
X89463Y51507D01*
X89628Y52195D01*
X89670Y52902D01*
X89628Y53608D01*
X89463Y54296D01*
X89192Y54951D01*
X88822Y55555D01*
X88783Y55600D01*
Y80755D01*
X88826Y80762D01*
X88938Y80799D01*
X89043Y80853D01*
X89138Y80923D01*
X89221Y81007D01*
X89289Y81103D01*
X89340Y81210D01*
X89488Y81617D01*
X89592Y82039D01*
X89654Y82468D01*
X89675Y82902D01*
X89654Y83335D01*
X89592Y83764D01*
X89488Y84186D01*
X89345Y84595D01*
X89292Y84702D01*
X89223Y84798D01*
X89140Y84882D01*
X89045Y84953D01*
X88939Y85007D01*
X88827Y85045D01*
X88783Y85052D01*
Y102561D01*
X89022Y102951D01*
X89293Y103605D01*
X89458Y104294D01*
X89500Y105000D01*
X89458Y105706D01*
X89293Y106395D01*
X89022Y107049D01*
X88783Y107439D01*
Y146000D01*
G37*
G36*
Y55600D02*X88362Y56093D01*
X87823Y56553D01*
X87219Y56923D01*
X86565Y57195D01*
X85876Y57360D01*
X85172Y57415D01*
Y78396D01*
X85603Y78417D01*
X86033Y78480D01*
X86454Y78583D01*
X86864Y78727D01*
X86970Y78779D01*
X87066Y78848D01*
X87151Y78932D01*
X87221Y79027D01*
X87276Y79132D01*
X87313Y79245D01*
X87333Y79362D01*
X87334Y79480D01*
X87316Y79598D01*
X87280Y79711D01*
X87227Y79817D01*
X87158Y79913D01*
X87075Y79998D01*
X86979Y80068D01*
X86874Y80123D01*
X86762Y80160D01*
X86645Y80180D01*
X86526Y80181D01*
X86409Y80163D01*
X86296Y80125D01*
X86025Y80026D01*
X85745Y79957D01*
X85459Y79915D01*
X85172Y79902D01*
Y85901D01*
X85459Y85888D01*
X85745Y85846D01*
X86025Y85777D01*
X86298Y85682D01*
X86409Y85644D01*
X86526Y85626D01*
X86644Y85627D01*
X86761Y85646D01*
X86873Y85684D01*
X86977Y85738D01*
X87072Y85808D01*
X87155Y85892D01*
X87224Y85988D01*
X87277Y86094D01*
X87313Y86206D01*
X87330Y86323D01*
X87329Y86441D01*
X87310Y86557D01*
X87273Y86669D01*
X87218Y86774D01*
X87148Y86869D01*
X87064Y86952D01*
X86968Y87021D01*
X86862Y87071D01*
X86454Y87220D01*
X86033Y87323D01*
X85603Y87386D01*
X85172Y87407D01*
Y100500D01*
X85706Y100542D01*
X86395Y100707D01*
X87049Y100978D01*
X87653Y101348D01*
X88192Y101808D01*
X88652Y102347D01*
X88783Y102561D01*
Y85052D01*
X88710Y85064D01*
X88591Y85065D01*
X88474Y85048D01*
X88361Y85012D01*
X88255Y84959D01*
X88158Y84890D01*
X88074Y84806D01*
X88003Y84711D01*
X87949Y84606D01*
X87911Y84493D01*
X87892Y84376D01*
X87891Y84258D01*
X87909Y84140D01*
X87947Y84028D01*
X88046Y83757D01*
X88114Y83476D01*
X88156Y83190D01*
X88170Y82902D01*
X88156Y82613D01*
X88114Y82327D01*
X88046Y82046D01*
X87950Y81774D01*
X87912Y81662D01*
X87895Y81545D01*
X87895Y81427D01*
X87915Y81311D01*
X87952Y81199D01*
X88006Y81094D01*
X88076Y80999D01*
X88161Y80916D01*
X88257Y80848D01*
X88362Y80795D01*
X88475Y80759D01*
X88591Y80741D01*
X88709Y80742D01*
X88783Y80755D01*
Y55600D01*
G37*
G36*
Y45977D02*X88418Y45896D01*
X87781Y45695D01*
X87164Y45440D01*
X86571Y45131D01*
X86008Y44772D01*
X85478Y44366D01*
X85172Y44085D01*
Y48388D01*
X85876Y48443D01*
X86565Y48609D01*
X87219Y48880D01*
X87823Y49250D01*
X88362Y49710D01*
X88783Y50203D01*
Y45977D01*
G37*
G36*
X85172Y146000D02*X88783D01*
Y107439D01*
X88652Y107653D01*
X88192Y108192D01*
X87653Y108652D01*
X87049Y109022D01*
X86395Y109293D01*
X85706Y109458D01*
X85172Y109500D01*
Y146000D01*
G37*
G36*
X81557Y102102D02*X81808Y101808D01*
X82347Y101348D01*
X82951Y100978D01*
X83605Y100707D01*
X84294Y100542D01*
X85000Y100486D01*
X85172Y100500D01*
Y87407D01*
X85170Y87407D01*
X84737Y87386D01*
X84307Y87323D01*
X83886Y87220D01*
X83476Y87076D01*
X83370Y87024D01*
X83274Y86955D01*
X83189Y86872D01*
X83119Y86776D01*
X83064Y86671D01*
X83027Y86558D01*
X83007Y86441D01*
X83006Y86323D01*
X83024Y86205D01*
X83060Y86092D01*
X83113Y85986D01*
X83182Y85890D01*
X83265Y85805D01*
X83361Y85735D01*
X83466Y85680D01*
X83578Y85643D01*
X83695Y85623D01*
X83814Y85623D01*
X83931Y85640D01*
X84044Y85678D01*
X84315Y85777D01*
X84595Y85846D01*
X84881Y85888D01*
X85170Y85902D01*
X85172Y85901D01*
Y79902D01*
X85170Y79902D01*
X84881Y79915D01*
X84595Y79957D01*
X84315Y80026D01*
X84042Y80122D01*
X83931Y80159D01*
X83814Y80177D01*
X83696Y80176D01*
X83579Y80157D01*
X83467Y80120D01*
X83363Y80065D01*
X83268Y79995D01*
X83185Y79911D01*
X83116Y79815D01*
X83063Y79709D01*
X83027Y79597D01*
X83010Y79480D01*
X83011Y79362D01*
X83030Y79246D01*
X83067Y79134D01*
X83122Y79029D01*
X83192Y78934D01*
X83276Y78851D01*
X83372Y78782D01*
X83478Y78732D01*
X83886Y78583D01*
X84307Y78480D01*
X84737Y78417D01*
X85170Y78396D01*
X85172Y78396D01*
Y57415D01*
X85170Y57415D01*
X84464Y57360D01*
X83775Y57195D01*
X83121Y56923D01*
X82517Y56553D01*
X81978Y56093D01*
X81557Y55600D01*
Y80751D01*
X81630Y80739D01*
X81749Y80738D01*
X81866Y80756D01*
X81979Y80791D01*
X82085Y80845D01*
X82182Y80914D01*
X82266Y80997D01*
X82337Y81092D01*
X82391Y81198D01*
X82429Y81310D01*
X82448Y81427D01*
X82449Y81546D01*
X82431Y81663D01*
X82393Y81775D01*
X82294Y82046D01*
X82226Y82327D01*
X82184Y82613D01*
X82170Y82902D01*
X82184Y83190D01*
X82226Y83476D01*
X82294Y83757D01*
X82390Y84029D01*
X82428Y84141D01*
X82445Y84258D01*
X82445Y84376D01*
X82425Y84492D01*
X82388Y84604D01*
X82334Y84709D01*
X82264Y84804D01*
X82179Y84887D01*
X82083Y84956D01*
X81978Y85008D01*
X81865Y85044D01*
X81749Y85062D01*
X81631Y85061D01*
X81557Y85049D01*
Y102102D01*
G37*
G36*
Y25564D02*X81765Y25514D01*
X82000Y25500D01*
X85172Y25507D01*
Y17250D01*
X81557D01*
Y25564D01*
G37*
G36*
X85172Y44085D02*X84985Y43915D01*
X84534Y43422D01*
X84128Y42892D01*
X83769Y42329D01*
X83460Y41736D01*
X83205Y41119D01*
X83004Y40482D01*
X82859Y39830D01*
X82772Y39167D01*
X82743Y38500D01*
X82750Y38398D01*
Y34488D01*
X81765Y34486D01*
X81557Y34436D01*
Y50203D01*
X81978Y49710D01*
X82517Y49250D01*
X83121Y48880D01*
X83775Y48609D01*
X84464Y48443D01*
X85170Y48388D01*
X85172Y48388D01*
Y44085D01*
G37*
G36*
X81557Y34436D02*X81535Y34431D01*
X81317Y34341D01*
X81116Y34217D01*
X80936Y34064D01*
X80783Y33884D01*
X80659Y33683D01*
X80569Y33465D01*
X80514Y33235D01*
X80500Y33000D01*
X80514Y26765D01*
X80569Y26535D01*
X80659Y26317D01*
X80783Y26116D01*
X80936Y25936D01*
X81116Y25783D01*
X81317Y25659D01*
X81535Y25569D01*
X81557Y25564D01*
Y17250D01*
X71118D01*
Y44869D01*
X71154Y44900D01*
X71588Y45408D01*
X71938Y45979D01*
X72194Y46597D01*
X72350Y47247D01*
X72389Y47914D01*
X72350Y48581D01*
X72194Y49232D01*
X71938Y49850D01*
X71588Y50420D01*
X71154Y50929D01*
X71118Y50959D01*
Y84869D01*
X71154Y84900D01*
X71588Y85408D01*
X71938Y85979D01*
X72194Y86597D01*
X72350Y87247D01*
X72389Y87914D01*
X72350Y88581D01*
X72194Y89232D01*
X71938Y89850D01*
X71588Y90420D01*
X71154Y90929D01*
X71118Y90959D01*
Y102750D01*
X80743D01*
X80775Y102748D01*
X80947Y102742D01*
X81118Y102720D01*
X81120Y102720D01*
X81348Y102347D01*
X81557Y102102D01*
Y85049D01*
X81514Y85042D01*
X81402Y85004D01*
X81297Y84950D01*
X81202Y84880D01*
X81119Y84796D01*
X81051Y84700D01*
X81000Y84593D01*
X80852Y84186D01*
X80748Y83764D01*
X80686Y83335D01*
X80665Y82902D01*
X80686Y82468D01*
X80748Y82039D01*
X80852Y81617D01*
X80995Y81208D01*
X81048Y81102D01*
X81117Y81005D01*
X81200Y80921D01*
X81295Y80850D01*
X81401Y80796D01*
X81513Y80758D01*
X81557Y80751D01*
Y55600D01*
X81518Y55555D01*
X81148Y54951D01*
X80877Y54296D01*
X80712Y53608D01*
X80656Y52902D01*
X80712Y52195D01*
X80877Y51507D01*
X81148Y50852D01*
X81518Y50248D01*
X81557Y50203D01*
Y34436D01*
G37*
G36*
X71118Y146000D02*X85172D01*
Y109500D01*
X85000Y109514D01*
X84294Y109458D01*
X83605Y109293D01*
X82951Y109022D01*
X82347Y108652D01*
X81808Y108192D01*
X81348Y107653D01*
X81120Y107280D01*
X81118Y107280D01*
X80947Y107258D01*
X80846Y107253D01*
X80775Y107256D01*
X80689Y107250D01*
X71118D01*
Y146000D01*
G37*
G36*
Y50959D02*X70645Y51363D01*
X70075Y51713D01*
X69457Y51969D01*
X68806Y52125D01*
X68139Y52177D01*
X67472Y52125D01*
X66822Y51969D01*
X66204Y51713D01*
X65634Y51363D01*
X65125Y50929D01*
X64690Y50420D01*
X64341Y49850D01*
X64085Y49232D01*
X63929Y48581D01*
X63876Y47914D01*
X63929Y47247D01*
X64085Y46597D01*
X64341Y45979D01*
X64690Y45408D01*
X65125Y44900D01*
X65634Y44465D01*
X65885Y44311D01*
X65884Y44293D01*
X65889Y44214D01*
Y41663D01*
X65863Y41554D01*
X65842Y41200D01*
X65820Y40507D01*
X65729Y39820D01*
X65579Y39142D01*
X65371Y38481D01*
X65105Y37840D01*
X64785Y37225D01*
X64412Y36640D01*
X63990Y36090D01*
X63521Y35579D01*
X63010Y35110D01*
X62460Y34688D01*
X61875Y34315D01*
X61260Y33995D01*
X60619Y33729D01*
X59958Y33521D01*
X59280Y33371D01*
X58593Y33280D01*
X57900Y33250D01*
X53194D01*
X53040Y33623D01*
X52670Y34227D01*
X52210Y34766D01*
X51671Y35226D01*
X51067Y35596D01*
X50413Y35867D01*
X49724Y36032D01*
X49018Y36088D01*
X48312Y36032D01*
X47623Y35867D01*
X46968Y35596D01*
X46365Y35226D01*
X45826Y34766D01*
X45366Y34227D01*
X44996Y33623D01*
X44725Y32969D01*
X44559Y32280D01*
X44504Y31574D01*
X44559Y30868D01*
X44725Y30179D01*
X44996Y29525D01*
X45366Y28921D01*
X45826Y28382D01*
X46365Y27922D01*
X46968Y27552D01*
X47046Y27520D01*
Y21704D01*
X47055Y21560D01*
X47076Y20919D01*
X47178Y20144D01*
X47347Y19381D01*
X47582Y18636D01*
X47881Y17914D01*
X48242Y17221D01*
X48662Y16562D01*
X49137Y15942D01*
X49665Y15365D01*
X50242Y14837D01*
X50862Y14362D01*
X51521Y13942D01*
X52214Y13581D01*
X52936Y13282D01*
X53681Y13047D01*
X54444Y12878D01*
X55219Y12776D01*
X56000Y12741D01*
X56120Y12750D01*
X71118D01*
Y5000D01*
X38743D01*
Y27082D01*
X39018Y27060D01*
X39724Y27116D01*
X40413Y27281D01*
X41067Y27552D01*
X41671Y27922D01*
X42210Y28382D01*
X42670Y28921D01*
X43040Y29525D01*
X43311Y30179D01*
X43476Y30868D01*
X43518Y31574D01*
X43476Y32280D01*
X43311Y32969D01*
X43040Y33623D01*
X42670Y34227D01*
X42210Y34766D01*
X41671Y35226D01*
X41298Y35454D01*
X41298Y35456D01*
X41275Y35627D01*
X41271Y35728D01*
X41274Y35799D01*
X41268Y35885D01*
Y58362D01*
X42385Y58364D01*
X42615Y58419D01*
X42833Y58510D01*
X43034Y58633D01*
X43214Y58786D01*
X43367Y58966D01*
X43490Y59167D01*
X43581Y59385D01*
X43636Y59615D01*
X43650Y59850D01*
X43636Y66385D01*
X43581Y66615D01*
X43490Y66833D01*
X43367Y67034D01*
X43214Y67214D01*
X43034Y67367D01*
X42833Y67490D01*
X42615Y67581D01*
X42385Y67636D01*
X42150Y67650D01*
X38743Y67642D01*
Y68356D01*
X39000Y68336D01*
X39730Y68393D01*
X40441Y68564D01*
X41117Y68844D01*
X41741Y69227D01*
X42298Y69702D01*
X42773Y70259D01*
X43032Y70682D01*
X43181Y70715D01*
X43383Y70741D01*
X43512Y70747D01*
X43586Y70743D01*
X43678Y70750D01*
X47000D01*
X47050Y70753D01*
X47100Y70750D01*
X47855Y70775D01*
X48603Y70873D01*
X49341Y71037D01*
X50061Y71264D01*
X50759Y71553D01*
X51429Y71902D01*
X52066Y72308D01*
X52665Y72767D01*
X53222Y73278D01*
X53733Y73835D01*
X54192Y74434D01*
X54598Y75071D01*
X54947Y75741D01*
X55236Y76439D01*
X55463Y77159D01*
X55627Y77897D01*
X55725Y78645D01*
X55758Y79400D01*
X55757Y79422D01*
X55774Y79945D01*
X55845Y80485D01*
X55963Y81018D01*
X56127Y81538D01*
X56336Y82041D01*
X56587Y82525D01*
X56880Y82985D01*
X57212Y83417D01*
X57581Y83819D01*
X57983Y84188D01*
X58415Y84520D01*
X58875Y84813D01*
X59359Y85064D01*
X59862Y85273D01*
X60382Y85437D01*
X60915Y85555D01*
X61455Y85626D01*
X62000Y85650D01*
X62237Y85664D01*
X64534D01*
X64690Y85408D01*
X65125Y84900D01*
X65634Y84465D01*
X66204Y84116D01*
X66822Y83860D01*
X67472Y83704D01*
X68139Y83651D01*
X68806Y83704D01*
X69457Y83860D01*
X70075Y84116D01*
X70645Y84465D01*
X71118Y84869D01*
Y50959D01*
G37*
G36*
Y17250D02*X56072D01*
X56000Y17254D01*
X55612Y17267D01*
X55227Y17318D01*
X54848Y17402D01*
X54478Y17518D01*
X54119Y17667D01*
X53775Y17846D01*
X53448Y18055D01*
X53140Y18291D01*
X52853Y18553D01*
X52591Y18840D01*
X52355Y19148D01*
X52146Y19475D01*
X51967Y19819D01*
X51818Y20178D01*
X51702Y20548D01*
X51618Y20927D01*
X51567Y21312D01*
X51550Y21700D01*
X51546Y21767D01*
Y27846D01*
X51671Y27922D01*
X52210Y28382D01*
X52524Y28750D01*
X58000D01*
X58125Y28757D01*
X58986Y28786D01*
X60064Y28927D01*
X61125Y29163D01*
X62162Y29490D01*
X63167Y29906D01*
X64131Y30408D01*
X65048Y30992D01*
X65910Y31654D01*
X66712Y32388D01*
X67446Y33190D01*
X68108Y34052D01*
X68692Y34969D01*
X69194Y35933D01*
X69610Y36938D01*
X69937Y37975D01*
X70173Y39036D01*
X70314Y40114D01*
X70338Y40660D01*
X70369Y40786D01*
X70389Y41139D01*
Y44271D01*
X70391Y44293D01*
X70391Y44310D01*
X70645Y44465D01*
X71118Y44869D01*
Y17250D01*
G37*
G36*
X38743Y146000D02*X71118D01*
Y107250D01*
X67227D01*
X67100Y107257D01*
X66416Y107280D01*
X65737Y107369D01*
X65068Y107517D01*
X64415Y107723D01*
X63782Y107985D01*
X63175Y108302D01*
X62597Y108670D01*
X62054Y109087D01*
X61549Y109549D01*
X61087Y110054D01*
X60670Y110597D01*
X60302Y111175D01*
X59985Y111782D01*
X59931Y111914D01*
X60014Y111986D01*
X60449Y112494D01*
X60798Y113065D01*
X61054Y113683D01*
X61211Y114333D01*
X61250Y115000D01*
X61211Y115667D01*
X61054Y116317D01*
X60798Y116935D01*
X60449Y117506D01*
X60014Y118014D01*
X59506Y118449D01*
X58935Y118798D01*
X58317Y119054D01*
X57667Y119211D01*
X57000Y119263D01*
X56333Y119211D01*
X55683Y119054D01*
X55065Y118798D01*
X54494Y118449D01*
X53986Y118014D01*
X53551Y117506D01*
X53202Y116935D01*
X52946Y116317D01*
X52789Y115667D01*
X52737Y115000D01*
X52789Y114333D01*
X52946Y113683D01*
X53202Y113065D01*
X53551Y112494D01*
X53986Y111986D01*
X54494Y111551D01*
X55065Y111202D01*
X55427Y111051D01*
X55484Y110872D01*
X55896Y109876D01*
X56394Y108919D01*
X56974Y108010D01*
X57630Y107154D01*
X58359Y106359D01*
X59154Y105630D01*
X60010Y104974D01*
X60919Y104394D01*
X61876Y103896D01*
X62872Y103484D01*
X63901Y103159D01*
X64953Y102926D01*
X66023Y102785D01*
X67100Y102738D01*
X67265Y102750D01*
X71118D01*
Y90959D01*
X70645Y91363D01*
X70075Y91713D01*
X69457Y91969D01*
X68806Y92125D01*
X68139Y92177D01*
X67472Y92125D01*
X66822Y91969D01*
X66204Y91713D01*
X65634Y91363D01*
X65125Y90929D01*
X64690Y90420D01*
X64534Y90164D01*
X61914D01*
X61561Y90143D01*
X61525Y90134D01*
X61062Y90119D01*
X60132Y89997D01*
X59215Y89794D01*
X58320Y89511D01*
X57453Y89152D01*
X56620Y88719D01*
X55828Y88214D01*
X55083Y87643D01*
X54391Y87009D01*
X53757Y86317D01*
X53186Y85572D01*
X52681Y84780D01*
X52248Y83947D01*
X51889Y83080D01*
X51606Y82185D01*
X51403Y81268D01*
X51281Y80338D01*
X51240Y79400D01*
X51244Y79340D01*
X51234Y79038D01*
X51187Y78679D01*
X51109Y78326D01*
X51000Y77981D01*
X50861Y77646D01*
X50694Y77325D01*
X50499Y77020D01*
X50279Y76732D01*
X50034Y76466D01*
X49768Y76221D01*
X49480Y76001D01*
X49175Y75806D01*
X48854Y75639D01*
X48519Y75500D01*
X48174Y75391D01*
X47821Y75313D01*
X47462Y75266D01*
X47100Y75250D01*
X47050Y75247D01*
X47000Y75250D01*
X43624D01*
X43586Y75252D01*
X43383Y75259D01*
X43181Y75285D01*
X43032Y75318D01*
X42773Y75741D01*
X42298Y76298D01*
X41741Y76773D01*
X41318Y77032D01*
X41285Y77181D01*
X41259Y77383D01*
X41253Y77512D01*
X41257Y77586D01*
X41250Y77678D01*
Y112859D01*
X41258Y113000D01*
X41283Y113763D01*
X41383Y114519D01*
X41548Y115265D01*
X41778Y115993D01*
X42070Y116698D01*
X42422Y117375D01*
X42832Y118019D01*
X43297Y118624D01*
X43813Y119187D01*
X44376Y119703D01*
X44981Y120168D01*
X45625Y120578D01*
X46302Y120930D01*
X47007Y121222D01*
X47735Y121452D01*
X48481Y121617D01*
X49237Y121717D01*
X50000Y121750D01*
X50000Y121750D01*
X53394D01*
X53551Y121494D01*
X53986Y120986D01*
X54494Y120551D01*
X55065Y120202D01*
X55683Y119946D01*
X56333Y119789D01*
X57000Y119737D01*
X57667Y119789D01*
X58317Y119946D01*
X58935Y120202D01*
X59506Y120551D01*
X60014Y120986D01*
X60449Y121494D01*
X60606Y121750D01*
X61357D01*
X61379Y121749D01*
X61395Y121748D01*
X61551Y121494D01*
X61986Y120986D01*
X62494Y120551D01*
X63065Y120202D01*
X63683Y119946D01*
X64333Y119789D01*
X65000Y119737D01*
X65667Y119789D01*
X66317Y119946D01*
X66935Y120202D01*
X67506Y120551D01*
X68014Y120986D01*
X68449Y121494D01*
X68798Y122065D01*
X69054Y122683D01*
X69211Y123333D01*
X69250Y124000D01*
X69211Y124667D01*
X69054Y125317D01*
X68798Y125935D01*
X68449Y126506D01*
X68014Y127014D01*
X67506Y127449D01*
X66935Y127798D01*
X66317Y128054D01*
X65667Y128211D01*
X65000Y128263D01*
X64333Y128211D01*
X63683Y128054D01*
X63065Y127798D01*
X62494Y127449D01*
X61986Y127014D01*
X61551Y126506D01*
X61397Y126255D01*
X61379Y126256D01*
X61300Y126250D01*
X60606D01*
X60449Y126506D01*
X60014Y127014D01*
X59506Y127449D01*
X58935Y127798D01*
X58317Y128054D01*
X57667Y128211D01*
X57000Y128263D01*
X56333Y128211D01*
X55683Y128054D01*
X55065Y127798D01*
X54494Y127449D01*
X53986Y127014D01*
X53551Y126506D01*
X53394Y126250D01*
X50000D01*
X50000Y126250D01*
X48844Y126212D01*
X47697Y126061D01*
X46567Y125811D01*
X45464Y125463D01*
X44395Y125020D01*
X43369Y124486D01*
X42393Y123864D01*
X41475Y123160D01*
X40622Y122378D01*
X39840Y121525D01*
X39136Y120607D01*
X38743Y119991D01*
Y130072D01*
X39107Y130222D01*
X39835Y130452D01*
X40581Y130617D01*
X41337Y130717D01*
X42100Y130750D01*
X42100Y130750D01*
X53394D01*
X53551Y130494D01*
X53986Y129986D01*
X54494Y129551D01*
X55065Y129202D01*
X55683Y128946D01*
X56333Y128789D01*
X57000Y128737D01*
X57667Y128789D01*
X58317Y128946D01*
X58935Y129202D01*
X59506Y129551D01*
X60014Y129986D01*
X60449Y130494D01*
X60606Y130750D01*
X61357D01*
X61379Y130749D01*
X61395Y130748D01*
X61551Y130494D01*
X61986Y129986D01*
X62494Y129551D01*
X63065Y129202D01*
X63683Y128946D01*
X64333Y128789D01*
X65000Y128737D01*
X65667Y128789D01*
X66317Y128946D01*
X66935Y129202D01*
X67506Y129551D01*
X68014Y129986D01*
X68449Y130494D01*
X68798Y131065D01*
X69054Y131683D01*
X69211Y132333D01*
X69250Y133000D01*
X69211Y133667D01*
X69054Y134317D01*
X68798Y134935D01*
X68449Y135506D01*
X68014Y136014D01*
X67506Y136449D01*
X66935Y136798D01*
X66317Y137054D01*
X65667Y137211D01*
X65000Y137263D01*
X64333Y137211D01*
X63683Y137054D01*
X63065Y136798D01*
X62494Y136449D01*
X61986Y136014D01*
X61551Y135506D01*
X61397Y135255D01*
X61379Y135256D01*
X61300Y135250D01*
X60606D01*
X60449Y135506D01*
X60014Y136014D01*
X59506Y136449D01*
X58935Y136798D01*
X58317Y137054D01*
X57667Y137211D01*
X57000Y137263D01*
X56333Y137211D01*
X55683Y137054D01*
X55065Y136798D01*
X54494Y136449D01*
X53986Y136014D01*
X53551Y135506D01*
X53394Y135250D01*
X42100D01*
X42100Y135250D01*
X40944Y135212D01*
X39797Y135061D01*
X38743Y134828D01*
Y146000D01*
G37*
G36*
X33350Y121700D02*X33345Y121780D01*
X33358Y122000D01*
X33383Y122763D01*
X33483Y123519D01*
X33648Y124265D01*
X33878Y124993D01*
X34170Y125698D01*
X34522Y126375D01*
X34932Y127019D01*
X35397Y127624D01*
X35913Y128187D01*
X36476Y128703D01*
X37081Y129168D01*
X37725Y129578D01*
X38402Y129930D01*
X38743Y130072D01*
Y119991D01*
X38514Y119631D01*
X37980Y118605D01*
X37537Y117536D01*
X37189Y116433D01*
X36939Y115303D01*
X36788Y114156D01*
X36737Y113000D01*
X36750Y112823D01*
Y77624D01*
X36748Y77586D01*
X36741Y77383D01*
X36715Y77181D01*
X36682Y77032D01*
X36259Y76773D01*
X35702Y76298D01*
X35227Y75741D01*
X35000Y75371D01*
X34773Y75741D01*
X34298Y76298D01*
X33741Y76773D01*
X33350Y77013D01*
Y121700D01*
G37*
G36*
X31002Y68336D02*X31730Y68393D01*
X32441Y68564D01*
X33117Y68844D01*
X33741Y69227D01*
X34298Y69702D01*
X34773Y70259D01*
X35000Y70629D01*
X35227Y70259D01*
X35702Y69702D01*
X36259Y69227D01*
X36883Y68844D01*
X37559Y68564D01*
X38270Y68393D01*
X38743Y68356D01*
Y67642D01*
X35615Y67636D01*
X35385Y67581D01*
X35167Y67490D01*
X34966Y67367D01*
X34786Y67214D01*
X34633Y67034D01*
X34510Y66833D01*
X34419Y66615D01*
X34364Y66385D01*
X34350Y66150D01*
X34352Y65236D01*
X34296Y65217D01*
X34191Y65162D01*
X34095Y65092D01*
X34012Y65007D01*
X33943Y64911D01*
X33890Y64805D01*
X33855Y64692D01*
X33837Y64574D01*
X33838Y64456D01*
X33858Y64339D01*
X33897Y64227D01*
X33998Y63966D01*
X34072Y63695D01*
X34122Y63419D01*
X34146Y63140D01*
Y62860D01*
X34122Y62581D01*
X34072Y62305D01*
X33998Y62034D01*
X33900Y61771D01*
X33861Y61660D01*
X33841Y61544D01*
X33840Y61426D01*
X33858Y61309D01*
X33893Y61196D01*
X33946Y61091D01*
X34015Y60995D01*
X34097Y60911D01*
X34192Y60840D01*
X34297Y60786D01*
X34362Y60764D01*
X34364Y59615D01*
X34419Y59385D01*
X34510Y59167D01*
X34633Y58966D01*
X34786Y58786D01*
X34966Y58633D01*
X35167Y58510D01*
X35385Y58419D01*
X35615Y58364D01*
X35850Y58350D01*
X36768Y58352D01*
Y35831D01*
X36766Y35799D01*
X36760Y35627D01*
X36738Y35456D01*
X36737Y35454D01*
X36365Y35226D01*
X35826Y34766D01*
X35366Y34227D01*
X34996Y33623D01*
X34725Y32969D01*
X34559Y32280D01*
X34504Y31574D01*
X34559Y30868D01*
X34725Y30179D01*
X34996Y29525D01*
X35366Y28921D01*
X35826Y28382D01*
X36365Y27922D01*
X36968Y27552D01*
X37623Y27281D01*
X38312Y27116D01*
X38743Y27082D01*
Y5000D01*
X31002D01*
Y58350D01*
X31207D01*
X31620Y58387D01*
X32028Y58461D01*
X32427Y58570D01*
X32816Y58715D01*
X32921Y58768D01*
X33016Y58839D01*
X33100Y58923D01*
X33169Y59020D01*
X33221Y59126D01*
X33257Y59239D01*
X33275Y59356D01*
X33274Y59475D01*
X33254Y59592D01*
X33217Y59704D01*
X33162Y59809D01*
X33092Y59905D01*
X33007Y59988D01*
X32911Y60057D01*
X32805Y60110D01*
X32692Y60145D01*
X32574Y60163D01*
X32456Y60162D01*
X32339Y60142D01*
X32227Y60103D01*
X31966Y60002D01*
X31695Y59928D01*
X31419Y59878D01*
X31140Y59854D01*
X31002D01*
Y66146D01*
X31140D01*
X31419Y66122D01*
X31695Y66072D01*
X31966Y65998D01*
X32229Y65900D01*
X32340Y65861D01*
X32456Y65841D01*
X32574Y65840D01*
X32691Y65858D01*
X32804Y65893D01*
X32909Y65946D01*
X33005Y66015D01*
X33089Y66097D01*
X33160Y66192D01*
X33214Y66297D01*
X33251Y66409D01*
X33271Y66526D01*
X33272Y66644D01*
X33254Y66760D01*
X33219Y66873D01*
X33166Y66979D01*
X33097Y67075D01*
X33014Y67159D01*
X32919Y67229D01*
X32814Y67281D01*
X32427Y67430D01*
X32028Y67539D01*
X31620Y67613D01*
X31207Y67650D01*
X31002D01*
Y68336D01*
G37*
G36*
Y146000D02*X38743D01*
Y134828D01*
X38667Y134811D01*
X37564Y134463D01*
X36495Y134020D01*
X35469Y133486D01*
X34493Y132864D01*
X33575Y132160D01*
X32722Y131378D01*
X31940Y130525D01*
X31236Y129607D01*
X31002Y129239D01*
Y146000D01*
G37*
G36*
X27257Y70224D02*X27702Y69702D01*
X28259Y69227D01*
X28883Y68844D01*
X29559Y68564D01*
X30270Y68393D01*
X31000Y68336D01*
X31002Y68336D01*
Y67650D01*
X30793D01*
X30380Y67613D01*
X29972Y67539D01*
X29573Y67430D01*
X29184Y67285D01*
X29079Y67232D01*
X28984Y67161D01*
X28900Y67077D01*
X28831Y66980D01*
X28779Y66874D01*
X28743Y66761D01*
X28725Y66644D01*
X28726Y66525D01*
X28746Y66408D01*
X28783Y66296D01*
X28838Y66191D01*
X28908Y66095D01*
X28993Y66012D01*
X29089Y65943D01*
X29195Y65890D01*
X29308Y65855D01*
X29426Y65837D01*
X29544Y65838D01*
X29661Y65858D01*
X29773Y65897D01*
X30034Y65998D01*
X30305Y66072D01*
X30581Y66122D01*
X30860Y66146D01*
X31002D01*
Y59854D01*
X30860D01*
X30581Y59878D01*
X30305Y59928D01*
X30034Y60002D01*
X29771Y60100D01*
X29660Y60139D01*
X29544Y60159D01*
X29426Y60160D01*
X29309Y60142D01*
X29196Y60107D01*
X29091Y60054D01*
X28995Y59985D01*
X28911Y59903D01*
X28840Y59808D01*
X28786Y59703D01*
X28749Y59591D01*
X28729Y59474D01*
X28728Y59356D01*
X28746Y59240D01*
X28781Y59127D01*
X28834Y59021D01*
X28903Y58925D01*
X28986Y58841D01*
X29081Y58771D01*
X29186Y58719D01*
X29573Y58570D01*
X29972Y58461D01*
X30380Y58387D01*
X30793Y58350D01*
X31002D01*
Y5000D01*
X27257D01*
Y60740D01*
X27356Y60725D01*
X27475Y60726D01*
X27592Y60746D01*
X27704Y60783D01*
X27809Y60838D01*
X27905Y60908D01*
X27988Y60993D01*
X28057Y61089D01*
X28110Y61195D01*
X28145Y61308D01*
X28163Y61426D01*
X28162Y61544D01*
X28142Y61661D01*
X28103Y61773D01*
X28002Y62034D01*
X27928Y62305D01*
X27878Y62581D01*
X27854Y62860D01*
Y63140D01*
X27878Y63419D01*
X27928Y63695D01*
X28002Y63966D01*
X28100Y64229D01*
X28139Y64340D01*
X28159Y64456D01*
X28160Y64574D01*
X28142Y64691D01*
X28107Y64804D01*
X28054Y64909D01*
X27985Y65005D01*
X27903Y65089D01*
X27808Y65160D01*
X27703Y65214D01*
X27591Y65251D01*
X27474Y65271D01*
X27356Y65272D01*
X27257Y65257D01*
Y70224D01*
G37*
G36*
Y146000D02*X31002D01*
Y129239D01*
X30614Y128631D01*
X30080Y127605D01*
X29637Y126536D01*
X29289Y125433D01*
X29039Y124303D01*
X28888Y123156D01*
X28837Y122000D01*
X28854Y121767D01*
X28850Y121700D01*
Y78278D01*
X28769Y77940D01*
X28748Y77586D01*
X28741Y77383D01*
X28715Y77181D01*
X28682Y77032D01*
X28259Y76773D01*
X27702Y76298D01*
X27257Y75776D01*
Y146000D01*
G37*
G36*
X19991D02*X27257D01*
Y75776D01*
X27227Y75741D01*
X26844Y75117D01*
X26564Y74441D01*
X26393Y73730D01*
X26336Y73000D01*
X26393Y72270D01*
X26564Y71559D01*
X26844Y70883D01*
X27227Y70259D01*
X27257Y70224D01*
Y65257D01*
X27240Y65254D01*
X27127Y65219D01*
X27021Y65166D01*
X26925Y65097D01*
X26841Y65014D01*
X26771Y64919D01*
X26719Y64814D01*
X26570Y64427D01*
X26461Y64028D01*
X26387Y63620D01*
X26350Y63207D01*
Y62793D01*
X26387Y62380D01*
X26461Y61972D01*
X26570Y61573D01*
X26715Y61184D01*
X26768Y61079D01*
X26839Y60984D01*
X26923Y60900D01*
X27020Y60831D01*
X27126Y60779D01*
X27239Y60743D01*
X27257Y60740D01*
Y5000D01*
X19991D01*
Y37982D01*
X20000Y37981D01*
X20942Y38056D01*
X21860Y38276D01*
X22732Y38637D01*
X23538Y39131D01*
X24256Y39744D01*
X24869Y40462D01*
X25363Y41268D01*
X25724Y42140D01*
X25944Y43058D01*
X26000Y44000D01*
X25944Y44942D01*
X25724Y45860D01*
X25363Y46732D01*
X24869Y47538D01*
X24256Y48256D01*
X23538Y48869D01*
X22732Y49363D01*
X21860Y49724D01*
X20942Y49944D01*
X20000Y50019D01*
X19991Y50018D01*
Y85982D01*
X20000Y85981D01*
X20942Y86056D01*
X21860Y86276D01*
X22732Y86637D01*
X23538Y87131D01*
X24256Y87744D01*
X24869Y88462D01*
X25363Y89268D01*
X25724Y90140D01*
X25944Y91058D01*
X26000Y92000D01*
X25944Y92942D01*
X25724Y93860D01*
X25363Y94732D01*
X24869Y95538D01*
X24256Y96256D01*
X23538Y96869D01*
X22732Y97363D01*
X21860Y97724D01*
X20942Y97944D01*
X20000Y98019D01*
X19991Y98018D01*
Y113085D01*
X20017Y113073D01*
X20130Y113040D01*
X20247Y113026D01*
X20365Y113030D01*
X20481Y113053D01*
X20592Y113093D01*
X20695Y113151D01*
X20788Y113223D01*
X20869Y113310D01*
X20935Y113408D01*
X20982Y113515D01*
X21103Y113875D01*
X21187Y114245D01*
X21237Y114621D01*
X21254Y115000D01*
X21237Y115379D01*
X21187Y115755D01*
X21103Y116125D01*
X20986Y116486D01*
X20937Y116594D01*
X20871Y116692D01*
X20790Y116779D01*
X20697Y116852D01*
X20593Y116909D01*
X20482Y116950D01*
X20366Y116973D01*
X20247Y116977D01*
X20130Y116963D01*
X20016Y116930D01*
X19991Y116918D01*
Y122199D01*
X20058Y122141D01*
X20158Y122080D01*
X20268Y122035D01*
X20382Y122007D01*
X20500Y121998D01*
X20618Y122007D01*
X20732Y122035D01*
X20842Y122080D01*
X20942Y122141D01*
X21032Y122218D01*
X21109Y122308D01*
X21170Y122408D01*
X21215Y122518D01*
X21243Y122632D01*
X21250Y122750D01*
Y125250D01*
X21243Y125368D01*
X21215Y125482D01*
X21170Y125592D01*
X21109Y125692D01*
X21032Y125782D01*
X20942Y125859D01*
X20842Y125920D01*
X20732Y125965D01*
X20618Y125993D01*
X20500Y126002D01*
X20382Y125993D01*
X20268Y125965D01*
X20158Y125920D01*
X20058Y125859D01*
X19991Y125801D01*
Y131199D01*
X20058Y131141D01*
X20158Y131080D01*
X20268Y131035D01*
X20382Y131007D01*
X20500Y130998D01*
X20618Y131007D01*
X20732Y131035D01*
X20842Y131080D01*
X20942Y131141D01*
X21032Y131218D01*
X21109Y131308D01*
X21170Y131408D01*
X21215Y131518D01*
X21243Y131632D01*
X21250Y131750D01*
Y134250D01*
X21243Y134368D01*
X21215Y134482D01*
X21170Y134592D01*
X21109Y134692D01*
X21032Y134782D01*
X20942Y134859D01*
X20842Y134920D01*
X20732Y134965D01*
X20618Y134993D01*
X20500Y135002D01*
X20382Y134993D01*
X20268Y134965D01*
X20158Y134920D01*
X20058Y134859D01*
X19991Y134801D01*
Y146000D01*
G37*
G36*
X17001Y38801D02*X17268Y38637D01*
X18140Y38276D01*
X19058Y38056D01*
X19991Y37982D01*
Y5000D01*
X17001D01*
Y38801D01*
G37*
G36*
Y86801D02*X17268Y86637D01*
X18140Y86276D01*
X19058Y86056D01*
X19991Y85982D01*
Y50018D01*
X19058Y49944D01*
X18140Y49724D01*
X17268Y49363D01*
X17001Y49199D01*
Y86801D01*
G37*
G36*
Y146000D02*X19991D01*
Y134801D01*
X19968Y134782D01*
X19891Y134692D01*
X19830Y134592D01*
X19785Y134482D01*
X19757Y134368D01*
X19750Y134250D01*
Y131750D01*
X19757Y131632D01*
X19785Y131518D01*
X19830Y131408D01*
X19891Y131308D01*
X19968Y131218D01*
X19991Y131199D01*
Y125801D01*
X19968Y125782D01*
X19891Y125692D01*
X19830Y125592D01*
X19785Y125482D01*
X19757Y125368D01*
X19750Y125250D01*
Y122750D01*
X19757Y122632D01*
X19785Y122518D01*
X19830Y122408D01*
X19891Y122308D01*
X19968Y122218D01*
X19991Y122199D01*
Y116918D01*
X19908Y116880D01*
X19810Y116814D01*
X19723Y116733D01*
X19650Y116640D01*
X19593Y116536D01*
X19552Y116425D01*
X19529Y116309D01*
X19525Y116190D01*
X19539Y116073D01*
X19574Y115960D01*
X19652Y115727D01*
X19706Y115488D01*
X19739Y115245D01*
X19750Y115000D01*
X19739Y114755D01*
X19706Y114512D01*
X19652Y114273D01*
X19577Y114039D01*
X19542Y113927D01*
X19528Y113810D01*
X19532Y113692D01*
X19555Y113576D01*
X19595Y113465D01*
X19653Y113362D01*
X19725Y113269D01*
X19812Y113188D01*
X19910Y113122D01*
X19991Y113085D01*
Y98018D01*
X19058Y97944D01*
X18140Y97724D01*
X17268Y97363D01*
X17001Y97199D01*
Y110746D01*
X17379Y110763D01*
X17755Y110813D01*
X18125Y110897D01*
X18486Y111014D01*
X18594Y111063D01*
X18692Y111129D01*
X18779Y111210D01*
X18852Y111303D01*
X18909Y111407D01*
X18950Y111518D01*
X18973Y111634D01*
X18977Y111753D01*
X18963Y111870D01*
X18930Y111984D01*
X18880Y112092D01*
X18814Y112190D01*
X18733Y112277D01*
X18640Y112350D01*
X18536Y112407D01*
X18425Y112448D01*
X18309Y112471D01*
X18190Y112475D01*
X18073Y112461D01*
X17960Y112426D01*
X17727Y112348D01*
X17488Y112294D01*
X17245Y112261D01*
X17001Y112250D01*
Y117750D01*
X17245Y117739D01*
X17488Y117706D01*
X17727Y117652D01*
X17961Y117577D01*
X18073Y117542D01*
X18190Y117528D01*
X18308Y117532D01*
X18424Y117555D01*
X18535Y117595D01*
X18638Y117653D01*
X18731Y117725D01*
X18812Y117812D01*
X18878Y117910D01*
X18927Y118017D01*
X18960Y118130D01*
X18974Y118247D01*
X18970Y118365D01*
X18947Y118481D01*
X18907Y118592D01*
X18849Y118695D01*
X18777Y118788D01*
X18690Y118869D01*
X18592Y118935D01*
X18485Y118982D01*
X18125Y119103D01*
X17755Y119187D01*
X17379Y119237D01*
X17001Y119254D01*
Y119750D01*
X18250D01*
X18368Y119757D01*
X18482Y119785D01*
X18592Y119830D01*
X18692Y119891D01*
X18782Y119968D01*
X18859Y120058D01*
X18920Y120158D01*
X18965Y120268D01*
X18993Y120382D01*
X19002Y120500D01*
X18993Y120618D01*
X18965Y120732D01*
X18920Y120842D01*
X18859Y120942D01*
X18782Y121032D01*
X18692Y121109D01*
X18592Y121170D01*
X18482Y121215D01*
X18368Y121243D01*
X18250Y121250D01*
X17001D01*
Y126750D01*
X18250D01*
X18368Y126757D01*
X18482Y126785D01*
X18592Y126830D01*
X18692Y126891D01*
X18782Y126968D01*
X18859Y127058D01*
X18920Y127158D01*
X18965Y127268D01*
X18993Y127382D01*
X19002Y127500D01*
X18993Y127618D01*
X18965Y127732D01*
X18920Y127842D01*
X18859Y127942D01*
X18782Y128032D01*
X18692Y128109D01*
X18592Y128170D01*
X18482Y128215D01*
X18368Y128243D01*
X18250Y128250D01*
X17001D01*
Y128750D01*
X18250D01*
X18368Y128757D01*
X18482Y128785D01*
X18592Y128830D01*
X18692Y128891D01*
X18782Y128968D01*
X18859Y129058D01*
X18920Y129158D01*
X18965Y129268D01*
X18993Y129382D01*
X19002Y129500D01*
X18993Y129618D01*
X18965Y129732D01*
X18920Y129842D01*
X18859Y129942D01*
X18782Y130032D01*
X18692Y130109D01*
X18592Y130170D01*
X18482Y130215D01*
X18368Y130243D01*
X18250Y130250D01*
X17001D01*
Y135750D01*
X18250D01*
X18368Y135757D01*
X18482Y135785D01*
X18592Y135830D01*
X18692Y135891D01*
X18782Y135968D01*
X18859Y136058D01*
X18920Y136158D01*
X18965Y136268D01*
X18993Y136382D01*
X19002Y136500D01*
X18993Y136618D01*
X18965Y136732D01*
X18920Y136842D01*
X18859Y136942D01*
X18782Y137032D01*
X18692Y137109D01*
X18592Y137170D01*
X18482Y137215D01*
X18368Y137243D01*
X18250Y137250D01*
X17001D01*
Y146000D01*
G37*
G36*
X13610D02*X17001D01*
Y137250D01*
X15750D01*
X15632Y137243D01*
X15518Y137215D01*
X15408Y137170D01*
X15308Y137109D01*
X15218Y137032D01*
X15141Y136942D01*
X15080Y136842D01*
X15035Y136732D01*
X15007Y136618D01*
X14998Y136500D01*
X15007Y136382D01*
X15035Y136268D01*
X15080Y136158D01*
X15141Y136058D01*
X15218Y135968D01*
X15308Y135891D01*
X15408Y135830D01*
X15518Y135785D01*
X15632Y135757D01*
X15750Y135750D01*
X17001D01*
Y130250D01*
X15750D01*
X15632Y130243D01*
X15518Y130215D01*
X15408Y130170D01*
X15308Y130109D01*
X15218Y130032D01*
X15141Y129942D01*
X15080Y129842D01*
X15035Y129732D01*
X15007Y129618D01*
X14998Y129500D01*
X15007Y129382D01*
X15035Y129268D01*
X15080Y129158D01*
X15141Y129058D01*
X15218Y128968D01*
X15308Y128891D01*
X15408Y128830D01*
X15518Y128785D01*
X15632Y128757D01*
X15750Y128750D01*
X17001D01*
Y128250D01*
X15750D01*
X15632Y128243D01*
X15518Y128215D01*
X15408Y128170D01*
X15308Y128109D01*
X15218Y128032D01*
X15141Y127942D01*
X15080Y127842D01*
X15035Y127732D01*
X15007Y127618D01*
X14998Y127500D01*
X15007Y127382D01*
X15035Y127268D01*
X15080Y127158D01*
X15141Y127058D01*
X15218Y126968D01*
X15308Y126891D01*
X15408Y126830D01*
X15518Y126785D01*
X15632Y126757D01*
X15750Y126750D01*
X17001D01*
Y121250D01*
X15750D01*
X15632Y121243D01*
X15518Y121215D01*
X15408Y121170D01*
X15308Y121109D01*
X15218Y121032D01*
X15141Y120942D01*
X15080Y120842D01*
X15035Y120732D01*
X15007Y120618D01*
X14998Y120500D01*
X15007Y120382D01*
X15035Y120268D01*
X15080Y120158D01*
X15141Y120058D01*
X15218Y119968D01*
X15308Y119891D01*
X15408Y119830D01*
X15518Y119785D01*
X15632Y119757D01*
X15750Y119750D01*
X17001D01*
Y119254D01*
X17000Y119254D01*
X16621Y119237D01*
X16245Y119187D01*
X15875Y119103D01*
X15514Y118986D01*
X15406Y118937D01*
X15308Y118871D01*
X15221Y118790D01*
X15148Y118697D01*
X15091Y118593D01*
X15050Y118482D01*
X15027Y118366D01*
X15023Y118247D01*
X15037Y118130D01*
X15070Y118016D01*
X15120Y117908D01*
X15186Y117810D01*
X15267Y117723D01*
X15360Y117650D01*
X15464Y117593D01*
X15575Y117552D01*
X15691Y117529D01*
X15810Y117525D01*
X15927Y117539D01*
X16040Y117574D01*
X16273Y117652D01*
X16512Y117706D01*
X16755Y117739D01*
X17000Y117750D01*
X17001Y117750D01*
Y112250D01*
X17000Y112250D01*
X16755Y112261D01*
X16512Y112294D01*
X16273Y112348D01*
X16039Y112423D01*
X15927Y112458D01*
X15810Y112472D01*
X15692Y112468D01*
X15576Y112445D01*
X15465Y112405D01*
X15362Y112347D01*
X15269Y112275D01*
X15188Y112188D01*
X15122Y112090D01*
X15073Y111983D01*
X15040Y111870D01*
X15026Y111753D01*
X15030Y111635D01*
X15053Y111519D01*
X15093Y111408D01*
X15150Y111305D01*
X15223Y111212D01*
X15310Y111131D01*
X15408Y111065D01*
X15515Y111018D01*
X15875Y110897D01*
X16245Y110813D01*
X16621Y110763D01*
X17000Y110746D01*
X17001Y110746D01*
Y97199D01*
X16462Y96869D01*
X15744Y96256D01*
X15131Y95538D01*
X14637Y94732D01*
X14276Y93860D01*
X14056Y92942D01*
X13981Y92000D01*
X14056Y91058D01*
X14276Y90140D01*
X14637Y89268D01*
X15131Y88462D01*
X15744Y87744D01*
X16462Y87131D01*
X17001Y86801D01*
Y49199D01*
X16462Y48869D01*
X15744Y48256D01*
X15131Y47538D01*
X14637Y46732D01*
X14276Y45860D01*
X14056Y44942D01*
X13981Y44000D01*
X14056Y43058D01*
X14276Y42140D01*
X14637Y41268D01*
X15131Y40462D01*
X15744Y39744D01*
X16462Y39131D01*
X17001Y38801D01*
Y5000D01*
X13610D01*
Y113032D01*
X13634Y113027D01*
X13753Y113023D01*
X13870Y113037D01*
X13984Y113070D01*
X14092Y113120D01*
X14190Y113186D01*
X14277Y113267D01*
X14350Y113360D01*
X14407Y113464D01*
X14448Y113575D01*
X14471Y113691D01*
X14475Y113810D01*
X14461Y113927D01*
X14426Y114040D01*
X14348Y114273D01*
X14294Y114512D01*
X14261Y114755D01*
X14250Y115000D01*
X14261Y115245D01*
X14294Y115488D01*
X14348Y115727D01*
X14423Y115961D01*
X14458Y116073D01*
X14472Y116190D01*
X14468Y116308D01*
X14445Y116424D01*
X14405Y116535D01*
X14347Y116638D01*
X14275Y116731D01*
X14188Y116812D01*
X14090Y116878D01*
X13983Y116927D01*
X13870Y116960D01*
X13753Y116974D01*
X13635Y116970D01*
X13610Y116965D01*
Y122006D01*
X13618Y122007D01*
X13732Y122035D01*
X13842Y122080D01*
X13942Y122141D01*
X14032Y122218D01*
X14109Y122308D01*
X14170Y122408D01*
X14215Y122518D01*
X14243Y122632D01*
X14250Y122750D01*
Y125250D01*
X14243Y125368D01*
X14215Y125482D01*
X14170Y125592D01*
X14109Y125692D01*
X14032Y125782D01*
X13942Y125859D01*
X13842Y125920D01*
X13732Y125965D01*
X13618Y125993D01*
X13610Y125994D01*
Y131006D01*
X13618Y131007D01*
X13732Y131035D01*
X13842Y131080D01*
X13942Y131141D01*
X14032Y131218D01*
X14109Y131308D01*
X14170Y131408D01*
X14215Y131518D01*
X14243Y131632D01*
X14250Y131750D01*
Y134250D01*
X14243Y134368D01*
X14215Y134482D01*
X14170Y134592D01*
X14109Y134692D01*
X14032Y134782D01*
X13942Y134859D01*
X13842Y134920D01*
X13732Y134965D01*
X13618Y134993D01*
X13610Y134994D01*
Y146000D01*
G37*
G36*
X5000D02*X13610D01*
Y134994D01*
X13500Y135002D01*
X13382Y134993D01*
X13268Y134965D01*
X13158Y134920D01*
X13058Y134859D01*
X12968Y134782D01*
X12891Y134692D01*
X12830Y134592D01*
X12785Y134482D01*
X12757Y134368D01*
X12750Y134250D01*
Y131750D01*
X12757Y131632D01*
X12785Y131518D01*
X12830Y131408D01*
X12891Y131308D01*
X12968Y131218D01*
X13058Y131141D01*
X13158Y131080D01*
X13268Y131035D01*
X13382Y131007D01*
X13500Y130998D01*
X13610Y131006D01*
Y125994D01*
X13500Y126002D01*
X13382Y125993D01*
X13268Y125965D01*
X13158Y125920D01*
X13058Y125859D01*
X12968Y125782D01*
X12891Y125692D01*
X12830Y125592D01*
X12785Y125482D01*
X12757Y125368D01*
X12750Y125250D01*
Y122750D01*
X12757Y122632D01*
X12785Y122518D01*
X12830Y122408D01*
X12891Y122308D01*
X12968Y122218D01*
X13058Y122141D01*
X13158Y122080D01*
X13268Y122035D01*
X13382Y122007D01*
X13500Y121998D01*
X13610Y122006D01*
Y116965D01*
X13519Y116947D01*
X13408Y116907D01*
X13305Y116849D01*
X13212Y116777D01*
X13131Y116690D01*
X13065Y116592D01*
X13018Y116485D01*
X12897Y116125D01*
X12813Y115755D01*
X12763Y115379D01*
X12746Y115000D01*
X12763Y114621D01*
X12813Y114245D01*
X12897Y113875D01*
X13014Y113514D01*
X13063Y113406D01*
X13129Y113308D01*
X13210Y113221D01*
X13303Y113148D01*
X13407Y113091D01*
X13518Y113050D01*
X13610Y113032D01*
Y5000D01*
X5000D01*
Y146000D01*
G37*
G54D19*X165170Y44170D02*Y52902D01*
G54D20*X160000Y78000D02*Y91000D01*
G54D19*X150159Y112841D02*Y101483D01*
X145170Y96494D02*Y82902D01*
G54D20*X169369Y67000D02*X231500D01*
X180269Y88000D02*X219000D01*
X175170Y82902D02*X176300Y84031D01*
Y86000D01*
X217224Y104046D02*X217000Y104270D01*
X225100Y112000D02*X241000D01*
X227224Y96224D02*Y104046D01*
X173046D02*X217224D01*
G54D19*X180072Y48000D02*X198000D01*
X201700Y49700D02*X205100D01*
X201500Y50600D02*X204900D01*
X65000Y124000D02*X50000D01*
X64800Y133000D02*X42100D01*
X57000Y115000D02*X57600Y114400D01*
Y111700D01*
X68139Y41139D02*Y47914D01*
X67000Y105000D02*X85000D01*
X39000Y113000D02*Y73000D01*
X47000D01*
X61914Y87914D02*X68139D01*
X31100Y121700D02*Y73700D01*
G54D20*X135000Y53072D02*Y61000D01*
X142000Y68000D02*X150000D01*
G54D19*X49592Y31000D02*X58000D01*
X168000Y15000D02*X56000D01*
X49296Y21704D02*Y31296D01*
X107000Y22278D02*X106978Y22300D01*
X102900D01*
X39018Y62982D02*Y31574D01*
X175170Y52902D02*Y22170D01*
X145170Y34856D02*Y52902D01*
X95170D02*X95200Y52872D01*
Y48700D01*
X85000Y30000D02*Y38500D01*
X125170Y90830D02*Y82902D01*
X95170Y104830D02*Y82902D01*
X115170Y90630D02*Y82702D01*
X130159Y112841D02*Y101483D01*
X119500Y96900D02*Y118300D01*
X115170Y120130D02*Y90270D01*
X135170Y96472D02*Y82902D01*
X119500Y118100D02*Y119100D01*
Y126300D02*Y117900D01*
X105000Y124000D02*X111300D01*
X105000Y133000D02*X114900D01*
X119500Y128400D02*Y125500D01*
G54D20*X198000Y22027D02*X198027Y22000D01*
X227000D01*
X198000Y37000D02*X191000D01*
Y15000D02*X235000D01*
G54D19*X203433Y56570D02*X203863Y57000D01*
X213000D01*
X194000Y48000D02*X213700D01*
G54D20*X264000Y68000D02*X257000D01*
X252000Y71500D02*Y66636D01*
X257000Y61636D01*
X247000Y68000D02*X252000Y63000D01*
X257000Y96000D02*Y78000D01*
X183000Y29000D02*Y23000D01*
G54D19*X239000Y58000D02*X247000D01*
G54D20*X267000Y47000D02*Y64900D01*
X252000Y63000D02*Y47000D01*
X257000Y61636D02*Y58000D01*
X237200Y73000D02*X250600D01*
G54D19*X227000Y36000D02*Y46000D01*
X217000Y36000D02*Y44800D01*
G54D20*X252000Y71500D02*G75*G03X250500Y73000I-1500J0D01*G01*
X257000Y96100D02*G75*G03X241100Y112000I-15900J0D01*G01*
X219000Y88000D02*G75*G03X227224Y96224I0J8224D01*G01*
G54D19*X213000Y57000D02*G75*G03X218000Y62000I0J5000D01*G01*
G54D20*X237300Y73000D02*G75*G03X233900Y69600I0J-3400D01*G01*
X231300Y67000D02*G75*G03X233900Y69600I0J2600D01*G01*
X267000Y64900D02*G75*G03X263900Y68000I-3100J0D01*G01*
X235000Y15000D02*G75*G03X267000Y47000I0J32000D01*G01*
X227000Y22000D02*G75*G03X252000Y47000I0J25000D01*G01*
G54D19*X238900Y58000D02*G75*G03X227000Y46100I0J-11900D01*G01*
G54D20*X225179Y112000D02*G75*G03X217224Y104046I0J-7954D01*G01*
G54D19*X217000Y44700D02*G75*G03X213700Y48000I-3300J0D01*G01*
X80775Y105000D02*G75*G03X83763Y106237I0J4225D01*G01*
X83763Y103763D02*G75*G03X80775Y105000I-2987J-2987D01*G01*
X150159Y105104D02*G75*G03X151219Y102543I3621J0D01*G01*
X149098Y102543D02*G75*G03X150159Y105104I-2561J2561D01*G01*
X130159D02*G75*G03X131219Y102543I3621J0D01*G01*
X129098Y102543D02*G75*G03X130159Y105104I-2561J2561D01*G01*
X68139Y44293D02*G75*G03X67079Y46854I-3621J0D01*G01*
X69200Y46854D02*G75*G03X68139Y44293I2561J-2561D01*G01*
X39018Y35799D02*G75*G03X40255Y32811I4225J0D01*G01*
X37780Y32811D02*G75*G03X39018Y35799I-2987J2987D01*G01*
X37657Y74343D02*G75*G03X39000Y77586I-3243J3243D01*G01*
X43586Y73000D02*G75*G03X40343Y71657I0J-4586D01*G01*
X40343Y74343D02*G75*G03X43586Y73000I3243J3243D01*G01*
X95000Y30000D02*G75*G03X102700Y22300I7700J0D01*G01*
X90400Y43900D02*G75*G03X95200Y48700I0J4800D01*G01*
X90400Y43900D02*G75*G03X85000Y38500I0J-5400D01*G01*
X57900Y31000D02*G75*G03X68100Y41200I0J10200D01*G01*
X49300Y21700D02*G75*G03X56000Y15000I6700J0D01*G01*
X145170Y87126D02*G75*G03X146407Y84139I4225J0D01*G01*
X143933Y84139D02*G75*G03X145170Y87126I-2987J2987D01*G01*
X135170D02*G75*G03X136407Y84139I4225J0D01*G01*
X133933Y84139D02*G75*G03X135170Y87126I-2987J2987D01*G01*
G54D20*X142000Y68000D02*G75*G03X135000Y61000I0J-7000D01*G01*
G54D19*X150159Y101483D02*G75*G03X145200Y96524I0J-4959D01*G01*
X135100Y96442D02*G75*G03X130159Y101383I-4941J0D01*G01*
X125100Y91300D02*G75*G03X122200Y94200I-2900J0D01*G01*
X119500Y96700D02*G75*G03X122000Y94200I2500J0D01*G01*
X125170Y87126D02*G75*G03X126407Y84139I4225J0D01*G01*
X123933Y84139D02*G75*G03X125170Y87126I-2987J2987D01*G01*
X113933Y84139D02*G75*G03X115170Y87126I-2987J2987D01*G01*
G75*G03X116407Y84139I4225J0D01*G01*
X119500Y128400D02*G75*G03X114900Y133000I-4600J0D01*G01*
X115100Y120200D02*G75*G03X111300Y124000I-3800J0D01*G01*
X31000Y77586D02*G75*G03X32343Y74343I4586J0D01*G01*
X29657Y74343D02*G75*G03X31000Y77586I-3243J3243D01*G01*
X39000D02*G75*G03X40343Y74343I4586J0D01*G01*
X61379Y124000D02*G75*G03X63939Y125061I0J3621D01*G01*
X63939Y122939D02*G75*G03X61379Y124000I-2561J-2561D01*G01*
Y133000D02*G75*G03X63939Y134061I0J3621D01*G01*
X63939Y131939D02*G75*G03X61379Y133000I-2561J-2561D01*G01*
X57000Y115100D02*G75*G03X67100Y105000I10100J0D01*G01*
X50000Y124000D02*G75*G03X39000Y113000I0J-11000D01*G01*
X42100Y133000D02*G75*G03X31100Y122000I0J-11000D01*G01*
X47100Y73000D02*G75*G03X53500Y79400I0J6400D01*G01*
X62000Y87900D02*G75*G03X53500Y79400I0J-8500D01*G01*
G54D20*X173046Y104046D02*G75*G03X160000Y91000I0J-13046D01*G01*
X180269Y88000D02*G75*G03X175170Y82902I0J-5098D01*G01*
X149900Y68000D02*G75*G03X160000Y78100I0J10100D01*G01*
X169500Y67000D02*G75*G03X155170Y52670I0J-14330D01*G01*
G54D19*X158000Y37000D02*G75*G03X165100Y44100I0J7100D01*G01*
G54D20*X191000Y37000D02*G75*G03X183000Y29000I0J-8000D01*G01*
Y23000D02*G75*G03X191000Y15000I8000J0D01*G01*
G54D19*X158000Y22027D02*G75*G03X150527Y29500I-7473J0D01*G01*
X145200Y34927D02*G75*G03X150627Y29500I5427J0D01*G01*
X168000Y15000D02*G75*G03X175200Y22200I0J7200D01*G01*
X175170Y52902D02*G75*G03X180072Y48000I4902J0D01*G01*
X194763Y47900D02*G75*G03X203433Y56570I0J8670D01*G01*
G75*G03X212002Y48000I8570J0D01*G01*
X180072D02*G75*G03X175200Y43128I0J-4872D01*G01*
G54D20*X186270Y129390D02*Y132000D01*
Y129390D02*X187140Y128520D01*
X188010D01*
X188880Y129390D01*
Y132000D01*
Y129390D02*X189750Y128520D01*
X190620D01*
X191490Y129390D01*
Y132000D01*
X185400Y128520D02*X186270Y129390D01*
X193578Y131130D02*X194448Y132000D01*
X193578Y125910D02*Y131130D01*
Y125910D02*X194448Y125040D01*
X196188D01*
X197058Y125910D01*
Y131130D01*
X196188Y132000D02*X197058Y131130D01*
X194448Y132000D02*X196188D01*
X193578Y130260D02*X197058Y126780D01*
X200016Y129390D02*Y132000D01*
Y129390D02*X200886Y128520D01*
X201756D01*
X202626Y129390D01*
Y132000D01*
X199146Y128520D02*X200016Y129390D01*
X204714Y125040D02*X208194D01*
X204714D02*Y128520D01*
X205584Y127650D01*
X207324D01*
X208194Y128520D01*
Y131130D01*
X207324Y132000D02*X208194Y131130D01*
X205584Y132000D02*X207324D01*
X204714Y131130D02*X205584Y132000D01*
X211152Y125040D02*Y131130D01*
X212022Y132000D01*
X210282Y127650D02*X212022D01*
X213762Y125910D02*X214632Y125040D01*
X216372D01*
X217242Y125910D01*
X216372Y132000D02*X217242Y131130D01*
X214632Y132000D02*X216372D01*
X213762Y131130D02*X214632Y132000D01*
Y128172D02*X216372D01*
X217242Y125910D02*Y127302D01*
Y129042D02*Y131130D01*
Y129042D02*X216372Y128172D01*
X217242Y127302D02*X216372Y128172D01*
X220200Y129390D02*Y132000D01*
Y129390D02*X221070Y128520D01*
X222810D01*
X219330D02*X220200Y129390D01*
X228900Y125040D02*Y131130D01*
X229770Y132000D01*
X228030Y127650D02*X229770D01*
X231510Y126780D02*Y126954D01*
Y129390D02*Y132000D01*
X234120Y129390D02*Y132000D01*
Y129390D02*X234990Y128520D01*
X235860D01*
X236730Y129390D01*
Y132000D01*
X233250Y128520D02*X234120Y129390D01*
X238818Y128520D02*Y131130D01*
X239688Y132000D01*
X242298Y128520D02*Y133740D01*
X241428Y134610D02*X242298Y133740D01*
X239688Y134610D02*X241428D01*
X238818Y133740D02*X239688Y134610D01*
Y132000D02*X241428D01*
X242298Y131130D01*
X244386Y125040D02*X246126D01*
X245256D02*Y132000D01*
X244386D02*X246126D01*
X251694Y125040D02*X252564Y125910D01*
X249084Y125040D02*X251694D01*
X248214Y125910D02*X249084Y125040D01*
X248214Y125910D02*Y127650D01*
X249084Y128520D01*
X251694D01*
X252564Y129390D01*
Y131130D01*
X251694Y132000D02*X252564Y131130D01*
X249084Y132000D02*X251694D01*
X248214Y131130D02*X249084Y132000D01*
X255522Y125040D02*Y132000D01*
X254652Y125040D02*X258132D01*
X259002Y125910D01*
Y127650D01*
X258132Y128520D02*X259002Y127650D01*
X255522Y128520D02*X258132D01*
G54D21*X68139Y47914D03*
G54D22*X49018Y31574D03*
X39018D03*
G54D18*G36*
X35850Y66150D02*Y59850D01*
X42150D01*
Y66150D01*
X35850D01*
G37*
G36*
X82000Y33000D02*Y27000D01*
X88000D01*
Y33000D01*
X82000D01*
G37*
G54D22*X85000Y105000D03*
X85170Y82902D03*
Y52902D03*
X95000Y30000D03*
G54D18*G36*
X92000Y108000D02*Y102000D01*
X98000D01*
Y108000D01*
X92000D01*
G37*
G54D22*X95170Y82902D03*
Y52902D03*
G54D23*X39000Y73000D03*
X31000D03*
Y63000D03*
G54D22*X227000Y36000D03*
X217000D03*
X217224Y104046D03*
G54D18*G36*
X215000Y65000D02*Y59000D01*
X221000D01*
Y65000D01*
X215000D01*
G37*
G54D22*X218000Y72000D03*
X227224Y104046D03*
G54D18*G36*
X254000Y61000D02*Y55000D01*
X260000D01*
Y61000D01*
X254000D01*
G37*
G54D22*X247000Y58000D03*
X257000Y68000D03*
X247000D03*
X257000Y78000D03*
X247000D03*
G54D18*G36*
X172170Y85902D02*Y79902D01*
X178170D01*
Y85902D01*
X172170D01*
G37*
G54D22*X165170Y82902D03*
X155170D03*
X145170D03*
X135170D03*
G54D21*X68139Y87914D03*
X57000Y115000D03*
Y133000D03*
Y124000D03*
X65000D03*
Y133000D03*
X17000Y115000D03*
G54D18*G36*
X14250Y135750D02*Y130250D01*
X19750D01*
Y135750D01*
X14250D01*
G37*
G36*
Y126750D02*Y121250D01*
X19750D01*
Y126750D01*
X14250D01*
G37*
G54D21*X105000Y124000D03*
Y133000D03*
X150000D03*
X150159Y101483D03*
X150000Y113000D03*
X130000D03*
Y133000D03*
X130159Y101483D03*
G54D22*X125170Y82902D03*
X115170D03*
X105170D03*
Y52902D03*
X115170D03*
X125170D03*
X135170D03*
G54D21*X107000Y22278D03*
G54D22*X145170Y52902D03*
X155170D03*
X165170D03*
X175170D03*
G54D21*X158000Y37000D03*
X198000D03*
X158000Y22027D03*
X198000D03*
X194000Y48000D03*
X147000Y22278D03*
X194000Y88000D03*
X203433Y56570D03*
Y76570D03*
G54D24*G54D25*G54D24*G54D25*G54D24*M02*
