G04 start of page 9 for group -3984 idx -3984 *
G04 Title: m0n5t3r tinyISP, fab *
G04 Creator: pcb 1.99z *
G04 CreationDate: Mon 28 Apr 2014 05:03:51 PM GMT UTC *
G04 For: iacobs *
G04 Format: Gerber/RS-274X *
G04 PCB-Dimensions (mil): 2790.00 1510.00 *
G04 PCB-Coordinate-Origin: lower left *
%MOIN*%
%FSLAX25Y25*%
%LNFAB*%
%ADD46C,0.0100*%
%ADD45C,0.0075*%
%ADD44C,0.0060*%
%ADD43C,0.0080*%
G54D43*X18800Y93200D02*X21200Y90800D01*
X18800D02*X21200Y93200D01*
X18800Y45200D02*X21200Y42800D01*
X18800D02*X21200Y45200D01*
X13800Y178450D02*X16200Y176050D01*
X13800D02*X16200Y178450D01*
G54D44*X140000Y179500D02*Y173500D01*
Y179500D02*X143750Y173500D01*
Y179500D02*Y173500D01*
X145550Y178750D02*Y174250D01*
Y178750D02*X146300Y179500D01*
X147800D01*
X148550Y178750D01*
Y174250D01*
X147800Y173500D02*X148550Y174250D01*
X146300Y173500D02*X147800D01*
X145550Y174250D02*X146300Y173500D01*
X98000Y178750D02*X98750Y179500D01*
X101000D01*
X101750Y178750D01*
Y177250D01*
X98000Y173500D02*X101750Y177250D01*
X98000Y173500D02*X101750D01*
X45000Y174250D02*X45750Y173500D01*
X45000Y178750D02*Y174250D01*
Y178750D02*X45750Y179500D01*
X47250D01*
X48000Y178750D01*
Y174250D01*
X47250Y173500D02*X48000Y174250D01*
X45750Y173500D02*X47250D01*
X45000Y175000D02*X48000Y178000D01*
X49800Y173500D02*X50550D01*
X52350Y174250D02*X53100Y173500D01*
X52350Y178750D02*Y174250D01*
Y178750D02*X53100Y179500D01*
X54600D01*
X55350Y178750D01*
Y174250D01*
X54600Y173500D02*X55350Y174250D01*
X53100Y173500D02*X54600D01*
X52350Y175000D02*X55350Y178000D01*
X57900Y173500D02*X60150Y176500D01*
Y178750D02*Y176500D01*
X59400Y179500D02*X60150Y178750D01*
X57900Y179500D02*X59400D01*
X57150Y178750D02*X57900Y179500D01*
X57150Y178750D02*Y177250D01*
X57900Y176500D01*
X60150D01*
X61950Y174250D02*X62700Y173500D01*
X61950Y178750D02*Y174250D01*
Y178750D02*X62700Y179500D01*
X64200D01*
X64950Y178750D01*
Y174250D01*
X64200Y173500D02*X64950Y174250D01*
X62700Y173500D02*X64200D01*
X61950Y175000D02*X64950Y178000D01*
X68139Y49514D02*Y46314D01*
X66539Y47914D02*X69739D01*
X68139Y89514D02*Y86314D01*
X66539Y87914D02*X69739D01*
X227000Y37600D02*Y34400D01*
X225400Y36000D02*X228600D01*
X217000Y37600D02*Y34400D01*
X215400Y36000D02*X218600D01*
X49018Y33174D02*Y29974D01*
X47418Y31574D02*X50618D01*
X39018Y33174D02*Y29974D01*
X37418Y31574D02*X40618D01*
X217224Y105646D02*Y102446D01*
X215624Y104046D02*X218824D01*
X227224Y105646D02*Y102446D01*
X225624Y104046D02*X228824D01*
X85000Y31600D02*Y28400D01*
X83400Y30000D02*X86600D01*
X95000Y31600D02*Y28400D01*
X93400Y30000D02*X96600D01*
X257000Y59600D02*Y56400D01*
X255400Y58000D02*X258600D01*
X247000Y59600D02*Y56400D01*
X245400Y58000D02*X248600D01*
X257000Y69600D02*Y66400D01*
X255400Y68000D02*X258600D01*
X247000Y69600D02*Y66400D01*
X245400Y68000D02*X248600D01*
X257000Y79600D02*Y76400D01*
X255400Y78000D02*X258600D01*
X247000Y79600D02*Y76400D01*
X245400Y78000D02*X248600D01*
X95000Y106600D02*Y103400D01*
X93400Y105000D02*X96600D01*
X85000Y106600D02*Y103400D01*
X83400Y105000D02*X86600D01*
X57000Y116600D02*Y113400D01*
X55400Y115000D02*X58600D01*
X17000Y116600D02*Y113400D01*
X15400Y115000D02*X18600D01*
X39000Y64600D02*Y61400D01*
X37400Y63000D02*X40600D01*
X39000Y74600D02*Y71400D01*
X37400Y73000D02*X40600D01*
X31000Y74600D02*Y71400D01*
X29400Y73000D02*X32600D01*
X31000Y64600D02*Y61400D01*
X29400Y63000D02*X32600D01*
X175170Y84502D02*Y81302D01*
X173570Y82902D02*X176770D01*
X165170Y84502D02*Y81302D01*
X163570Y82902D02*X166770D01*
X155170Y84502D02*Y81302D01*
X153570Y82902D02*X156770D01*
X145170Y84502D02*Y81302D01*
X143570Y82902D02*X146770D01*
X135170Y84502D02*Y81302D01*
X133570Y82902D02*X136770D01*
X125170Y84502D02*Y81302D01*
X123570Y82902D02*X126770D01*
X115170Y84502D02*Y81302D01*
X113570Y82902D02*X116770D01*
X105170Y84502D02*Y81302D01*
X103570Y82902D02*X106770D01*
X95170Y84502D02*Y81302D01*
X93570Y82902D02*X96770D01*
X85170Y84502D02*Y81302D01*
X83570Y82902D02*X86770D01*
X85170Y54502D02*Y51302D01*
X83570Y52902D02*X86770D01*
X95170Y54502D02*Y51302D01*
X93570Y52902D02*X96770D01*
X105170Y54502D02*Y51302D01*
X103570Y52902D02*X106770D01*
X115170Y54502D02*Y51302D01*
X113570Y52902D02*X116770D01*
X125170Y54502D02*Y51302D01*
X123570Y52902D02*X126770D01*
X135170Y54502D02*Y51302D01*
X133570Y52902D02*X136770D01*
X145170Y54502D02*Y51302D01*
X143570Y52902D02*X146770D01*
X155170Y54502D02*Y51302D01*
X153570Y52902D02*X156770D01*
X165170Y54502D02*Y51302D01*
X163570Y52902D02*X166770D01*
X175170Y54502D02*Y51302D01*
X173570Y52902D02*X176770D01*
X17000Y134600D02*Y131400D01*
X15400Y133000D02*X18600D01*
X57000Y134600D02*Y131400D01*
X55400Y133000D02*X58600D01*
X17000Y125600D02*Y122400D01*
X15400Y124000D02*X18600D01*
X57000Y125600D02*Y122400D01*
X55400Y124000D02*X58600D01*
X105000Y125600D02*Y122400D01*
X103400Y124000D02*X106600D01*
X65000Y125600D02*Y122400D01*
X63400Y124000D02*X66600D01*
X158000Y38600D02*Y35400D01*
X156400Y37000D02*X159600D01*
X198000Y38600D02*Y35400D01*
X196400Y37000D02*X199600D01*
X158000Y23627D02*Y20427D01*
X156400Y22027D02*X159600D01*
X198000Y23627D02*Y20427D01*
X196400Y22027D02*X199600D01*
X107000Y23878D02*Y20678D01*
X105400Y22278D02*X108600D01*
X147000Y23878D02*Y20678D01*
X145400Y22278D02*X148600D01*
X194000Y49600D02*Y46400D01*
X192400Y48000D02*X195600D01*
X194000Y89600D02*Y86400D01*
X192400Y88000D02*X195600D01*
X203433Y58170D02*Y54970D01*
X201833Y56570D02*X205033D01*
X203433Y78170D02*Y74970D01*
X201833Y76570D02*X205033D01*
X218000Y63600D02*Y60400D01*
X216400Y62000D02*X219600D01*
X218000Y73600D02*Y70400D01*
X216400Y72000D02*X219600D01*
X150000Y134600D02*Y131400D01*
X148400Y133000D02*X151600D01*
X150000Y114600D02*Y111400D01*
X148400Y113000D02*X151600D01*
X130000Y134600D02*Y131400D01*
X128400Y133000D02*X131600D01*
X130000Y114600D02*Y111400D01*
X128400Y113000D02*X131600D01*
X150159Y103083D02*Y99883D01*
X148559Y101483D02*X151759D01*
X130159Y103083D02*Y99883D01*
X128559Y101483D02*X131759D01*
X105000Y134600D02*Y131400D01*
X103400Y133000D02*X106600D01*
X65000Y134600D02*Y131400D01*
X63400Y133000D02*X66600D01*
X276200Y148200D02*Y146600D01*
Y148200D02*X277587Y149000D01*
X276200Y148200D02*X274813Y149000D01*
X276200Y2800D02*Y1200D01*
Y2800D02*X277587Y3600D01*
X276200Y2800D02*X274813Y3600D01*
X2900Y2900D02*Y1300D01*
Y2900D02*X4287Y3700D01*
X2900Y2900D02*X1513Y3700D01*
X2800Y148100D02*Y146500D01*
Y148100D02*X4187Y148900D01*
X2800Y148100D02*X1413Y148900D01*
X15000Y193850D02*Y190650D01*
X13400Y192250D02*X16600D01*
X135000Y194500D02*X136500Y191500D01*
X138000Y194500D01*
X136500Y191500D02*Y188500D01*
X139800Y191800D02*X142050D01*
X139800Y188500D02*X142800D01*
X139800Y194500D02*Y188500D01*
Y194500D02*X142800D01*
X147600D02*X148350Y193750D01*
X145350Y194500D02*X147600D01*
X144600Y193750D02*X145350Y194500D01*
X144600Y193750D02*Y192250D01*
X145350Y191500D01*
X147600D01*
X148350Y190750D01*
Y189250D01*
X147600Y188500D02*X148350Y189250D01*
X145350Y188500D02*X147600D01*
X144600Y189250D02*X145350Y188500D01*
X98750D02*X101750Y194500D01*
X98000D02*X101750D01*
X103550Y189250D02*X104300Y188500D01*
X103550Y193750D02*Y189250D01*
Y193750D02*X104300Y194500D01*
X105800D01*
X106550Y193750D01*
Y189250D01*
X105800Y188500D02*X106550Y189250D01*
X104300Y188500D02*X105800D01*
X103550Y190000D02*X106550Y193000D01*
X15000Y207250D02*Y205650D01*
Y207250D02*X16387Y208050D01*
X15000Y207250D02*X13613Y208050D01*
X140000Y209500D02*Y203500D01*
Y209500D02*X143750Y203500D01*
Y209500D02*Y203500D01*
X145550Y208750D02*Y204250D01*
Y208750D02*X146300Y209500D01*
X147800D01*
X148550Y208750D01*
Y204250D01*
X147800Y203500D02*X148550Y204250D01*
X146300Y203500D02*X147800D01*
X145550Y204250D02*X146300Y203500D01*
X98000Y205750D02*X101000Y209500D01*
X98000Y205750D02*X101750D01*
X101000Y209500D02*Y203500D01*
X45000Y204250D02*X45750Y203500D01*
X45000Y208750D02*Y204250D01*
Y208750D02*X45750Y209500D01*
X47250D01*
X48000Y208750D01*
Y204250D01*
X47250Y203500D02*X48000Y204250D01*
X45750Y203500D02*X47250D01*
X45000Y205000D02*X48000Y208000D01*
X49800Y203500D02*X50550D01*
X52350Y204250D02*X53100Y203500D01*
X52350Y208750D02*Y204250D01*
Y208750D02*X53100Y209500D01*
X54600D01*
X55350Y208750D01*
Y204250D01*
X54600Y203500D02*X55350Y204250D01*
X53100Y203500D02*X54600D01*
X52350Y205000D02*X55350Y208000D01*
X57150Y208750D02*X57900Y209500D01*
X60150D01*
X60900Y208750D01*
Y207250D01*
X57150Y203500D02*X60900Y207250D01*
X57150Y203500D02*X60900D01*
X62700Y204250D02*X63450Y203500D01*
X62700Y205450D02*Y204250D01*
Y205450D02*X63750Y206500D01*
X64650D01*
X65700Y205450D01*
Y204250D01*
X64950Y203500D02*X65700Y204250D01*
X63450Y203500D02*X64950D01*
X62700Y207550D02*X63750Y206500D01*
X62700Y208750D02*Y207550D01*
Y208750D02*X63450Y209500D01*
X64950D01*
X65700Y208750D01*
Y207550D01*
X64650Y206500D02*X65700Y207550D01*
X45000Y189250D02*X45750Y188500D01*
X45000Y193750D02*Y189250D01*
Y193750D02*X45750Y194500D01*
X47250D01*
X48000Y193750D01*
Y189250D01*
X47250Y188500D02*X48000Y189250D01*
X45750Y188500D02*X47250D01*
X45000Y190000D02*X48000Y193000D01*
X49800Y188500D02*X50550D01*
X52350Y189250D02*X53100Y188500D01*
X52350Y193750D02*Y189250D01*
Y193750D02*X53100Y194500D01*
X54600D01*
X55350Y193750D01*
Y189250D01*
X54600Y188500D02*X55350Y189250D01*
X53100Y188500D02*X54600D01*
X52350Y190000D02*X55350Y193000D01*
X57150Y193750D02*X57900Y194500D01*
X60150D01*
X60900Y193750D01*
Y192250D01*
X57150Y188500D02*X60900Y192250D01*
X57150Y188500D02*X60900D01*
X62700Y189250D02*X63450Y188500D01*
X62700Y190450D02*Y189250D01*
Y190450D02*X63750Y191500D01*
X64650D01*
X65700Y190450D01*
Y189250D01*
X64950Y188500D02*X65700Y189250D01*
X63450Y188500D02*X64950D01*
X62700Y192550D02*X63750Y191500D01*
X62700Y193750D02*Y192550D01*
Y193750D02*X63450Y194500D01*
X64950D01*
X65700Y193750D01*
Y192550D01*
X64650Y191500D02*X65700Y192550D01*
X3000Y224500D02*X3750Y223750D01*
X750Y224500D02*X3000D01*
X0Y223750D02*X750Y224500D01*
X0Y223750D02*Y222250D01*
X750Y221500D01*
X3000D01*
X3750Y220750D01*
Y219250D01*
X3000Y218500D02*X3750Y219250D01*
X750Y218500D02*X3000D01*
X0Y219250D02*X750Y218500D01*
X5550Y221500D02*Y219250D01*
X6300Y218500D01*
X8550Y221500D02*Y217000D01*
X7800Y216250D02*X8550Y217000D01*
X6300Y216250D02*X7800D01*
X5550Y217000D02*X6300Y216250D01*
Y218500D02*X7800D01*
X8550Y219250D01*
X11100Y220750D02*Y218500D01*
Y220750D02*X11850Y221500D01*
X12600D01*
X13350Y220750D01*
Y218500D01*
Y220750D02*X14100Y221500D01*
X14850D01*
X15600Y220750D01*
Y218500D01*
X10350Y221500D02*X11100Y220750D01*
X17400Y224500D02*Y218500D01*
Y219250D02*X18150Y218500D01*
X19650D01*
X20400Y219250D01*
Y220750D02*Y219250D01*
X19650Y221500D02*X20400Y220750D01*
X18150Y221500D02*X19650D01*
X17400Y220750D02*X18150Y221500D01*
X22200Y220750D02*Y219250D01*
Y220750D02*X22950Y221500D01*
X24450D01*
X25200Y220750D01*
Y219250D01*
X24450Y218500D02*X25200Y219250D01*
X22950Y218500D02*X24450D01*
X22200Y219250D02*X22950Y218500D01*
X27000Y224500D02*Y219250D01*
X27750Y218500D01*
X0Y215250D02*X29250D01*
X41750Y224500D02*Y218500D01*
X43700Y224500D02*X44750Y223450D01*
Y219550D01*
X43700Y218500D02*X44750Y219550D01*
X41000Y218500D02*X43700D01*
X41000Y224500D02*X43700D01*
G54D45*X46550Y223000D02*Y222850D01*
G54D44*Y220750D02*Y218500D01*
X50300Y221500D02*X51050Y220750D01*
X48800Y221500D02*X50300D01*
X48050Y220750D02*X48800Y221500D01*
X48050Y220750D02*Y219250D01*
X48800Y218500D01*
X51050Y221500D02*Y219250D01*
X51800Y218500D01*
X48800D02*X50300D01*
X51050Y219250D01*
X54350Y220750D02*Y218500D01*
Y220750D02*X55100Y221500D01*
X55850D01*
X56600Y220750D01*
Y218500D01*
Y220750D02*X57350Y221500D01*
X58100D01*
X58850Y220750D01*
Y218500D01*
X53600Y221500D02*X54350Y220750D01*
X60650Y218500D02*X61400D01*
X65900Y219250D02*X66650Y218500D01*
X65900Y223750D02*X66650Y224500D01*
X65900Y223750D02*Y219250D01*
X68450Y224500D02*X69950D01*
X69200D02*Y218500D01*
X68450D02*X69950D01*
X72500Y220750D02*Y218500D01*
Y220750D02*X73250Y221500D01*
X74000D01*
X74750Y220750D01*
Y218500D01*
X71750Y221500D02*X72500Y220750D01*
X77300Y221500D02*X79550D01*
X76550Y220750D02*X77300Y221500D01*
X76550Y220750D02*Y219250D01*
X77300Y218500D01*
X79550D01*
X81350Y224500D02*Y218500D01*
Y220750D02*X82100Y221500D01*
X83600D01*
X84350Y220750D01*
Y218500D01*
X86150Y224500D02*X86900Y223750D01*
Y219250D01*
X86150Y218500D02*X86900Y219250D01*
X41000Y215250D02*X88700D01*
X96050Y218500D02*X98000D01*
X95000Y219550D02*X96050Y218500D01*
X95000Y223450D02*Y219550D01*
Y223450D02*X96050Y224500D01*
X98000D01*
X99800Y220750D02*Y219250D01*
Y220750D02*X100550Y221500D01*
X102050D01*
X102800Y220750D01*
Y219250D01*
X102050Y218500D02*X102800Y219250D01*
X100550Y218500D02*X102050D01*
X99800Y219250D02*X100550Y218500D01*
X104600Y221500D02*Y219250D01*
X105350Y218500D01*
X106850D01*
X107600Y219250D01*
Y221500D02*Y219250D01*
X110150Y220750D02*Y218500D01*
Y220750D02*X110900Y221500D01*
X111650D01*
X112400Y220750D01*
Y218500D01*
X109400Y221500D02*X110150Y220750D01*
X114950Y224500D02*Y219250D01*
X115700Y218500D01*
X114200Y222250D02*X115700D01*
X95000Y215250D02*X117200D01*
X130750Y224500D02*Y218500D01*
X130000Y224500D02*X133000D01*
X133750Y223750D01*
Y222250D01*
X133000Y221500D02*X133750Y222250D01*
X130750Y221500D02*X133000D01*
X135550Y224500D02*Y219250D01*
X136300Y218500D01*
X140050Y221500D02*X140800Y220750D01*
X138550Y221500D02*X140050D01*
X137800Y220750D02*X138550Y221500D01*
X137800Y220750D02*Y219250D01*
X138550Y218500D01*
X140800Y221500D02*Y219250D01*
X141550Y218500D01*
X138550D02*X140050D01*
X140800Y219250D01*
X144100Y224500D02*Y219250D01*
X144850Y218500D01*
X143350Y222250D02*X144850D01*
X147100Y218500D02*X149350D01*
X146350Y219250D02*X147100Y218500D01*
X146350Y220750D02*Y219250D01*
Y220750D02*X147100Y221500D01*
X148600D01*
X149350Y220750D01*
X146350Y220000D02*X149350D01*
Y220750D02*Y220000D01*
X154150Y224500D02*Y218500D01*
X153400D02*X154150Y219250D01*
X151900Y218500D02*X153400D01*
X151150Y219250D02*X151900Y218500D01*
X151150Y220750D02*Y219250D01*
Y220750D02*X151900Y221500D01*
X153400D01*
X154150Y220750D01*
X157450Y221500D02*Y220750D01*
Y219250D02*Y218500D01*
X155950Y223750D02*Y223000D01*
Y223750D02*X156700Y224500D01*
X158200D01*
X158950Y223750D01*
Y223000D01*
X157450Y221500D02*X158950Y223000D01*
X130000Y215250D02*X160750D01*
X0Y239500D02*X3000D01*
X1500D02*Y233500D01*
X4800Y239500D02*Y233500D01*
Y235750D02*X5550Y236500D01*
X7050D01*
X7800Y235750D01*
Y233500D01*
X10350D02*X12600D01*
X9600Y234250D02*X10350Y233500D01*
X9600Y235750D02*Y234250D01*
Y235750D02*X10350Y236500D01*
X11850D01*
X12600Y235750D01*
X9600Y235000D02*X12600D01*
Y235750D02*Y235000D01*
X15150Y235750D02*Y233500D01*
Y235750D02*X15900Y236500D01*
X17400D01*
X14400D02*X15150Y235750D01*
X19950Y233500D02*X22200D01*
X19200Y234250D02*X19950Y233500D01*
X19200Y235750D02*Y234250D01*
Y235750D02*X19950Y236500D01*
X21450D01*
X22200Y235750D01*
X19200Y235000D02*X22200D01*
Y235750D02*Y235000D01*
X28950Y236500D02*X29700Y235750D01*
X27450Y236500D02*X28950D01*
X26700Y235750D02*X27450Y236500D01*
X26700Y235750D02*Y234250D01*
X27450Y233500D01*
X29700Y236500D02*Y234250D01*
X30450Y233500D01*
X27450D02*X28950D01*
X29700Y234250D01*
X33000Y235750D02*Y233500D01*
Y235750D02*X33750Y236500D01*
X35250D01*
X32250D02*X33000Y235750D01*
X37800Y233500D02*X40050D01*
X37050Y234250D02*X37800Y233500D01*
X37050Y235750D02*Y234250D01*
Y235750D02*X37800Y236500D01*
X39300D01*
X40050Y235750D01*
X37050Y235000D02*X40050D01*
Y235750D02*Y235000D01*
X44550Y238750D02*X45300Y239500D01*
X47550D01*
X48300Y238750D01*
Y237250D01*
X44550Y233500D02*X48300Y237250D01*
X44550Y233500D02*X48300D01*
X55800Y239500D02*Y233500D01*
X55050D02*X55800Y234250D01*
X53550Y233500D02*X55050D01*
X52800Y234250D02*X53550Y233500D01*
X52800Y235750D02*Y234250D01*
Y235750D02*X53550Y236500D01*
X55050D01*
X55800Y235750D01*
G54D45*X57600Y238000D02*Y237850D01*
G54D44*Y235750D02*Y233500D01*
X59850Y238750D02*Y233500D01*
Y238750D02*X60600Y239500D01*
X61350D01*
X59100Y236500D02*X60600D01*
X63600Y238750D02*Y233500D01*
Y238750D02*X64350Y239500D01*
X65100D01*
X62850Y236500D02*X64350D01*
X67350Y233500D02*X69600D01*
X66600Y234250D02*X67350Y233500D01*
X66600Y235750D02*Y234250D01*
Y235750D02*X67350Y236500D01*
X68850D01*
X69600Y235750D01*
X66600Y235000D02*X69600D01*
Y235750D02*Y235000D01*
X72150Y235750D02*Y233500D01*
Y235750D02*X72900Y236500D01*
X74400D01*
X71400D02*X72150Y235750D01*
X76950Y233500D02*X79200D01*
X76200Y234250D02*X76950Y233500D01*
X76200Y235750D02*Y234250D01*
Y235750D02*X76950Y236500D01*
X78450D01*
X79200Y235750D01*
X76200Y235000D02*X79200D01*
Y235750D02*Y235000D01*
X81750Y235750D02*Y233500D01*
Y235750D02*X82500Y236500D01*
X83250D01*
X84000Y235750D01*
Y233500D01*
X81000Y236500D02*X81750Y235750D01*
X86550Y239500D02*Y234250D01*
X87300Y233500D01*
X85800Y237250D02*X87300D01*
X94500Y239500D02*Y233500D01*
X93750D02*X94500Y234250D01*
X92250Y233500D02*X93750D01*
X91500Y234250D02*X92250Y233500D01*
X91500Y235750D02*Y234250D01*
Y235750D02*X92250Y236500D01*
X93750D01*
X94500Y235750D01*
X97050D02*Y233500D01*
Y235750D02*X97800Y236500D01*
X99300D01*
X96300D02*X97050Y235750D01*
G54D45*X101100Y238000D02*Y237850D01*
G54D44*Y235750D02*Y233500D01*
X102600Y239500D02*Y234250D01*
X103350Y233500D01*
X104850Y239500D02*Y234250D01*
X105600Y233500D01*
X110550D02*X112800D01*
X113550Y234250D01*
X112800Y235000D02*X113550Y234250D01*
X110550Y235000D02*X112800D01*
X109800Y235750D02*X110550Y235000D01*
X109800Y235750D02*X110550Y236500D01*
X112800D01*
X113550Y235750D01*
X109800Y234250D02*X110550Y233500D01*
G54D45*X115350Y238000D02*Y237850D01*
G54D44*Y235750D02*Y233500D01*
X116850Y236500D02*X119850D01*
X116850Y233500D02*X119850Y236500D01*
X116850Y233500D02*X119850D01*
X122400D02*X124650D01*
X121650Y234250D02*X122400Y233500D01*
X121650Y235750D02*Y234250D01*
Y235750D02*X122400Y236500D01*
X123900D01*
X124650Y235750D01*
X121650Y235000D02*X124650D01*
Y235750D02*Y235000D01*
X127200Y233500D02*X129450D01*
X130200Y234250D01*
X129450Y235000D02*X130200Y234250D01*
X127200Y235000D02*X129450D01*
X126450Y235750D02*X127200Y235000D01*
X126450Y235750D02*X127200Y236500D01*
X129450D01*
X130200Y235750D01*
X126450Y234250D02*X127200Y233500D01*
X134700Y236500D02*Y234250D01*
X135450Y233500D01*
X136950D01*
X137700Y234250D01*
Y236500D02*Y234250D01*
X140250Y233500D02*X142500D01*
X143250Y234250D01*
X142500Y235000D02*X143250Y234250D01*
X140250Y235000D02*X142500D01*
X139500Y235750D02*X140250Y235000D01*
X139500Y235750D02*X140250Y236500D01*
X142500D01*
X143250Y235750D01*
X139500Y234250D02*X140250Y233500D01*
X145800D02*X148050D01*
X145050Y234250D02*X145800Y233500D01*
X145050Y235750D02*Y234250D01*
Y235750D02*X145800Y236500D01*
X147300D01*
X148050Y235750D01*
X145050Y235000D02*X148050D01*
Y235750D02*Y235000D01*
X152850Y239500D02*Y233500D01*
X152100D02*X152850Y234250D01*
X150600Y233500D02*X152100D01*
X149850Y234250D02*X150600Y233500D01*
X149850Y235750D02*Y234250D01*
Y235750D02*X150600Y236500D01*
X152100D01*
X152850Y235750D01*
G54D45*X157350Y238000D02*Y237850D01*
G54D44*Y235750D02*Y233500D01*
X159600Y235750D02*Y233500D01*
Y235750D02*X160350Y236500D01*
X161100D01*
X161850Y235750D01*
Y233500D01*
X158850Y236500D02*X159600Y235750D01*
X167100Y239500D02*Y234250D01*
X167850Y233500D01*
X166350Y237250D02*X167850D01*
X169350Y239500D02*Y233500D01*
Y235750D02*X170100Y236500D01*
X171600D01*
X172350Y235750D01*
Y233500D01*
G54D45*X174150Y238000D02*Y237850D01*
G54D44*Y235750D02*Y233500D01*
X176400D02*X178650D01*
X179400Y234250D01*
X178650Y235000D02*X179400Y234250D01*
X176400Y235000D02*X178650D01*
X175650Y235750D02*X176400Y235000D01*
X175650Y235750D02*X176400Y236500D01*
X178650D01*
X179400Y235750D01*
X175650Y234250D02*X176400Y233500D01*
X183900Y239500D02*Y234250D01*
X184650Y233500D01*
X188400Y236500D02*X189150Y235750D01*
X186900Y236500D02*X188400D01*
X186150Y235750D02*X186900Y236500D01*
X186150Y235750D02*Y234250D01*
X186900Y233500D01*
X189150Y236500D02*Y234250D01*
X189900Y233500D01*
X186900D02*X188400D01*
X189150Y234250D01*
X191700Y236500D02*Y234250D01*
X192450Y233500D01*
X194700Y236500D02*Y232000D01*
X193950Y231250D02*X194700Y232000D01*
X192450Y231250D02*X193950D01*
X191700Y232000D02*X192450Y231250D01*
Y233500D02*X193950D01*
X194700Y234250D01*
X196500Y235750D02*Y234250D01*
Y235750D02*X197250Y236500D01*
X198750D01*
X199500Y235750D01*
Y234250D01*
X198750Y233500D02*X199500Y234250D01*
X197250Y233500D02*X198750D01*
X196500Y234250D02*X197250Y233500D01*
X201300Y236500D02*Y234250D01*
X202050Y233500D01*
X203550D01*
X204300Y234250D01*
Y236500D02*Y234250D01*
X206850Y239500D02*Y234250D01*
X207600Y233500D01*
X206100Y237250D02*X207600D01*
X209100Y232000D02*X210600Y233500D01*
X215850D02*X218850Y239500D01*
X215100D02*X218850D01*
X222900D02*X223650Y238750D01*
X221400Y239500D02*X222900D01*
X220650Y238750D02*X221400Y239500D01*
X220650Y238750D02*Y234250D01*
X221400Y233500D01*
X222900Y236800D02*X223650Y236050D01*
X220650Y236800D02*X222900D01*
X221400Y233500D02*X222900D01*
X223650Y234250D01*
Y236050D02*Y234250D01*
X228150Y239500D02*Y233500D01*
Y235750D02*X228900Y236500D01*
X230400D01*
X231150Y235750D01*
Y233500D01*
X232950Y235750D02*Y234250D01*
Y235750D02*X233700Y236500D01*
X235200D01*
X235950Y235750D01*
Y234250D01*
X235200Y233500D02*X235950Y234250D01*
X233700Y233500D02*X235200D01*
X232950Y234250D02*X233700Y233500D01*
X237750Y239500D02*Y234250D01*
X238500Y233500D01*
X240750D02*X243000D01*
X240000Y234250D02*X240750Y233500D01*
X240000Y235750D02*Y234250D01*
Y235750D02*X240750Y236500D01*
X242250D01*
X243000Y235750D01*
X240000Y235000D02*X243000D01*
Y235750D02*Y235000D01*
X245550Y233500D02*X247800D01*
X248550Y234250D01*
X247800Y235000D02*X248550Y234250D01*
X245550Y235000D02*X247800D01*
X244800Y235750D02*X245550Y235000D01*
X244800Y235750D02*X245550Y236500D01*
X247800D01*
X248550Y235750D01*
X244800Y234250D02*X245550Y233500D01*
X253800Y239500D02*Y234250D01*
X254550Y233500D01*
X253050Y237250D02*X254550D01*
X256050Y235750D02*Y234250D01*
Y235750D02*X256800Y236500D01*
X258300D01*
X259050Y235750D01*
Y234250D01*
X258300Y233500D02*X259050Y234250D01*
X256800Y233500D02*X258300D01*
X256050Y234250D02*X256800Y233500D01*
X261600Y239500D02*Y234250D01*
X262350Y233500D01*
X260850Y237250D02*X262350D01*
X266100Y236500D02*X266850Y235750D01*
X264600Y236500D02*X266100D01*
X263850Y235750D02*X264600Y236500D01*
X263850Y235750D02*Y234250D01*
X264600Y233500D01*
X266850Y236500D02*Y234250D01*
X267600Y233500D01*
X264600D02*X266100D01*
X266850Y234250D01*
X269400Y239500D02*Y234250D01*
X270150Y233500D01*
G54D46*X0Y151000D02*X279000D01*
X0D02*Y0D01*
X279000Y151000D02*Y0D01*
X0D02*X279000D01*
G54D44*X200000Y164500D02*Y158500D01*
Y164500D02*X202250Y161500D01*
X204500Y164500D01*
Y158500D01*
X208550Y161500D02*X209300Y160750D01*
X207050Y161500D02*X208550D01*
X206300Y160750D02*X207050Y161500D01*
X206300Y160750D02*Y159250D01*
X207050Y158500D01*
X209300Y161500D02*Y159250D01*
X210050Y158500D01*
X207050D02*X208550D01*
X209300Y159250D01*
X211850Y161500D02*X214850Y158500D01*
X211850D02*X214850Y161500D01*
G54D45*X216650Y163000D02*Y162850D01*
G54D44*Y160750D02*Y158500D01*
X218900Y160750D02*Y158500D01*
Y160750D02*X219650Y161500D01*
X220400D01*
X221150Y160750D01*
Y158500D01*
Y160750D02*X221900Y161500D01*
X222650D01*
X223400Y160750D01*
Y158500D01*
X218150Y161500D02*X218900Y160750D01*
X225200Y161500D02*Y159250D01*
X225950Y158500D01*
X227450D01*
X228200Y159250D01*
Y161500D02*Y159250D01*
X230750Y160750D02*Y158500D01*
Y160750D02*X231500Y161500D01*
X232250D01*
X233000Y160750D01*
Y158500D01*
Y160750D02*X233750Y161500D01*
X234500D01*
X235250Y160750D01*
Y158500D01*
X230000Y161500D02*X230750Y160750D01*
X240500Y164500D02*Y158500D01*
X242450Y164500D02*X243500Y163450D01*
Y159550D01*
X242450Y158500D02*X243500Y159550D01*
X239750Y158500D02*X242450D01*
X239750Y164500D02*X242450D01*
G54D45*X245300Y163000D02*Y162850D01*
G54D44*Y160750D02*Y158500D01*
X247550Y160750D02*Y158500D01*
Y160750D02*X248300Y161500D01*
X249050D01*
X249800Y160750D01*
Y158500D01*
Y160750D02*X250550Y161500D01*
X251300D01*
X252050Y160750D01*
Y158500D01*
X246800Y161500D02*X247550Y160750D01*
X254600Y158500D02*X256850D01*
X253850Y159250D02*X254600Y158500D01*
X253850Y160750D02*Y159250D01*
Y160750D02*X254600Y161500D01*
X256100D01*
X256850Y160750D01*
X253850Y160000D02*X256850D01*
Y160750D02*Y160000D01*
X259400Y160750D02*Y158500D01*
Y160750D02*X260150Y161500D01*
X260900D01*
X261650Y160750D01*
Y158500D01*
X258650Y161500D02*X259400Y160750D01*
X264200Y158500D02*X266450D01*
X267200Y159250D01*
X266450Y160000D02*X267200Y159250D01*
X264200Y160000D02*X266450D01*
X263450Y160750D02*X264200Y160000D01*
X263450Y160750D02*X264200Y161500D01*
X266450D01*
X267200Y160750D01*
X263450Y159250D02*X264200Y158500D01*
G54D45*X269000Y163000D02*Y162850D01*
G54D44*Y160750D02*Y158500D01*
X270500Y160750D02*Y159250D01*
Y160750D02*X271250Y161500D01*
X272750D01*
X273500Y160750D01*
Y159250D01*
X272750Y158500D02*X273500Y159250D01*
X271250Y158500D02*X272750D01*
X270500Y159250D02*X271250Y158500D01*
X276050Y160750D02*Y158500D01*
Y160750D02*X276800Y161500D01*
X277550D01*
X278300Y160750D01*
Y158500D01*
X275300Y161500D02*X276050Y160750D01*
X280850Y158500D02*X283100D01*
X283850Y159250D01*
X283100Y160000D02*X283850Y159250D01*
X280850Y160000D02*X283100D01*
X280100Y160750D02*X280850Y160000D01*
X280100Y160750D02*X280850Y161500D01*
X283100D01*
X283850Y160750D01*
X280100Y159250D02*X280850Y158500D01*
X285650Y162250D02*X286400D01*
X285650Y160750D02*X286400D01*
X290900Y163750D02*X291650Y164500D01*
X293900D01*
X294650Y163750D01*
Y162250D01*
X290900Y158500D02*X294650Y162250D01*
X290900Y158500D02*X294650D01*
X297200D02*X300200Y164500D01*
X296450D02*X300200D01*
X302750Y158500D02*X305000Y161500D01*
Y163750D02*Y161500D01*
X304250Y164500D02*X305000Y163750D01*
X302750Y164500D02*X304250D01*
X302000Y163750D02*X302750Y164500D01*
X302000Y163750D02*Y162250D01*
X302750Y161500D01*
X305000D01*
X306800Y159250D02*X307550Y158500D01*
X306800Y163750D02*Y159250D01*
Y163750D02*X307550Y164500D01*
X309050D01*
X309800Y163750D01*
Y159250D01*
X309050Y158500D02*X309800Y159250D01*
X307550Y158500D02*X309050D01*
X306800Y160000D02*X309800Y163000D01*
X311600Y158500D02*X312350D01*
X314150Y159250D02*X314900Y158500D01*
X314150Y163750D02*Y159250D01*
Y163750D02*X314900Y164500D01*
X316400D01*
X317150Y163750D01*
Y159250D01*
X316400Y158500D02*X317150Y159250D01*
X314900Y158500D02*X316400D01*
X314150Y160000D02*X317150Y163000D01*
X318950Y159250D02*X319700Y158500D01*
X318950Y163750D02*Y159250D01*
Y163750D02*X319700Y164500D01*
X321200D01*
X321950Y163750D01*
Y159250D01*
X321200Y158500D02*X321950Y159250D01*
X319700Y158500D02*X321200D01*
X318950Y160000D02*X321950Y163000D01*
X323750Y159250D02*X324500Y158500D01*
X323750Y163750D02*Y159250D01*
Y163750D02*X324500Y164500D01*
X326000D01*
X326750Y163750D01*
Y159250D01*
X326000Y158500D02*X326750Y159250D01*
X324500Y158500D02*X326000D01*
X323750Y160000D02*X326750Y163000D01*
X328550Y159250D02*X329300Y158500D01*
X328550Y163750D02*Y159250D01*
Y163750D02*X329300Y164500D01*
X330800D01*
X331550Y163750D01*
Y159250D01*
X330800Y158500D02*X331550Y159250D01*
X329300Y158500D02*X330800D01*
X328550Y160000D02*X331550Y163000D01*
X333350Y159250D02*X334100Y158500D01*
X333350Y163750D02*Y159250D01*
Y163750D02*X334100Y164500D01*
X335600D01*
X336350Y163750D01*
Y159250D01*
X335600Y158500D02*X336350Y159250D01*
X334100Y158500D02*X335600D01*
X333350Y160000D02*X336350Y163000D01*
X338150Y159250D02*X338900Y158500D01*
X338150Y163750D02*Y159250D01*
Y163750D02*X338900Y164500D01*
X340400D01*
X341150Y163750D01*
Y159250D01*
X340400Y158500D02*X341150Y159250D01*
X338900Y158500D02*X340400D01*
X338150Y160000D02*X341150Y163000D01*
X346400Y160750D02*Y158500D01*
Y160750D02*X347150Y161500D01*
X347900D01*
X348650Y160750D01*
Y158500D01*
Y160750D02*X349400Y161500D01*
X350150D01*
X350900Y160750D01*
Y158500D01*
X345650Y161500D02*X346400Y160750D01*
G54D45*X352700Y163000D02*Y162850D01*
G54D44*Y160750D02*Y158500D01*
X354200Y164500D02*Y159250D01*
X354950Y158500D01*
X357200D02*X359450D01*
X360200Y159250D01*
X359450Y160000D02*X360200Y159250D01*
X357200Y160000D02*X359450D01*
X356450Y160750D02*X357200Y160000D01*
X356450Y160750D02*X357200Y161500D01*
X359450D01*
X360200Y160750D01*
X356450Y159250D02*X357200Y158500D01*
X364700Y161500D02*Y159250D01*
X365450Y158500D01*
X366200D01*
X366950Y159250D01*
Y161500D02*Y159250D01*
X367700Y158500D01*
X368450D01*
X369200Y159250D01*
Y161500D02*Y159250D01*
G54D45*X371000Y163000D02*Y162850D01*
G54D44*Y160750D02*Y158500D01*
X375500Y164500D02*Y158500D01*
X374750D02*X375500Y159250D01*
X373250Y158500D02*X374750D01*
X372500Y159250D02*X373250Y158500D01*
X372500Y160750D02*Y159250D01*
Y160750D02*X373250Y161500D01*
X374750D01*
X375500Y160750D01*
X378050Y158500D02*X380300D01*
X377300Y159250D02*X378050Y158500D01*
X377300Y160750D02*Y159250D01*
Y160750D02*X378050Y161500D01*
X379550D01*
X380300Y160750D01*
X377300Y160000D02*X380300D01*
Y160750D02*Y160000D01*
X382100Y157000D02*X383600Y158500D01*
X388100Y163300D02*X389300Y164500D01*
Y158500D01*
X388100D02*X390350D01*
X392150Y164500D02*X395150D01*
X392150D02*Y161500D01*
X392900Y162250D01*
X394400D01*
X395150Y161500D01*
Y159250D01*
X394400Y158500D02*X395150Y159250D01*
X392900Y158500D02*X394400D01*
X392150Y159250D02*X392900Y158500D01*
X396950Y163300D02*X398150Y164500D01*
Y158500D01*
X396950D02*X399200D01*
X401000Y159250D02*X401750Y158500D01*
X401000Y163750D02*Y159250D01*
Y163750D02*X401750Y164500D01*
X403250D01*
X404000Y163750D01*
Y159250D01*
X403250Y158500D02*X404000Y159250D01*
X401750Y158500D02*X403250D01*
X401000Y160000D02*X404000Y163000D01*
X405800Y158500D02*X406550D01*
X408350Y159250D02*X409100Y158500D01*
X408350Y163750D02*Y159250D01*
Y163750D02*X409100Y164500D01*
X410600D01*
X411350Y163750D01*
Y159250D01*
X410600Y158500D02*X411350Y159250D01*
X409100Y158500D02*X410600D01*
X408350Y160000D02*X411350Y163000D01*
X413150Y159250D02*X413900Y158500D01*
X413150Y163750D02*Y159250D01*
Y163750D02*X413900Y164500D01*
X415400D01*
X416150Y163750D01*
Y159250D01*
X415400Y158500D02*X416150Y159250D01*
X413900Y158500D02*X415400D01*
X413150Y160000D02*X416150Y163000D01*
X417950Y159250D02*X418700Y158500D01*
X417950Y163750D02*Y159250D01*
Y163750D02*X418700Y164500D01*
X420200D01*
X420950Y163750D01*
Y159250D01*
X420200Y158500D02*X420950Y159250D01*
X418700Y158500D02*X420200D01*
X417950Y160000D02*X420950Y163000D01*
X422750Y159250D02*X423500Y158500D01*
X422750Y163750D02*Y159250D01*
Y163750D02*X423500Y164500D01*
X425000D01*
X425750Y163750D01*
Y159250D01*
X425000Y158500D02*X425750Y159250D01*
X423500Y158500D02*X425000D01*
X422750Y160000D02*X425750Y163000D01*
X427550Y159250D02*X428300Y158500D01*
X427550Y163750D02*Y159250D01*
Y163750D02*X428300Y164500D01*
X429800D01*
X430550Y163750D01*
Y159250D01*
X429800Y158500D02*X430550Y159250D01*
X428300Y158500D02*X429800D01*
X427550Y160000D02*X430550Y163000D01*
X432350Y159250D02*X433100Y158500D01*
X432350Y163750D02*Y159250D01*
Y163750D02*X433100Y164500D01*
X434600D01*
X435350Y163750D01*
Y159250D01*
X434600Y158500D02*X435350Y159250D01*
X433100Y158500D02*X434600D01*
X432350Y160000D02*X435350Y163000D01*
X440600Y160750D02*Y158500D01*
Y160750D02*X441350Y161500D01*
X442100D01*
X442850Y160750D01*
Y158500D01*
Y160750D02*X443600Y161500D01*
X444350D01*
X445100Y160750D01*
Y158500D01*
X439850Y161500D02*X440600Y160750D01*
G54D45*X446900Y163000D02*Y162850D01*
G54D44*Y160750D02*Y158500D01*
X448400Y164500D02*Y159250D01*
X449150Y158500D01*
X451400D02*X453650D01*
X454400Y159250D01*
X453650Y160000D02*X454400Y159250D01*
X451400Y160000D02*X453650D01*
X450650Y160750D02*X451400Y160000D01*
X450650Y160750D02*X451400Y161500D01*
X453650D01*
X454400Y160750D01*
X450650Y159250D02*X451400Y158500D01*
X458900Y164500D02*Y158500D01*
Y160750D02*X459650Y161500D01*
X461150D01*
X461900Y160750D01*
Y158500D01*
G54D45*X463700Y163000D02*Y162850D01*
G54D44*Y160750D02*Y158500D01*
X467450Y161500D02*X468200Y160750D01*
X465950Y161500D02*X467450D01*
X465200Y160750D02*X465950Y161500D01*
X465200Y160750D02*Y159250D01*
X465950Y158500D01*
X467450D01*
X468200Y159250D01*
X465200Y157000D02*X465950Y156250D01*
X467450D01*
X468200Y157000D01*
Y161500D02*Y157000D01*
X470000Y164500D02*Y158500D01*
Y160750D02*X470750Y161500D01*
X472250D01*
X473000Y160750D01*
Y158500D01*
X0Y-9500D02*X3000D01*
X3750Y-8750D01*
Y-6950D02*Y-8750D01*
X3000Y-6200D02*X3750Y-6950D01*
X750Y-6200D02*X3000D01*
X750Y-3500D02*Y-9500D01*
X0Y-3500D02*X3000D01*
X3750Y-4250D01*
Y-5450D01*
X3000Y-6200D02*X3750Y-5450D01*
X5550Y-7250D02*Y-8750D01*
Y-7250D02*X6300Y-6500D01*
X7800D01*
X8550Y-7250D01*
Y-8750D01*
X7800Y-9500D02*X8550Y-8750D01*
X6300Y-9500D02*X7800D01*
X5550Y-8750D02*X6300Y-9500D01*
X12600Y-6500D02*X13350Y-7250D01*
X11100Y-6500D02*X12600D01*
X10350Y-7250D02*X11100Y-6500D01*
X10350Y-7250D02*Y-8750D01*
X11100Y-9500D01*
X13350Y-6500D02*Y-8750D01*
X14100Y-9500D01*
X11100D02*X12600D01*
X13350Y-8750D01*
X16650Y-7250D02*Y-9500D01*
Y-7250D02*X17400Y-6500D01*
X18900D01*
X15900D02*X16650Y-7250D01*
X23700Y-3500D02*Y-9500D01*
X22950D02*X23700Y-8750D01*
X21450Y-9500D02*X22950D01*
X20700Y-8750D02*X21450Y-9500D01*
X20700Y-7250D02*Y-8750D01*
Y-7250D02*X21450Y-6500D01*
X22950D01*
X23700Y-7250D01*
X28200D02*Y-8750D01*
Y-7250D02*X28950Y-6500D01*
X30450D01*
X31200Y-7250D01*
Y-8750D01*
X30450Y-9500D02*X31200Y-8750D01*
X28950Y-9500D02*X30450D01*
X28200Y-8750D02*X28950Y-9500D01*
X33000Y-6500D02*Y-8750D01*
X33750Y-9500D01*
X35250D01*
X36000Y-8750D01*
Y-6500D02*Y-8750D01*
X38550Y-3500D02*Y-8750D01*
X39300Y-9500D01*
X37800Y-5750D02*X39300D01*
X40800Y-3500D02*Y-8750D01*
X41550Y-9500D01*
G54D45*X43050Y-5000D02*Y-5150D01*
G54D44*Y-7250D02*Y-9500D01*
X45300Y-7250D02*Y-9500D01*
Y-7250D02*X46050Y-6500D01*
X46800D01*
X47550Y-7250D01*
Y-9500D01*
X44550Y-6500D02*X45300Y-7250D01*
X50100Y-9500D02*X52350D01*
X49350Y-8750D02*X50100Y-9500D01*
X49350Y-7250D02*Y-8750D01*
Y-7250D02*X50100Y-6500D01*
X51600D01*
X52350Y-7250D01*
X49350Y-8000D02*X52350D01*
Y-7250D02*Y-8000D01*
G54D45*X56850Y-5000D02*Y-5150D01*
G54D44*Y-7250D02*Y-9500D01*
X59100D02*X61350D01*
X62100Y-8750D01*
X61350Y-8000D02*X62100Y-8750D01*
X59100Y-8000D02*X61350D01*
X58350Y-7250D02*X59100Y-8000D01*
X58350Y-7250D02*X59100Y-6500D01*
X61350D01*
X62100Y-7250D01*
X58350Y-8750D02*X59100Y-9500D01*
X67350Y-3500D02*Y-8750D01*
X68100Y-9500D01*
X66600Y-5750D02*X68100D01*
X69600Y-3500D02*Y-9500D01*
Y-7250D02*X70350Y-6500D01*
X71850D01*
X72600Y-7250D01*
Y-9500D01*
X75150D02*X77400D01*
X74400Y-8750D02*X75150Y-9500D01*
X74400Y-7250D02*Y-8750D01*
Y-7250D02*X75150Y-6500D01*
X76650D01*
X77400Y-7250D01*
X74400Y-8000D02*X77400D01*
Y-7250D02*Y-8000D01*
X82650Y-6500D02*X84900D01*
X81900Y-7250D02*X82650Y-6500D01*
X81900Y-7250D02*Y-8750D01*
X82650Y-9500D01*
X84900D01*
X87450D02*X89700D01*
X86700Y-8750D02*X87450Y-9500D01*
X86700Y-7250D02*Y-8750D01*
Y-7250D02*X87450Y-6500D01*
X88950D01*
X89700Y-7250D01*
X86700Y-8000D02*X89700D01*
Y-7250D02*Y-8000D01*
X92250Y-7250D02*Y-9500D01*
Y-7250D02*X93000Y-6500D01*
X93750D01*
X94500Y-7250D01*
Y-9500D01*
X91500Y-6500D02*X92250Y-7250D01*
X97050Y-3500D02*Y-8750D01*
X97800Y-9500D01*
X96300Y-5750D02*X97800D01*
X100050Y-9500D02*X102300D01*
X99300Y-8750D02*X100050Y-9500D01*
X99300Y-7250D02*Y-8750D01*
Y-7250D02*X100050Y-6500D01*
X101550D01*
X102300Y-7250D01*
X99300Y-8000D02*X102300D01*
Y-7250D02*Y-8000D01*
X104850Y-7250D02*Y-9500D01*
Y-7250D02*X105600Y-6500D01*
X107100D01*
X104100D02*X104850Y-7250D01*
X108900Y-3500D02*Y-8750D01*
X109650Y-9500D01*
G54D45*X111150Y-5000D02*Y-5150D01*
G54D44*Y-7250D02*Y-9500D01*
X113400Y-7250D02*Y-9500D01*
Y-7250D02*X114150Y-6500D01*
X114900D01*
X115650Y-7250D01*
Y-9500D01*
X112650Y-6500D02*X113400Y-7250D01*
X118200Y-9500D02*X120450D01*
X117450Y-8750D02*X118200Y-9500D01*
X117450Y-7250D02*Y-8750D01*
Y-7250D02*X118200Y-6500D01*
X119700D01*
X120450Y-7250D01*
X117450Y-8000D02*X120450D01*
Y-7250D02*Y-8000D01*
X124950Y-7250D02*Y-8750D01*
Y-7250D02*X125700Y-6500D01*
X127200D01*
X127950Y-7250D01*
Y-8750D01*
X127200Y-9500D02*X127950Y-8750D01*
X125700Y-9500D02*X127200D01*
X124950Y-8750D02*X125700Y-9500D01*
X130500Y-4250D02*Y-9500D01*
Y-4250D02*X131250Y-3500D01*
X132000D01*
X129750Y-6500D02*X131250D01*
X136950Y-3500D02*Y-8750D01*
X137700Y-9500D01*
X136200Y-5750D02*X137700D01*
X139200Y-3500D02*Y-9500D01*
Y-7250D02*X139950Y-6500D01*
X141450D01*
X142200Y-7250D01*
Y-9500D01*
G54D45*X144000Y-5000D02*Y-5150D01*
G54D44*Y-7250D02*Y-9500D01*
X146250D02*X148500D01*
X149250Y-8750D01*
X148500Y-8000D02*X149250Y-8750D01*
X146250Y-8000D02*X148500D01*
X145500Y-7250D02*X146250Y-8000D01*
X145500Y-7250D02*X146250Y-6500D01*
X148500D01*
X149250Y-7250D01*
X145500Y-8750D02*X146250Y-9500D01*
X153750Y-8750D02*X154500Y-9500D01*
X153750Y-7550D02*Y-8750D01*
Y-7550D02*X154800Y-6500D01*
X155700D01*
X156750Y-7550D01*
Y-8750D01*
X156000Y-9500D02*X156750Y-8750D01*
X154500Y-9500D02*X156000D01*
X153750Y-5450D02*X154800Y-6500D01*
X153750Y-4250D02*Y-5450D01*
Y-4250D02*X154500Y-3500D01*
X156000D01*
X156750Y-4250D01*
Y-5450D01*
X155700Y-6500D02*X156750Y-5450D01*
X158550Y-9500D02*X159300D01*
X161100Y-8750D02*X161850Y-9500D01*
X161100Y-4250D02*Y-8750D01*
Y-4250D02*X161850Y-3500D01*
X163350D01*
X164100Y-4250D01*
Y-8750D01*
X163350Y-9500D02*X164100Y-8750D01*
X161850Y-9500D02*X163350D01*
X161100Y-8000D02*X164100Y-5000D01*
X165900Y-8750D02*X166650Y-9500D01*
X165900Y-4250D02*Y-8750D01*
Y-4250D02*X166650Y-3500D01*
X168150D01*
X168900Y-4250D01*
Y-8750D01*
X168150Y-9500D02*X168900Y-8750D01*
X166650Y-9500D02*X168150D01*
X165900Y-8000D02*X168900Y-5000D01*
X170700Y-8750D02*X171450Y-9500D01*
X170700Y-4250D02*Y-8750D01*
Y-4250D02*X171450Y-3500D01*
X172950D01*
X173700Y-4250D01*
Y-8750D01*
X172950Y-9500D02*X173700Y-8750D01*
X171450Y-9500D02*X172950D01*
X170700Y-8000D02*X173700Y-5000D01*
X175500Y-8750D02*X176250Y-9500D01*
X175500Y-4250D02*Y-8750D01*
Y-4250D02*X176250Y-3500D01*
X177750D01*
X178500Y-4250D01*
Y-8750D01*
X177750Y-9500D02*X178500Y-8750D01*
X176250Y-9500D02*X177750D01*
X175500Y-8000D02*X178500Y-5000D01*
X180300Y-8750D02*X181050Y-9500D01*
X180300Y-4250D02*Y-8750D01*
Y-4250D02*X181050Y-3500D01*
X182550D01*
X183300Y-4250D01*
Y-8750D01*
X182550Y-9500D02*X183300Y-8750D01*
X181050Y-9500D02*X182550D01*
X180300Y-8000D02*X183300Y-5000D01*
X185100Y-8750D02*X185850Y-9500D01*
X185100Y-4250D02*Y-8750D01*
Y-4250D02*X185850Y-3500D01*
X187350D01*
X188100Y-4250D01*
Y-8750D01*
X187350Y-9500D02*X188100Y-8750D01*
X185850Y-9500D02*X187350D01*
X185100Y-8000D02*X188100Y-5000D01*
X193350Y-7250D02*Y-9500D01*
Y-7250D02*X194100Y-6500D01*
X194850D01*
X195600Y-7250D01*
Y-9500D01*
Y-7250D02*X196350Y-6500D01*
X197100D01*
X197850Y-7250D01*
Y-9500D01*
X192600Y-6500D02*X193350Y-7250D01*
G54D45*X199650Y-5000D02*Y-5150D01*
G54D44*Y-7250D02*Y-9500D01*
X201150Y-3500D02*Y-8750D01*
X201900Y-9500D01*
X206850Y-7250D02*Y-9500D01*
Y-7250D02*X207600Y-6500D01*
X209100D01*
X206100D02*X206850Y-7250D01*
X211650Y-9500D02*X213900D01*
X210900Y-8750D02*X211650Y-9500D01*
X210900Y-7250D02*Y-8750D01*
Y-7250D02*X211650Y-6500D01*
X213150D01*
X213900Y-7250D01*
X210900Y-8000D02*X213900D01*
Y-7250D02*Y-8000D01*
X216450Y-6500D02*X218700D01*
X215700Y-7250D02*X216450Y-6500D01*
X215700Y-7250D02*Y-8750D01*
X216450Y-9500D01*
X218700D01*
X221250Y-3500D02*Y-8750D01*
X222000Y-9500D01*
X220500Y-5750D02*X222000D01*
X225750Y-6500D02*X226500Y-7250D01*
X224250Y-6500D02*X225750D01*
X223500Y-7250D02*X224250Y-6500D01*
X223500Y-7250D02*Y-8750D01*
X224250Y-9500D01*
X226500Y-6500D02*Y-8750D01*
X227250Y-9500D01*
X224250D02*X225750D01*
X226500Y-8750D01*
X229800Y-7250D02*Y-9500D01*
Y-7250D02*X230550Y-6500D01*
X231300D01*
X232050Y-7250D01*
Y-9500D01*
X229050Y-6500D02*X229800Y-7250D01*
X236100Y-6500D02*X236850Y-7250D01*
X234600Y-6500D02*X236100D01*
X233850Y-7250D02*X234600Y-6500D01*
X233850Y-7250D02*Y-8750D01*
X234600Y-9500D01*
X236100D01*
X236850Y-8750D01*
X233850Y-11000D02*X234600Y-11750D01*
X236100D01*
X236850Y-11000D01*
Y-6500D02*Y-11000D01*
X238650Y-3500D02*Y-8750D01*
X239400Y-9500D01*
X241650D02*X243900D01*
X240900Y-8750D02*X241650Y-9500D01*
X240900Y-7250D02*Y-8750D01*
Y-7250D02*X241650Y-6500D01*
X243150D01*
X243900Y-7250D01*
X240900Y-8000D02*X243900D01*
Y-7250D02*Y-8000D01*
X248400Y-6500D02*X251400D01*
X255900Y-8750D02*X256650Y-9500D01*
X255900Y-4250D02*Y-8750D01*
Y-4250D02*X256650Y-3500D01*
X258150D01*
X258900Y-4250D01*
Y-8750D01*
X258150Y-9500D02*X258900Y-8750D01*
X256650Y-9500D02*X258150D01*
X255900Y-8000D02*X258900Y-5000D01*
X260700Y-11000D02*X262200Y-9500D01*
X264000Y-8750D02*X264750Y-9500D01*
X264000Y-4250D02*Y-8750D01*
Y-4250D02*X264750Y-3500D01*
X266250D01*
X267000Y-4250D01*
Y-8750D01*
X266250Y-9500D02*X267000Y-8750D01*
X264750Y-9500D02*X266250D01*
X264000Y-8000D02*X267000Y-5000D01*
X272250Y-3500D02*Y-8750D01*
X273000Y-9500D01*
X271500Y-5750D02*X273000D01*
X274500Y-7250D02*Y-8750D01*
Y-7250D02*X275250Y-6500D01*
X276750D01*
X277500Y-7250D01*
Y-8750D01*
X276750Y-9500D02*X277500Y-8750D01*
X275250Y-9500D02*X276750D01*
X274500Y-8750D02*X275250Y-9500D01*
X282000Y-4250D02*X282750Y-3500D01*
X285000D01*
X285750Y-4250D01*
Y-5750D01*
X282000Y-9500D02*X285750Y-5750D01*
X282000Y-9500D02*X285750D01*
X288300D02*X291300Y-3500D01*
X287550D02*X291300D01*
X293850Y-9500D02*X296100Y-6500D01*
Y-4250D02*Y-6500D01*
X295350Y-3500D02*X296100Y-4250D01*
X293850Y-3500D02*X295350D01*
X293100Y-4250D02*X293850Y-3500D01*
X293100Y-4250D02*Y-5750D01*
X293850Y-6500D01*
X296100D01*
X297900Y-8750D02*X298650Y-9500D01*
X297900Y-4250D02*Y-8750D01*
Y-4250D02*X298650Y-3500D01*
X300150D01*
X300900Y-4250D01*
Y-8750D01*
X300150Y-9500D02*X300900Y-8750D01*
X298650Y-9500D02*X300150D01*
X297900Y-8000D02*X300900Y-5000D01*
X302700Y-9500D02*X303450D01*
X305250Y-8750D02*X306000Y-9500D01*
X305250Y-4250D02*Y-8750D01*
Y-4250D02*X306000Y-3500D01*
X307500D01*
X308250Y-4250D01*
Y-8750D01*
X307500Y-9500D02*X308250Y-8750D01*
X306000Y-9500D02*X307500D01*
X305250Y-8000D02*X308250Y-5000D01*
X310050Y-8750D02*X310800Y-9500D01*
X310050Y-4250D02*Y-8750D01*
Y-4250D02*X310800Y-3500D01*
X312300D01*
X313050Y-4250D01*
Y-8750D01*
X312300Y-9500D02*X313050Y-8750D01*
X310800Y-9500D02*X312300D01*
X310050Y-8000D02*X313050Y-5000D01*
X314850Y-8750D02*X315600Y-9500D01*
X314850Y-4250D02*Y-8750D01*
Y-4250D02*X315600Y-3500D01*
X317100D01*
X317850Y-4250D01*
Y-8750D01*
X317100Y-9500D02*X317850Y-8750D01*
X315600Y-9500D02*X317100D01*
X314850Y-8000D02*X317850Y-5000D01*
X319650Y-8750D02*X320400Y-9500D01*
X319650Y-4250D02*Y-8750D01*
Y-4250D02*X320400Y-3500D01*
X321900D01*
X322650Y-4250D01*
Y-8750D01*
X321900Y-9500D02*X322650Y-8750D01*
X320400Y-9500D02*X321900D01*
X319650Y-8000D02*X322650Y-5000D01*
X324450Y-8750D02*X325200Y-9500D01*
X324450Y-4250D02*Y-8750D01*
Y-4250D02*X325200Y-3500D01*
X326700D01*
X327450Y-4250D01*
Y-8750D01*
X326700Y-9500D02*X327450Y-8750D01*
X325200Y-9500D02*X326700D01*
X324450Y-8000D02*X327450Y-5000D01*
X329250Y-8750D02*X330000Y-9500D01*
X329250Y-4250D02*Y-8750D01*
Y-4250D02*X330000Y-3500D01*
X331500D01*
X332250Y-4250D01*
Y-8750D01*
X331500Y-9500D02*X332250Y-8750D01*
X330000Y-9500D02*X331500D01*
X329250Y-8000D02*X332250Y-5000D01*
X334050Y-11000D02*X335550Y-9500D01*
X337350Y-4700D02*X338550Y-3500D01*
Y-9500D01*
X337350D02*X339600D01*
X341400Y-3500D02*X344400D01*
X341400D02*Y-6500D01*
X342150Y-5750D01*
X343650D01*
X344400Y-6500D01*
Y-8750D01*
X343650Y-9500D02*X344400Y-8750D01*
X342150Y-9500D02*X343650D01*
X341400Y-8750D02*X342150Y-9500D01*
X346200Y-4700D02*X347400Y-3500D01*
Y-9500D01*
X346200D02*X348450D01*
X350250Y-8750D02*X351000Y-9500D01*
X350250Y-4250D02*Y-8750D01*
Y-4250D02*X351000Y-3500D01*
X352500D01*
X353250Y-4250D01*
Y-8750D01*
X352500Y-9500D02*X353250Y-8750D01*
X351000Y-9500D02*X352500D01*
X350250Y-8000D02*X353250Y-5000D01*
X355050Y-9500D02*X355800D01*
X357600Y-8750D02*X358350Y-9500D01*
X357600Y-4250D02*Y-8750D01*
Y-4250D02*X358350Y-3500D01*
X359850D01*
X360600Y-4250D01*
Y-8750D01*
X359850Y-9500D02*X360600Y-8750D01*
X358350Y-9500D02*X359850D01*
X357600Y-8000D02*X360600Y-5000D01*
X362400Y-8750D02*X363150Y-9500D01*
X362400Y-4250D02*Y-8750D01*
Y-4250D02*X363150Y-3500D01*
X364650D01*
X365400Y-4250D01*
Y-8750D01*
X364650Y-9500D02*X365400Y-8750D01*
X363150Y-9500D02*X364650D01*
X362400Y-8000D02*X365400Y-5000D01*
X367200Y-8750D02*X367950Y-9500D01*
X367200Y-4250D02*Y-8750D01*
Y-4250D02*X367950Y-3500D01*
X369450D01*
X370200Y-4250D01*
Y-8750D01*
X369450Y-9500D02*X370200Y-8750D01*
X367950Y-9500D02*X369450D01*
X367200Y-8000D02*X370200Y-5000D01*
X372000Y-8750D02*X372750Y-9500D01*
X372000Y-4250D02*Y-8750D01*
Y-4250D02*X372750Y-3500D01*
X374250D01*
X375000Y-4250D01*
Y-8750D01*
X374250Y-9500D02*X375000Y-8750D01*
X372750Y-9500D02*X374250D01*
X372000Y-8000D02*X375000Y-5000D01*
X376800Y-8750D02*X377550Y-9500D01*
X376800Y-4250D02*Y-8750D01*
Y-4250D02*X377550Y-3500D01*
X379050D01*
X379800Y-4250D01*
Y-8750D01*
X379050Y-9500D02*X379800Y-8750D01*
X377550Y-9500D02*X379050D01*
X376800Y-8000D02*X379800Y-5000D01*
X381600Y-8750D02*X382350Y-9500D01*
X381600Y-4250D02*Y-8750D01*
Y-4250D02*X382350Y-3500D01*
X383850D01*
X384600Y-4250D01*
Y-8750D01*
X383850Y-9500D02*X384600Y-8750D01*
X382350Y-9500D02*X383850D01*
X381600Y-8000D02*X384600Y-5000D01*
X389850Y-7250D02*Y-9500D01*
Y-7250D02*X390600Y-6500D01*
X391350D01*
X392100Y-7250D01*
Y-9500D01*
Y-7250D02*X392850Y-6500D01*
X393600D01*
X394350Y-7250D01*
Y-9500D01*
X389100Y-6500D02*X389850Y-7250D01*
G54D45*X396150Y-5000D02*Y-5150D01*
G54D44*Y-7250D02*Y-9500D01*
X397650Y-3500D02*Y-8750D01*
X398400Y-9500D01*
X400650D02*X402900D01*
X403650Y-8750D01*
X402900Y-8000D02*X403650Y-8750D01*
X400650Y-8000D02*X402900D01*
X399900Y-7250D02*X400650Y-8000D01*
X399900Y-7250D02*X400650Y-6500D01*
X402900D01*
X403650Y-7250D01*
X399900Y-8750D02*X400650Y-9500D01*
X200750Y179500D02*Y173500D01*
X202700Y179500D02*X203750Y178450D01*
Y174550D01*
X202700Y173500D02*X203750Y174550D01*
X200000Y173500D02*X202700D01*
X200000Y179500D02*X202700D01*
X207800Y176500D02*X208550Y175750D01*
X206300Y176500D02*X207800D01*
X205550Y175750D02*X206300Y176500D01*
X205550Y175750D02*Y174250D01*
X206300Y173500D01*
X208550Y176500D02*Y174250D01*
X209300Y173500D01*
X206300D02*X207800D01*
X208550Y174250D01*
X211850Y179500D02*Y174250D01*
X212600Y173500D01*
X211100Y177250D02*X212600D01*
X214850Y173500D02*X217100D01*
X214100Y174250D02*X214850Y173500D01*
X214100Y175750D02*Y174250D01*
Y175750D02*X214850Y176500D01*
X216350D01*
X217100Y175750D01*
X214100Y175000D02*X217100D01*
Y175750D02*Y175000D01*
X218900Y177250D02*X219650D01*
X218900Y175750D02*X219650D01*
X224150Y179500D02*Y173500D01*
Y179500D02*X226400Y176500D01*
X228650Y179500D01*
Y173500D01*
X230450Y175750D02*Y174250D01*
Y175750D02*X231200Y176500D01*
X232700D01*
X233450Y175750D01*
Y174250D01*
X232700Y173500D02*X233450Y174250D01*
X231200Y173500D02*X232700D01*
X230450Y174250D02*X231200Y173500D01*
X236000Y175750D02*Y173500D01*
Y175750D02*X236750Y176500D01*
X237500D01*
X238250Y175750D01*
Y173500D01*
X235250Y176500D02*X236000Y175750D01*
X242750Y178750D02*X243500Y179500D01*
X245750D01*
X246500Y178750D01*
Y177250D01*
X242750Y173500D02*X246500Y177250D01*
X242750Y173500D02*X246500D01*
X248300Y174250D02*X249050Y173500D01*
X248300Y175450D02*Y174250D01*
Y175450D02*X249350Y176500D01*
X250250D01*
X251300Y175450D01*
Y174250D01*
X250550Y173500D02*X251300Y174250D01*
X249050Y173500D02*X250550D01*
X248300Y177550D02*X249350Y176500D01*
X248300Y178750D02*Y177550D01*
Y178750D02*X249050Y179500D01*
X250550D01*
X251300Y178750D01*
Y177550D01*
X250250Y176500D02*X251300Y177550D01*
X255800Y178000D02*Y173500D01*
Y178000D02*X256850Y179500D01*
X258500D01*
X259550Y178000D01*
Y173500D01*
X255800Y176500D02*X259550D01*
X262100Y175750D02*Y171250D01*
X261350Y176500D02*X262100Y175750D01*
X262850Y176500D01*
X264350D01*
X265100Y175750D01*
Y174250D01*
X264350Y173500D02*X265100Y174250D01*
X262850Y173500D02*X264350D01*
X262100Y174250D02*X262850Y173500D01*
X267650Y175750D02*Y173500D01*
Y175750D02*X268400Y176500D01*
X269900D01*
X266900D02*X267650Y175750D01*
X274400Y178750D02*X275150Y179500D01*
X277400D01*
X278150Y178750D01*
Y177250D01*
X274400Y173500D02*X278150Y177250D01*
X274400Y173500D02*X278150D01*
X279950Y174250D02*X280700Y173500D01*
X279950Y178750D02*Y174250D01*
Y178750D02*X280700Y179500D01*
X282200D01*
X282950Y178750D01*
Y174250D01*
X282200Y173500D02*X282950Y174250D01*
X280700Y173500D02*X282200D01*
X279950Y175000D02*X282950Y178000D01*
X284750Y178300D02*X285950Y179500D01*
Y173500D01*
X284750D02*X287000D01*
X288800Y175750D02*X291800Y179500D01*
X288800Y175750D02*X292550D01*
X291800Y179500D02*Y173500D01*
X297050Y174250D02*X297800Y173500D01*
X297050Y178750D02*Y174250D01*
Y178750D02*X297800Y179500D01*
X299300D01*
X300050Y178750D01*
Y174250D01*
X299300Y173500D02*X300050Y174250D01*
X297800Y173500D02*X299300D01*
X297050Y175000D02*X300050Y178000D01*
X301850Y179500D02*X304850D01*
X301850D02*Y176500D01*
X302600Y177250D01*
X304100D01*
X304850Y176500D01*
Y174250D01*
X304100Y173500D02*X304850Y174250D01*
X302600Y173500D02*X304100D01*
X301850Y174250D02*X302600Y173500D01*
X306650Y177250D02*X307400D01*
X306650Y175750D02*X307400D01*
X309200Y174250D02*X309950Y173500D01*
X309200Y178750D02*Y174250D01*
Y178750D02*X309950Y179500D01*
X311450D01*
X312200Y178750D01*
Y174250D01*
X311450Y173500D02*X312200Y174250D01*
X309950Y173500D02*X311450D01*
X309200Y175000D02*X312200Y178000D01*
X314000Y178750D02*X314750Y179500D01*
X316250D01*
X317000Y178750D01*
X316250Y173500D02*X317000Y174250D01*
X314750Y173500D02*X316250D01*
X314000Y174250D02*X314750Y173500D01*
Y176800D02*X316250D01*
X317000Y178750D02*Y177550D01*
Y176050D02*Y174250D01*
Y176050D02*X316250Y176800D01*
X317000Y177550D02*X316250Y176800D01*
X318800Y177250D02*X319550D01*
X318800Y175750D02*X319550D01*
X321350Y179500D02*X324350D01*
X321350D02*Y176500D01*
X322100Y177250D01*
X323600D01*
X324350Y176500D01*
Y174250D01*
X323600Y173500D02*X324350Y174250D01*
X322100Y173500D02*X323600D01*
X321350Y174250D02*X322100Y173500D01*
X326150Y178300D02*X327350Y179500D01*
Y173500D01*
X326150D02*X328400D01*
X333650Y179500D02*Y173500D01*
X332900Y179500D02*X335900D01*
X336650Y178750D01*
Y177250D01*
X335900Y176500D02*X336650Y177250D01*
X333650Y176500D02*X335900D01*
X338450Y179500D02*Y173500D01*
Y179500D02*X340700Y176500D01*
X342950Y179500D01*
Y173500D01*
X350450Y179500D02*X351200Y178750D01*
X348200Y179500D02*X350450D01*
X347450Y178750D02*X348200Y179500D01*
X347450Y178750D02*Y174250D01*
X348200Y173500D01*
X350450D01*
X351200Y174250D01*
Y175750D02*Y174250D01*
X350450Y176500D02*X351200Y175750D01*
X348950Y176500D02*X350450D01*
X353000Y179500D02*Y173500D01*
Y179500D02*X355250Y176500D01*
X357500Y179500D01*
Y173500D01*
X359300Y179500D02*X362300D01*
X360800D02*Y173500D01*
X366800Y179500D02*Y174250D01*
X367550Y173500D01*
X369050D01*
X369800Y174250D01*
Y179500D02*Y174250D01*
X371600Y179500D02*X374600D01*
X373100D02*Y173500D01*
X377450D02*X379400D01*
X376400Y174550D02*X377450Y173500D01*
X376400Y178450D02*Y174550D01*
Y178450D02*X377450Y179500D01*
X379400D01*
X200000Y193000D02*Y188500D01*
Y193000D02*X201050Y194500D01*
X202700D01*
X203750Y193000D01*
Y188500D01*
X200000Y191500D02*X203750D01*
X205550D02*Y189250D01*
X206300Y188500D01*
X207800D01*
X208550Y189250D01*
Y191500D02*Y189250D01*
X211100Y194500D02*Y189250D01*
X211850Y188500D01*
X210350Y192250D02*X211850D01*
X213350Y194500D02*Y188500D01*
Y190750D02*X214100Y191500D01*
X215600D01*
X216350Y190750D01*
Y188500D01*
X218150Y190750D02*Y189250D01*
Y190750D02*X218900Y191500D01*
X220400D01*
X221150Y190750D01*
Y189250D01*
X220400Y188500D02*X221150Y189250D01*
X218900Y188500D02*X220400D01*
X218150Y189250D02*X218900Y188500D01*
X223700Y190750D02*Y188500D01*
Y190750D02*X224450Y191500D01*
X225950D01*
X222950D02*X223700Y190750D01*
X227750Y192250D02*X228500D01*
X227750Y190750D02*X228500D01*
X236000Y194500D02*X236750Y193750D01*
X233750Y194500D02*X236000D01*
X233000Y193750D02*X233750Y194500D01*
X233000Y193750D02*Y192250D01*
X233750Y191500D01*
X236000D01*
X236750Y190750D01*
Y189250D01*
X236000Y188500D02*X236750Y189250D01*
X233750Y188500D02*X236000D01*
X233000Y189250D02*X233750Y188500D01*
X240800Y191500D02*X241550Y190750D01*
X239300Y191500D02*X240800D01*
X238550Y190750D02*X239300Y191500D01*
X238550Y190750D02*Y189250D01*
X239300Y188500D01*
X241550Y191500D02*Y189250D01*
X242300Y188500D01*
X239300D02*X240800D01*
X241550Y189250D01*
X244100Y194500D02*Y188500D01*
Y189250D02*X244850Y188500D01*
X246350D01*
X247100Y189250D01*
Y190750D02*Y189250D01*
X246350Y191500D02*X247100Y190750D01*
X244850Y191500D02*X246350D01*
X244100Y190750D02*X244850Y191500D01*
G54D45*X248900Y193000D02*Y192850D01*
G54D44*Y190750D02*Y188500D01*
X251150Y190750D02*Y188500D01*
Y190750D02*X251900Y191500D01*
X252650D01*
X253400Y190750D01*
Y188500D01*
X250400Y191500D02*X251150Y190750D01*
X257900Y194500D02*X259400D01*
X258650D02*Y188500D01*
X257900D02*X259400D01*
X263450Y191500D02*X264200Y190750D01*
X261950Y191500D02*X263450D01*
X261200Y190750D02*X261950Y191500D01*
X261200Y190750D02*Y189250D01*
X261950Y188500D01*
X264200Y191500D02*Y189250D01*
X264950Y188500D01*
X261950D02*X263450D01*
X264200Y189250D01*
X267500Y191500D02*X269750D01*
X266750Y190750D02*X267500Y191500D01*
X266750Y190750D02*Y189250D01*
X267500Y188500D01*
X269750D01*
X271550Y190750D02*Y189250D01*
Y190750D02*X272300Y191500D01*
X273800D01*
X274550Y190750D01*
Y189250D01*
X273800Y188500D02*X274550Y189250D01*
X272300Y188500D02*X273800D01*
X271550Y189250D02*X272300Y188500D01*
X276350Y194500D02*Y188500D01*
Y189250D02*X277100Y188500D01*
X278600D01*
X279350Y189250D01*
Y190750D02*Y189250D01*
X278600Y191500D02*X279350Y190750D01*
X277100Y191500D02*X278600D01*
X276350Y190750D02*X277100Y191500D01*
X200000Y209500D02*X203000D01*
X201500D02*Y203500D01*
G54D45*X204800Y208000D02*Y207850D01*
G54D44*Y205750D02*Y203500D01*
X207050Y209500D02*Y204250D01*
X207800Y203500D01*
X206300Y207250D02*X207800D01*
X209300Y209500D02*Y204250D01*
X210050Y203500D01*
X212300D02*X214550D01*
X211550Y204250D02*X212300Y203500D01*
X211550Y205750D02*Y204250D01*
Y205750D02*X212300Y206500D01*
X213800D01*
X214550Y205750D01*
X211550Y205000D02*X214550D01*
Y205750D02*Y205000D01*
X216350Y207250D02*X217100D01*
X216350Y205750D02*X217100D01*
X222350D02*Y203500D01*
Y205750D02*X223100Y206500D01*
X223850D01*
X224600Y205750D01*
Y203500D01*
Y205750D02*X225350Y206500D01*
X226100D01*
X226850Y205750D01*
Y203500D01*
X221600Y206500D02*X222350Y205750D01*
X228650Y204250D02*X229400Y203500D01*
X228650Y208750D02*Y204250D01*
Y208750D02*X229400Y209500D01*
X230900D01*
X231650Y208750D01*
Y204250D01*
X230900Y203500D02*X231650Y204250D01*
X229400Y203500D02*X230900D01*
X228650Y205000D02*X231650Y208000D01*
X234200Y205750D02*Y203500D01*
Y205750D02*X234950Y206500D01*
X235700D01*
X236450Y205750D01*
Y203500D01*
X233450Y206500D02*X234200Y205750D01*
X238250Y209500D02*X241250D01*
X238250D02*Y206500D01*
X239000Y207250D01*
X240500D01*
X241250Y206500D01*
Y204250D01*
X240500Y203500D02*X241250Y204250D01*
X239000Y203500D02*X240500D01*
X238250Y204250D02*X239000Y203500D01*
X243800Y209500D02*Y204250D01*
X244550Y203500D01*
X243050Y207250D02*X244550D01*
X246050Y208750D02*X246800Y209500D01*
X248300D01*
X249050Y208750D01*
X248300Y203500D02*X249050Y204250D01*
X246800Y203500D02*X248300D01*
X246050Y204250D02*X246800Y203500D01*
Y206800D02*X248300D01*
X249050Y208750D02*Y207550D01*
Y206050D02*Y204250D01*
Y206050D02*X248300Y206800D01*
X249050Y207550D02*X248300Y206800D01*
X251600Y205750D02*Y203500D01*
Y205750D02*X252350Y206500D01*
X253850D01*
X250850D02*X251600Y205750D01*
X259100Y209500D02*Y204250D01*
X259850Y203500D01*
X258350Y207250D02*X259850D01*
G54D45*X261350Y208000D02*Y207850D01*
G54D44*Y205750D02*Y203500D01*
X263600Y205750D02*Y203500D01*
Y205750D02*X264350Y206500D01*
X265100D01*
X265850Y205750D01*
Y203500D01*
X262850Y206500D02*X263600Y205750D01*
X267650Y206500D02*Y204250D01*
X268400Y203500D01*
X270650Y206500D02*Y202000D01*
X269900Y201250D02*X270650Y202000D01*
X268400Y201250D02*X269900D01*
X267650Y202000D02*X268400Y201250D01*
Y203500D02*X269900D01*
X270650Y204250D01*
X272450Y209500D02*X273950D01*
X273200D02*Y203500D01*
X272450D02*X273950D01*
X278750Y209500D02*X279500Y208750D01*
X276500Y209500D02*X278750D01*
X275750Y208750D02*X276500Y209500D01*
X275750Y208750D02*Y207250D01*
X276500Y206500D01*
X278750D01*
X279500Y205750D01*
Y204250D01*
X278750Y203500D02*X279500Y204250D01*
X276500Y203500D02*X278750D01*
X275750Y204250D02*X276500Y203500D01*
X282050Y209500D02*Y203500D01*
X281300Y209500D02*X284300D01*
X285050Y208750D01*
Y207250D01*
X284300Y206500D02*X285050Y207250D01*
X282050Y206500D02*X284300D01*
X289550D02*X292550D01*
X297050Y209500D02*Y203500D01*
Y209500D02*X300050D01*
X297050Y206800D02*X299300D01*
X304100Y206500D02*X304850Y205750D01*
X302600Y206500D02*X304100D01*
X301850Y205750D02*X302600Y206500D01*
X301850Y205750D02*Y204250D01*
X302600Y203500D01*
X304850Y206500D02*Y204250D01*
X305600Y203500D01*
X302600D02*X304100D01*
X304850Y204250D01*
X307400Y209500D02*Y203500D01*
Y204250D02*X308150Y203500D01*
X309650D01*
X310400Y204250D01*
Y205750D02*Y204250D01*
X309650Y206500D02*X310400Y205750D01*
X308150Y206500D02*X309650D01*
X307400Y205750D02*X308150Y206500D01*
X312950Y205750D02*Y203500D01*
Y205750D02*X313700Y206500D01*
X315200D01*
X312200D02*X312950Y205750D01*
G54D45*X317000Y208000D02*Y207850D01*
G54D44*Y205750D02*Y203500D01*
X319250Y206500D02*X321500D01*
X318500Y205750D02*X319250Y206500D01*
X318500Y205750D02*Y204250D01*
X319250Y203500D01*
X321500D01*
X325550Y206500D02*X326300Y205750D01*
X324050Y206500D02*X325550D01*
X323300Y205750D02*X324050Y206500D01*
X323300Y205750D02*Y204250D01*
X324050Y203500D01*
X326300Y206500D02*Y204250D01*
X327050Y203500D01*
X324050D02*X325550D01*
X326300Y204250D01*
X329600Y209500D02*Y204250D01*
X330350Y203500D01*
X328850Y207250D02*X330350D01*
G54D45*X331850Y208000D02*Y207850D01*
G54D44*Y205750D02*Y203500D01*
X333350Y205750D02*Y204250D01*
Y205750D02*X334100Y206500D01*
X335600D01*
X336350Y205750D01*
Y204250D01*
X335600Y203500D02*X336350Y204250D01*
X334100Y203500D02*X335600D01*
X333350Y204250D02*X334100Y203500D01*
X338900Y205750D02*Y203500D01*
Y205750D02*X339650Y206500D01*
X340400D01*
X341150Y205750D01*
Y203500D01*
X338150Y206500D02*X338900Y205750D01*
X346400Y209500D02*Y203500D01*
X348350Y209500D02*X349400Y208450D01*
Y204550D01*
X348350Y203500D02*X349400Y204550D01*
X345650Y203500D02*X348350D01*
X345650Y209500D02*X348350D01*
X351950Y205750D02*Y203500D01*
Y205750D02*X352700Y206500D01*
X354200D01*
X351200D02*X351950Y205750D01*
X358250Y206500D02*X359000Y205750D01*
X356750Y206500D02*X358250D01*
X356000Y205750D02*X356750Y206500D01*
X356000Y205750D02*Y204250D01*
X356750Y203500D01*
X359000Y206500D02*Y204250D01*
X359750Y203500D01*
X356750D02*X358250D01*
X359000Y204250D01*
X361550Y206500D02*Y204250D01*
X362300Y203500D01*
X363050D01*
X363800Y204250D01*
Y206500D02*Y204250D01*
X364550Y203500D01*
X365300D01*
X366050Y204250D01*
Y206500D02*Y204250D01*
G54D45*X367850Y208000D02*Y207850D01*
G54D44*Y205750D02*Y203500D01*
X370100Y205750D02*Y203500D01*
Y205750D02*X370850Y206500D01*
X371600D01*
X372350Y205750D01*
Y203500D01*
X369350Y206500D02*X370100Y205750D01*
X376400Y206500D02*X377150Y205750D01*
X374900Y206500D02*X376400D01*
X374150Y205750D02*X374900Y206500D01*
X374150Y205750D02*Y204250D01*
X374900Y203500D01*
X376400D01*
X377150Y204250D01*
X374150Y202000D02*X374900Y201250D01*
X376400D01*
X377150Y202000D01*
Y206500D02*Y202000D01*
M02*
